<svg width="26" height="26" viewBox="0 0 26 26" fill="none" xmlns="http://www.w3.org/2000/svg">
    <!-- Document Base (consistent with your set) -->
    <path d="M6.5 0C5.606 0 4.875 0.731 4.875 1.625V24.375C4.875 25.269 5.606 26 6.5 26H22.75C23.644 26 24.375 25.269 24.375 24.375V6.5L17.875 0H6.5Z" fill="#E2E5E7"/>
    <path d="M19.5 6.5H24.375L17.875 0V4.875C17.875 5.769 18.606 6.5 19.5 6.5Z" fill="#B0B7BD"/>
    <path d="M24.375 11.375L19.5 6.5H24.375V11.375Z" fill="#CAD1D8"/>

    <!-- TIFF Scanner Body (Deep Purple) -->
    <path d="M21.125 21.125C21.125 21.572 20.759 21.938 20.312 21.938H2.438C1.991 21.938 1.625 21.572 1.625 21.125V13C1.625 12.553 1.991 12.188 2.438 12.188H20.312C20.759 12.188 21.125 12.553 21.125 13V21.125Z" fill="#5C6BC0"/>





    <!-- "TIFF" Text Label -->
    <text x="11" y="19" font-family="Arial" font-size="7" font-weight="bold" text-anchor="middle" fill="white">doc</text>
</svg>