<svg width="26" height="26" viewBox="0 0 26 26" fill="none" xmlns="http://www.w3.org/2000/svg">
    <!-- Folder/document base -->
    <path d="M6.5 0C5.60625 0 4.875 0.73125 4.875 1.625V24.375C4.875 25.2687 5.60625 26 6.5 26H22.75C23.6437 26 24.375 25.2687 24.375 24.375V6.5L17.875 0H6.5Z" fill="#E2E5E7"/>
    <path d="M19.5 6.5H24.375L17.875 0V4.875C17.875 5.76875 18.6062 6.5 19.5 6.5Z" fill="#B0B7BD"/>
    <path d="M24.375 11.375L19.5 6.5H24.375V11.375Z" fill="#CAD1D8"/>

    <!-- Image area (purple) -->
    <path d="M21.125 21.125C21.125 21.5719 20.7594 21.9375 20.3125 21.9375H2.4375C1.99062 21.9375 1.625 21.5719 1.625 21.125V13C1.625 12.5531 1.99062 12.1875 2.4375 12.1875H20.3125C20.7594 12.1875 21.125 12.5531 21.125 13V21.125Z" fill="#9C27B0"/>

    <!-- Image representation -->
    <rect x="5" y="14" width="5" height="4" fill="#FFC107"/>
    <rect x="10" y="14" width="5" height="4" fill="#4CAF50"/>
    <rect x="15" y="14" width="5" height="4" fill="#2196F3"/>
    <rect x="5" y="18" width="5" height="3" fill="#2196F3"/>
    <rect x="10" y="18" width="5" height="3" fill="#FFC107"/>
    <rect x="15" y="18" width="5" height="3" fill="#F44336"/>

    <!-- Bottom shadow -->
    <path d="M20.3125 21.9375H4.875V22.75H20.3125C20.7594 22.75 21.125 22.3844 21.125 21.9375V21.125C21.125 21.5719 20.7594 21.9375 20.3125 21.9375Z" fill="#CAD1D8"/>
</svg>