<svg width="26" height="26" viewBox="0 0 26 26" fill="none" xmlns="http://www.w3.org/2000/svg">
    <path d="M6.5 0C5.60625 0 4.875 0.73125 4.875 1.625V24.375C4.875 25.2687 5.60625 26 6.5 26H22.75C23.6437 26 24.375 25.2687 24.375 24.375V6.5L17.875 0H6.5Z" fill="#E2E5E7"/>
    <path d="M19.5 6.5H24.375L17.875 0V4.875C17.875 5.76875 18.6062 6.5 19.5 6.5Z" fill="#B0B7BD"/>
    <path d="M24.375 11.375L19.5 6.5H24.375V11.375Z" fill="#CAD1D8"/>
    <path d="M21.125 21.125C21.125 21.5719 20.7594 21.9375 20.3125 21.9375H2.4375C1.99062 21.9375 1.625 21.5719 1.625 21.125V13C1.625 12.5531 1.99062 12.1875 2.4375 12.1875H20.3125C20.7594 12.1875 21.125 12.5531 21.125 13V21.125Z" fill="#F15642"/>
    <path d="M5.16699 15.3938C5.16699 15.1793 5.33599 14.9453 5.60818 14.9453H7.10887C7.95387 14.9453 8.71437 15.5108 8.71437 16.5947C8.71437 17.6217 7.95387 18.1937 7.10887 18.1937H6.02418V19.0517C6.02418 19.3377 5.84218 19.4994 5.60818 19.4994C5.39368 19.4994 5.16699 19.3377 5.16699 19.0517V15.3938ZM6.02418 15.7635V17.382H7.10887C7.54437 17.382 7.88887 16.9977 7.88887 16.5947C7.88887 16.1405 7.54437 15.7635 7.10887 15.7635H6.02418ZM9.98674 19.4994C9.77224 19.4994 9.53824 19.3824 9.53824 19.0972V15.4068C9.53824 15.1736 9.77224 15.0038 9.98674 15.0038H11.4744C14.4433 15.0038 14.3783 19.4994 11.5329 19.4994H9.98674ZM10.3962 15.7968V18.7072H11.4744C13.2286 18.7072 13.3066 15.7968 11.4744 15.7968H10.3962ZM15.4313 15.8488V16.8815H17.088C17.322 16.8815 17.556 17.1155 17.556 17.3422C17.556 17.5567 17.322 17.7322 17.088 17.7322H15.4313V19.0964C15.4313 19.3239 15.2696 19.4986 15.0421 19.4986C14.7561 19.4986 14.5814 19.3239 14.5814 19.0964V15.406C14.5814 15.1728 14.7569 15.003 15.0421 15.003H17.3228C17.6088 15.003 17.7778 15.1728 17.7778 15.406C17.7778 15.614 17.6088 15.848 17.3228 15.848H15.4313V15.8488Z" fill="white"/>
    <path d="M20.3125 21.9375H4.875V22.75H20.3125C20.7594 22.75 21.125 22.3844 21.125 21.9375V21.125C21.125 21.5719 20.7594 21.9375 20.3125 21.9375Z" fill="#CAD1D8"/>
</svg>
