<svg width="21" height="20" viewBox="0 0 21 20" fill="none" xmlns="http://www.w3.org/2000/svg">
<mask id="mask0_4550_9893" style="mask-type:luminance" maskUnits="userSpaceOnUse" x="2" y="1" width="17" height="18">
<path fill-rule="evenodd" clip-rule="evenodd" d="M2.16675 1.66699H18.8333V18.3337H2.16675V1.66699Z" fill="white"/>
</mask>
<g mask="url(#mask0_4550_9893)">
<path fill-rule="evenodd" clip-rule="evenodd" d="M6.88675 2.91699C4.77925 2.91699 3.41675 4.36116 3.41675 6.59699V13.4037C3.41675 15.6395 4.77925 17.0837 6.88675 17.0837H14.1101C16.2201 17.0837 17.5834 15.6395 17.5834 13.4037V6.59699C17.5834 4.36116 16.2201 2.91699 14.1117 2.91699H6.88675ZM14.1101 18.3337H6.88675C4.06341 18.3337 2.16675 16.352 2.16675 13.4037V6.59699C2.16675 3.64866 4.06341 1.66699 6.88675 1.66699H14.1117C16.9359 1.66699 18.8334 3.64866 18.8334 6.59699V13.4037C18.8334 16.352 16.9359 18.3337 14.1101 18.3337Z" fill="#FAFAFA"/>
</g>
<path fill-rule="evenodd" clip-rule="evenodd" d="M10.4951 13.9583C10.1501 13.9583 9.87012 13.6783 9.87012 13.3333V10C9.87012 9.655 10.1501 9.375 10.4951 9.375C10.8401 9.375 11.1201 9.655 11.1201 10V13.3333C11.1201 13.6783 10.8401 13.9583 10.4951 13.9583Z" fill="#FAFAFA"/>
<path fill-rule="evenodd" clip-rule="evenodd" d="M10.4991 7.67057C10.0383 7.67057 9.66162 7.29807 9.66162 6.83724C9.66162 6.37641 10.0308 6.00391 10.4908 6.00391H10.4991C10.96 6.00391 11.3325 6.37641 11.3325 6.83724C11.3325 7.29807 10.96 7.67057 10.4991 7.67057Z" fill="#FAFAFA"/>
</svg>
