<svg width="21" height="20" viewBox="0 0 21 20" fill="none" xmlns="http://www.w3.org/2000/svg">
<path fill-rule="evenodd" clip-rule="evenodd" d="M6.16988 -0.000976562H14.8399C18.2299 -0.000976562 20.4999 2.37902 20.4999 5.91902V14.09C20.4999 17.62 18.2299 19.999 14.8399 19.999H6.16988C2.77988 19.999 0.499878 17.62 0.499878 14.09V5.91902C0.499878 2.37902 2.77988 -0.000976562 6.16988 -0.000976562ZM10.4899 7.06002C10.0199 7.06002 9.62988 6.66902 9.62988 6.19002C9.62988 5.70002 10.0199 5.31002 10.5099 5.31002C10.9899 5.31002 11.3799 5.70002 11.3799 6.19002C11.3799 6.66902 10.9899 7.06002 10.4899 7.06002ZM11.3699 13.78C11.3699 14.26 10.9799 14.65 10.4899 14.65C10.0099 14.65 9.61988 14.26 9.61988 13.78V9.36002C9.61988 8.87902 10.0099 8.48002 10.4899 8.48002C10.9799 8.48002 11.3699 8.87902 11.3699 9.36002V13.78Z" fill="url(#paint0_linear_5161_1991)"/>
<defs>
<linearGradient id="paint0_linear_5161_1991" x1="20.4999" y1="19.999" x2="-3.29833" y2="13.099" gradientUnits="userSpaceOnUse">
<stop stop-color="#F89300"/>
<stop offset="1" stop-color="#FFBB58"/>
</linearGradient>
</defs>
</svg>
