<svg width="36" height="89" viewBox="0 0 36 89" fill="none" xmlns="http://www.w3.org/2000/svg">
<path d="M24.7136 88.4787C21.6751 88.4507 18.7906 87.0925 16.6343 84.9361L1.34383 69.6317C0.797741 69.0856 0.475689 68.3295 0.615712 67.5733C0.811743 66.4532 1.7639 65.683 2.84207 65.683H7.74286C9.24111 65.683 10.7393 65.207 11.8735 64.1988C13.2318 62.9806 13.9459 61.2863 13.8619 59.494L13.7498 19.9096C13.7498 18.9015 14.3519 17.9913 15.2901 17.6133C16.2282 17.2212 17.2924 17.4452 18.0065 18.1594C18.0345 18.1874 18.0625 18.2154 18.0905 18.2574L33.577 36.0823C35.1453 37.6925 35.9994 39.8069 35.9994 42.0612V77.3049C35.9994 83.5079 30.9306 88.5347 24.7276 88.4787H24.7136ZM7.12676 69.7157L19.7428 82.3457C21.129 83.7319 22.9913 84.4741 24.9516 84.4321C28.8863 84.348 31.9388 80.9315 31.9388 77.0109V42.0472C31.9388 40.843 31.4767 39.7088 30.6366 38.8687C30.6086 38.8407 30.5806 38.8127 30.5526 38.7707L17.7965 24.0823L17.8945 59.396C18.0345 62.1825 16.9564 64.8989 14.884 66.9292C12.9657 68.7915 10.3193 69.7297 7.64485 69.7297H7.15477L7.12676 69.7157Z" fill="#F6A61C"/>
<path d="M3.94864 69.7155H3.48656C1.80629 69.7155 0 68.6374 0 65.6129V19.7695C0 18.7613 0.686111 17.8371 1.68027 17.6691C2.94047 17.4591 4.03265 18.4392 4.03265 19.6574V65.6129C4.03265 65.6129 4.03265 65.6549 4.03265 65.6829H4.10266C5.32086 65.6829 6.27301 66.7471 6.10499 67.9933C5.96496 69.0154 4.98481 69.7155 3.94864 69.7155Z" fill="#F6A61C"/>
<path d="M8.65353 60.0122C7.53335 60.0122 6.63721 59.1021 6.63721 57.9959V24.0964C6.63721 22.9762 7.54735 22.0801 8.65353 22.0801C9.75971 22.0801 10.6699 22.9902 10.6699 24.0964V57.9959C10.6699 59.1161 9.75971 60.0122 8.65353 60.0122Z" fill="#F6A61C"/>
<path d="M8.40157 16.1586C12.8636 16.1586 16.4809 12.5414 16.4809 8.07931C16.4809 3.61723 12.8636 0 8.40157 0C3.93949 0 0.322266 3.61723 0.322266 8.07931C0.322266 12.5414 3.93949 16.1586 8.40157 16.1586Z" fill="#F6A61C"/>
</svg>
