<svg width="25" height="24" viewBox="0 0 25 24" fill="none" xmlns="http://www.w3.org/2000/svg">
<path d="M3.75 7H21.75C22.0152 7 22.2696 6.89464 22.4571 6.70711C22.6446 6.51957 22.75 6.26522 22.75 6C22.75 5.73478 22.6446 5.48043 22.4571 5.29289C22.2696 5.10536 22.0152 5 21.75 5H3.75C3.48478 5 3.23043 5.10536 3.04289 5.29289C2.85536 5.48043 2.75 5.73478 2.75 6C2.75 6.26522 2.85536 6.51957 3.04289 6.70711C3.23043 6.89464 3.48478 7 3.75 7ZM21.75 17H7.75C7.48478 17 7.23043 17.1054 7.04289 17.2929C6.85536 17.4804 6.75 17.7348 6.75 18C6.75 18.2652 6.85536 18.5196 7.04289 18.7071C7.23043 18.8946 7.48478 19 7.75 19H21.75C22.0152 19 22.2696 18.8946 22.4571 18.7071C22.6446 18.5196 22.75 18.2652 22.75 18C22.75 17.7348 22.6446 17.4804 22.4571 17.2929C22.2696 17.1054 22.0152 17 21.75 17ZM21.75 9H7.75C7.48478 9 7.23043 9.10536 7.04289 9.29289C6.85536 9.48043 6.75 9.73478 6.75 10C6.75 10.2652 6.85536 10.5196 7.04289 10.7071C7.23043 10.8946 7.48478 11 7.75 11H21.75C22.0152 11 22.2696 10.8946 22.4571 10.7071C22.6446 10.5196 22.75 10.2652 22.75 10C22.75 9.73478 22.6446 9.48043 22.4571 9.29289C22.2696 9.10536 22.0152 9 21.75 9ZM21.75 13H3.75C3.48478 13 3.23043 13.1054 3.04289 13.2929C2.85536 13.4804 2.75 13.7348 2.75 14C2.75 14.2652 2.85536 14.5196 3.04289 14.7071C3.23043 14.8946 3.48478 15 3.75 15H21.75C22.0152 15 22.2696 14.8946 22.4571 14.7071C22.6446 14.5196 22.75 14.2652 22.75 14C22.75 13.7348 22.6446 13.4804 22.4571 13.2929C22.2696 13.1054 22.0152 13 21.75 13Z" fill="white"/>
</svg>
