<svg width="25" height="24" viewBox="0 0 25 24" fill="none" xmlns="http://www.w3.org/2000/svg">
<path d="M3.25 7H21.25C21.5152 7 21.7696 6.89464 21.9571 6.70711C22.1446 6.51957 22.25 6.26522 22.25 6C22.25 5.73478 22.1446 5.48043 21.9571 5.29289C21.7696 5.10536 21.5152 5 21.25 5H3.25C2.98478 5 2.73043 5.10536 2.54289 5.29289C2.35536 5.48043 2.25 5.73478 2.25 6C2.25 6.26522 2.35536 6.51957 2.54289 6.70711C2.73043 6.89464 2.98478 7 3.25 7ZM7.25 9C6.98478 9 6.73043 9.10536 6.54289 9.29289C6.35536 9.48043 6.25 9.73478 6.25 10C6.25 10.2652 6.35536 10.5196 6.54289 10.7071C6.73043 10.8946 6.98478 11 7.25 11H17.25C17.5152 11 17.7696 10.8946 17.9571 10.7071C18.1446 10.5196 18.25 10.2652 18.25 10C18.25 9.73478 18.1446 9.48043 17.9571 9.29289C17.7696 9.10536 17.5152 9 17.25 9H7.25ZM21.25 13H3.25C2.98478 13 2.73043 13.1054 2.54289 13.2929C2.35536 13.4804 2.25 13.7348 2.25 14C2.25 14.2652 2.35536 14.5196 2.54289 14.7071C2.73043 14.8946 2.98478 15 3.25 15H21.25C21.5152 15 21.7696 14.8946 21.9571 14.7071C22.1446 14.5196 22.25 14.2652 22.25 14C22.25 13.7348 22.1446 13.4804 21.9571 13.2929C21.7696 13.1054 21.5152 13 21.25 13ZM17.25 17H7.25C6.98478 17 6.73043 17.1054 6.54289 17.2929C6.35536 17.4804 6.25 17.7348 6.25 18C6.25 18.2652 6.35536 18.5196 6.54289 18.7071C6.73043 18.8946 6.98478 19 7.25 19H17.25C17.5152 19 17.7696 18.8946 17.9571 18.7071C18.1446 18.5196 18.25 18.2652 18.25 18C18.25 17.7348 18.1446 17.4804 17.9571 17.2929C17.7696 17.1054 17.5152 17 17.25 17Z" fill="white"/>
</svg>
