<svg width="25" height="24" viewBox="0 0 25 24" fill="none" xmlns="http://www.w3.org/2000/svg">
<path d="M21.25 15H3.25C2.98478 15 2.73043 15.1054 2.54289 15.2929C2.35536 15.4804 2.25 15.7348 2.25 16C2.25 16.2652 2.35536 16.5196 2.54289 16.7071C2.73043 16.8946 2.98478 17 3.25 17H21.25C21.5152 17 21.7696 16.8946 21.9571 16.7071C22.1446 16.5196 22.25 16.2652 22.25 16C22.25 15.7348 22.1446 15.4804 21.9571 15.2929C21.7696 15.1054 21.5152 15 21.25 15ZM3.25 5H21.25C21.5152 5 21.7696 4.89464 21.9571 4.70711C22.1446 4.51957 22.25 4.26522 22.25 4C22.25 3.73478 22.1446 3.48043 21.9571 3.29289C21.7696 3.10536 21.5152 3 21.25 3H3.25C2.98478 3 2.73043 3.10536 2.54289 3.29289C2.35536 3.48043 2.25 3.73478 2.25 4C2.25 4.26522 2.35536 4.51957 2.54289 4.70711C2.73043 4.89464 2.98478 5 3.25 5ZM17.25 19H7.25C6.98478 19 6.73043 19.1054 6.54289 19.2929C6.35536 19.4804 6.25 19.7348 6.25 20C6.25 20.2652 6.35536 20.5196 6.54289 20.7071C6.73043 20.8946 6.98478 21 7.25 21H17.25C17.5152 21 17.7696 20.8946 17.9571 20.7071C18.1446 20.5196 18.25 20.2652 18.25 20C18.25 19.7348 18.1446 19.4804 17.9571 19.2929C17.7696 19.1054 17.5152 19 17.25 19ZM21.25 7H3.25C2.98478 7 2.73043 7.10536 2.54289 7.29289C2.35536 7.48043 2.25 7.73478 2.25 8C2.25 8.26522 2.35536 8.51957 2.54289 8.70711C2.73043 8.89464 2.98478 9 3.25 9H21.25C21.5152 9 21.7696 8.89464 21.9571 8.70711C22.1446 8.51957 22.25 8.26522 22.25 8C22.25 7.73478 22.1446 7.48043 21.9571 7.29289C21.7696 7.10536 21.5152 7 21.25 7ZM21.25 11H3.25C2.98478 11 2.73043 11.1054 2.54289 11.2929C2.35536 11.4804 2.25 11.7348 2.25 12C2.25 12.2652 2.35536 12.5196 2.54289 12.7071C2.73043 12.8946 2.98478 13 3.25 13H21.25C21.5152 13 21.7696 12.8946 21.9571 12.7071C22.1446 12.5196 22.25 12.2652 22.25 12C22.25 11.7348 22.1446 11.4804 21.9571 11.2929C21.7696 11.1054 21.5152 11 21.25 11Z" fill="white"/>
</svg>
