<svg width="26" height="19" viewBox="0 0 26 19" fill="none" xmlns="http://www.w3.org/2000/svg">
    <path d="M0.5 14.625C0.5 13.5204 1.39543 12.625 2.5 12.625H23.5C24.6046 12.625 25.5 13.5204 25.5 14.625V16.875C25.5 17.9796 24.6046 18.875 23.5 18.875H2.5C1.39543 18.875 0.5 17.9796 0.5 16.875V14.625Z" fill="#212121"/>
    <path d="M0.5 8.375C0.5 7.27043 1.39543 6.375 2.5 6.375H23.5C24.6046 6.375 25.5 7.27043 25.5 8.375V10.625C25.5 11.7296 24.6046 12.625 23.5 12.625H2.5C1.39543 12.625 0.5 11.7296 0.5 10.625V8.375Z" fill="white"/>
    <path d="M0.5 2.125C0.5 1.02043 1.39543 0.125 2.5 0.125H23.5C24.6046 0.125 25.5 1.02043 25.5 2.125V4.375C25.5 5.47957 24.6046 6.375 23.5 6.375H2.5C1.39543 6.375 0.5 5.47957 0.5 4.375V2.125Z" fill="#CE1126"/>
    <path d="M13.025 9.57521C13.025 9.57523 13.025 9.57526 13.025 9.57527L13.6652 10.1696C14.2163 10.6812 15.1106 10.2685 15.0789 9.5172L15.0129 7.95368C14.9905 7.40681 14.5153 7.53224 14.1701 7.72952C14.0184 7.82669 13.8575 7.88173 13.6896 7.90085C13.238 7.95227 12.7617 7.95229 12.3101 7.90085C12.1422 7.88172 11.9813 7.82668 11.8297 7.72952C11.4846 7.53224 11.0094 7.40677 10.9869 7.95365L10.9593 8.60732C10.913 9.70387 12.2121 10.3126 13.025 9.57521Z" fill="white" stroke="#C09300" stroke-width="1.016" stroke-linejoin="round"/>
    <path d="M11.233 7.82814C11.233 7.82813 11.233 7.82814 11.233 7.82815L11.0872 11.2871C11.0859 11.3197 11.0713 11.3504 11.047 11.3721C10.9674 11.4431 10.8415 11.3835 10.846 11.2769L10.9845 8.00099C10.9857 7.97121 11.0008 7.94363 11.0259 7.92748C11.0976 7.88126 11.1919 7.82817 11.233 7.82816C11.233 7.82816 11.233 7.82815 11.233 7.82814ZM11.5336 8.07935C11.5336 8.07937 11.5336 8.07938 11.5336 8.0794L11.4101 10.9697C11.4088 10.9992 11.3967 11.0271 11.3761 11.0482C11.2994 11.1267 11.1663 11.069 11.1712 10.9593L11.2987 8.12331C11.3029 8.03077 11.421 7.98082 11.4911 8.04129C11.511 8.05839 11.5265 8.07201 11.5336 8.07913C11.5336 8.07919 11.5337 8.07927 11.5336 8.07935ZM11.7889 8.28715C11.8069 8.30239 11.8065 8.31687 11.8056 8.34047L11.71 10.714C11.709 10.7386 11.6987 10.7618 11.6811 10.779C11.6187 10.84 11.5138 10.7931 11.5177 10.7058L11.6237 8.3473C11.627 8.27388 11.7327 8.23975 11.7889 8.28715ZM12.103 8.42906C12.103 8.42906 12.103 8.42908 12.103 8.42909L12.0064 10.4735C12.0051 10.5007 11.9923 10.5259 11.9713 10.543C11.9075 10.5947 11.8126 10.547 11.8161 10.465L11.8967 8.56534C11.9011 8.46372 12.0013 8.42906 12.103 8.42906ZM12.2329 8.45104C12.2848 8.44993 12.3726 8.52294 12.3704 8.57477L12.3063 10.1299C12.3052 10.1546 12.2948 10.178 12.2772 10.1952C12.2145 10.2565 12.1092 10.2097 12.1127 10.1221L12.177 8.5062C12.1782 8.47564 12.2023 8.4517 12.2329 8.45104Z" fill="#C09300"/>
    <path d="M14.766 7.82814C14.766 7.82813 14.766 7.82814 14.766 7.82815L14.9118 11.2871C14.9132 11.3197 14.9277 11.3504 14.952 11.3721C15.0316 11.4431 15.1575 11.3835 15.153 11.2769L15.0145 8.00099C15.0133 7.97121 14.9982 7.94363 14.9731 7.92748C14.9014 7.88126 14.8071 7.82817 14.766 7.82816C14.766 7.82816 14.766 7.82815 14.766 7.82814ZM14.4654 8.07935C14.4654 8.07937 14.4654 8.07938 14.4654 8.0794L14.589 10.9697C14.5902 10.9992 14.6023 11.0271 14.6229 11.0482C14.6996 11.1267 14.8328 11.069 14.8278 10.9593L14.7003 8.12331C14.6962 8.03077 14.578 7.98082 14.5079 8.04129C14.488 8.05839 14.4726 8.07201 14.4654 8.07913C14.4654 8.07919 14.4654 8.07927 14.4654 8.07935ZM14.2101 8.28715C14.1921 8.30239 14.1925 8.31687 14.1934 8.34047L14.289 10.714C14.29 10.7386 14.3003 10.7618 14.3179 10.779C14.3803 10.84 14.4852 10.7931 14.4813 10.7058L14.3753 8.3473C14.372 8.27388 14.2663 8.23975 14.2101 8.28715ZM13.896 8.42906C13.896 8.42906 13.896 8.42908 13.896 8.42909L13.9926 10.4735C13.9939 10.5007 14.0067 10.5259 14.0278 10.543C14.0915 10.5947 14.1864 10.547 14.1829 10.465L14.1023 8.56534C14.098 8.46372 13.9977 8.42906 13.896 8.42906ZM13.7661 8.45104C13.7142 8.44993 13.6264 8.52294 13.6286 8.57477L13.6928 10.1299C13.6938 10.1546 13.7042 10.178 13.7218 10.1952C13.7845 10.2565 13.8899 10.2097 13.8864 10.1221L13.822 8.5062C13.8208 8.47564 13.7967 8.4517 13.7661 8.45104Z" fill="#C09300"/>
    <path d="M13.0983 9.97102C13.0983 9.97099 13.0983 9.971 13.0983 9.97104L13.3871 11.2853C13.3943 11.3183 13.3842 11.3527 13.3603 11.3766C13.3257 11.4113 13.2704 11.415 13.231 11.3858C13.2093 11.3698 13.1948 11.3456 13.1911 11.319L13.0266 10.1414L13.0961 11.3241C13.0975 11.3476 13.0902 11.3709 13.0756 11.3895C13.0369 11.4387 12.9623 11.4388 12.9236 11.3895C12.909 11.3709 12.9017 11.3477 12.9031 11.3241L12.9727 10.1414L12.8082 11.319C12.8045 11.3457 12.7899 11.3699 12.7683 11.3859C12.7289 11.415 12.6736 11.4114 12.6389 11.3767C12.615 11.3528 12.605 11.3184 12.6122 11.2855L12.8754 10.087C12.8903 10.0193 12.9503 9.97104 13.0197 9.97104H13.0982C13.0982 9.97104 13.0982 9.97103 13.0983 9.97102Z" fill="#C09300" stroke="#C09300" stroke-width="0.8592"/>
    <path d="M12.3272 9.37039C12.3272 9.37039 12.3272 9.37039 12.3272 9.37039L11.8541 11.0494C11.7887 11.2814 11.9412 11.5184 12.1796 11.5548C12.3887 11.5868 12.5868 11.4509 12.6322 11.2443L12.8711 10.1568C12.8899 10.071 12.8667 9.98146 12.8086 9.91565L12.3272 9.37038C12.3272 9.37038 12.3272 9.37038 12.3272 9.37039Z" fill="white" stroke="#C09300" stroke-width="0.9512" stroke-linejoin="round"/>
    <path d="M12.1299 10.0924V10.0924C12.1644 10.1765 12.2726 10.1995 12.3383 10.1367L12.5893 9.89697" stroke="#C09300" stroke-width="1.016" stroke-linejoin="round"/>
    <path d="M12.3985 9.65405L12.4366 10.011C12.4521 10.1565 12.6374 10.2084 12.7262 10.0921V10.0921M12.6276 10.2175L12.7623 10.6823M12.8151 10.5116L12.5426 10.9253M12.6276 11.3383L12.5404 10.9259L12.4934 10.6669C12.4824 10.6062 12.4041 10.588 12.3674 10.6377V10.6377C12.3325 10.6848 12.2587 10.6713 12.2428 10.6149L12.2385 10.5994C12.2221 10.5413 12.149 10.5226 12.1069 10.5658L12.0096 10.6656C11.9704 10.7059 11.9554 10.7639 11.9701 10.8182L12.0292 11.035C12.047 11.1001 12.1339 11.1123 12.1689 11.0547L12.172 11.0496C12.2048 10.9957 12.2859 11.005 12.3056 11.065V11.065C12.325 11.1242 12.4045 11.1344 12.4382 11.082L12.5381 10.9264" stroke="#C09300" stroke-width="1.016" stroke-linejoin="round"/>
    <path d="M11.9053 11.437L11.9686 11.3481C12.0103 11.2895 12.1011 11.3044 12.1218 11.3733L12.136 11.4206C12.1524 11.4747 12.2253 11.4835 12.254 11.4348V11.4348C12.2823 11.3868 12.354 11.3945 12.3714 11.4475L12.4254 11.6118" stroke="#C09300" stroke-width="1.016" stroke-linejoin="round"/>
    <path d="M13.6718 9.37039C13.6718 9.37039 13.6718 9.37039 13.6718 9.37039L14.145 11.0494C14.2104 11.2814 14.0578 11.5184 13.8195 11.5548C13.6103 11.5868 13.4123 11.4509 13.3669 11.2443L13.1279 10.1568C13.1091 10.071 13.1323 9.98146 13.1904 9.91565L13.6718 9.37038C13.6718 9.37038 13.6718 9.37038 13.6718 9.37039Z" fill="white" stroke="#C09300" stroke-width="0.9512" stroke-linejoin="round"/>
    <path d="M13.8691 10.0923V10.0923C13.8347 10.1763 13.7264 10.1993 13.6608 10.1366L13.4097 9.89685" stroke="#C09300" stroke-width="1.016" stroke-linejoin="round"/>
    <path d="M13.6005 9.65393L13.5625 10.0109C13.5469 10.1564 13.3617 10.2083 13.2728 10.092V10.092M13.3715 10.2174L13.2368 10.6822M13.184 10.5114L13.4564 10.9252M13.3714 11.3382L13.4586 10.9258L13.5056 10.6668C13.5166 10.606 13.595 10.5878 13.6316 10.6375V10.6375C13.6665 10.6847 13.7403 10.6712 13.7562 10.6147L13.7606 10.5992C13.7769 10.5411 13.85 10.5225 13.8921 10.5657L13.9894 10.6655C14.0286 10.7058 14.0437 10.7638 14.0289 10.8181L13.9698 11.0349C13.9521 11.0999 13.8651 11.1122 13.8301 11.0546L13.827 11.0495C13.7942 10.9955 13.7132 11.0049 13.6935 11.0649V11.0649C13.674 11.1241 13.5946 11.1343 13.5609 11.0818L13.4609 10.9263" stroke="#C09300" stroke-width="1.016" stroke-linejoin="round"/>
    <path d="M14.0938 11.4368L14.0305 11.3479C13.9888 11.2894 13.898 11.3043 13.8772 11.3732L13.863 11.4205C13.8467 11.4746 13.7737 11.4834 13.745 11.4347V11.4347C13.7167 11.3866 13.645 11.3944 13.6276 11.4474L13.5736 11.6117" stroke="#C09300" stroke-width="1.016" stroke-linejoin="round"/>
    <path d="M12.9998 12.432C12.9998 12.432 12.9998 12.432 12.9998 12.432C13.623 12.432 14.2193 12.3827 14.5689 12.284C14.7037 12.2596 14.7157 12.1942 14.7168 12.1082C14.717 12.0928 14.7271 12.0794 14.7409 12.0723C14.7443 12.0706 14.7475 12.0688 14.7507 12.0668C14.7851 12.0457 14.7261 11.7216 14.6871 11.7111C14.6659 11.7053 14.641 11.6895 14.6368 11.6679C14.6103 11.5321 14.4529 11.5174 14.3179 11.5623C14.022 11.6611 13.4974 11.6834 12.9998 11.6834C12.5022 11.661 11.9821 11.661 11.6817 11.5624C11.5467 11.5175 11.3894 11.5322 11.3629 11.6679C11.3586 11.6895 11.3338 11.7054 11.3126 11.7111C11.2735 11.7217 11.2145 12.0457 11.249 12.0669C11.2521 12.0688 11.2554 12.0706 11.2588 12.0724C11.2725 12.0794 11.2826 12.0928 11.2828 12.1083C11.2839 12.1943 11.2964 12.2597 11.4352 12.2841C11.7803 12.3827 12.3766 12.432 12.9998 12.432C12.9998 12.432 12.9998 12.432 12.9998 12.432Z" fill="white" stroke="#C09300" stroke-width="1.9024" stroke-linecap="round" stroke-linejoin="round"/>
    <path d="M12.1524 11.4858C12.354 11.5127 12.5782 11.5351 12.7531 11.5127C12.8517 11.5127 12.9234 11.6831 12.7262 11.71C12.5514 11.7323 12.2779 11.71 12.1299 11.6831C12.0044 11.6606 11.7309 11.6113 11.556 11.5619C11.3812 11.4858 11.5068 11.3379 11.6054 11.3603C11.7579 11.4096 11.9551 11.459 12.1524 11.4858ZM13.847 11.4858C13.6453 11.5127 13.4212 11.5351 13.2508 11.5127C13.1476 11.5127 13.0759 11.6831 13.2732 11.71C13.448 11.7323 13.7215 11.71 13.8694 11.6831C13.995 11.6606 14.2684 11.6113 14.4432 11.5619C14.6181 11.4858 14.4926 11.3379 14.3939 11.3603C14.2415 11.4096 14.0443 11.459 13.8471 11.4858H13.847Z" fill="white" stroke="#C09300" stroke-width="1.016" stroke-linecap="round" stroke-linejoin="round"/>
    <path d="M11.5072 11.5352C11.5312 11.4669 11.4424 11.3797 11.3934 11.433C11.3859 11.4411 11.3792 11.45 11.3734 11.4594C11.3349 11.5216 11.4769 11.6017 11.5072 11.5352ZM12.1302 11.8457C12.1302 11.7472 12.2288 11.7593 12.2288 11.6607C12.2288 11.6114 12.2019 11.5351 12.1527 11.5351C12.0511 11.5351 12.0503 11.6856 12.1064 11.7703C12.1198 11.7904 12.1302 11.8136 12.1302 11.8457V11.8457ZM12.8399 11.562C12.9115 11.562 12.9449 11.6082 12.9523 11.6671C12.9602 11.7301 12.7758 11.7736 12.7758 11.71C12.7758 11.6337 12.8891 11.6337 12.8399 11.562C12.8399 11.562 12.8399 11.562 12.8399 11.562ZM14.4659 11.3873C14.4659 11.3873 14.4659 11.3873 14.4659 11.3873C14.5926 11.365 14.6636 11.482 14.6555 11.5788C14.6536 11.6017 14.6187 11.6073 14.5979 11.5975C14.559 11.5791 14.5078 11.5682 14.4928 11.5352C14.4659 11.459 14.5153 11.459 14.4659 11.3873C14.4659 11.3873 14.4659 11.3873 14.4659 11.3873ZM13.8696 11.8457C13.8696 11.8457 13.8696 11.8457 13.8696 11.8457C13.8696 11.7472 13.7711 11.7593 13.7711 11.6607C13.7711 11.6114 13.7979 11.5351 13.8473 11.5351C13.8803 11.5351 13.9133 11.5572 13.9315 11.5867C13.9489 11.6148 13.9542 11.6509 13.9468 11.6832C13.9336 11.7413 13.8696 11.7664 13.8696 11.8457C13.8696 11.8457 13.8696 11.8457 13.8696 11.8457ZM13.2142 11.6749C13.1831 11.6233 13.0708 11.5814 13.0533 11.6391C13.0506 11.648 13.0487 11.6574 13.0475 11.6671C13.0396 11.7302 13.2239 11.7736 13.2239 11.71C13.2239 11.6961 13.2201 11.6847 13.2142 11.6749Z" fill="white" stroke="#C09300" stroke-width="1.016" stroke-linecap="round" stroke-linejoin="round"/>
    <path d="M11.5832 11.4366C11.5832 11.4366 11.5832 11.4366 11.5832 11.4366C11.6167 11.4366 11.6625 11.4469 11.6955 11.462C11.7068 11.4671 11.7018 11.4761 11.6901 11.4722L11.5832 11.4366C11.5832 11.4366 11.5831 11.4366 11.5832 11.4366ZM11.8294 11.5128C11.8294 11.5129 11.8294 11.5129 11.8294 11.5129C11.8386 11.5129 11.8559 11.5154 11.8767 11.5199C11.8943 11.5236 11.8919 11.5304 11.8746 11.5255L11.8295 11.5128C11.8294 11.5127 11.8294 11.5128 11.8294 11.5128ZM12.7262 11.6112C12.7263 11.6112 12.7262 11.6113 12.7262 11.6113C12.71 11.6113 12.6885 11.6113 12.6659 11.6121C12.6317 11.6133 12.6343 11.623 12.6683 11.6186L12.7261 11.6112C12.7262 11.6112 12.7262 11.6112 12.7262 11.6112ZM12.4528 11.6113C12.4528 11.6113 12.4528 11.6113 12.4528 11.6112C12.4412 11.5997 12.4162 11.5931 12.3877 11.5915C12.3579 11.5898 12.3609 11.6113 12.3907 11.6113H12.4528ZM14.3289 11.4658C14.345 11.4604 14.3422 11.4482 14.3262 11.4539C14.3253 11.4542 14.3245 11.4546 14.3236 11.4549C14.3087 11.4604 14.3139 11.4708 14.3289 11.4658ZM14.1701 11.5129C14.17 11.5129 14.17 11.5129 14.17 11.5129C14.1599 11.5129 14.1396 11.516 14.1156 11.5214C14.0989 11.5252 14.1014 11.5321 14.1178 11.5275L14.17 11.5128C14.1701 11.5127 14.1701 11.5128 14.1701 11.5129ZM13.2731 11.6113C13.2732 11.6113 13.2732 11.6113 13.2732 11.6113C13.2948 11.6113 13.3258 11.6113 13.3561 11.6132C13.3837 11.6149 13.381 11.625 13.3535 11.6215L13.2732 11.6112C13.2731 11.6112 13.2731 11.6112 13.2731 11.6113ZM13.5464 11.6113C13.5465 11.6113 13.5466 11.6113 13.5467 11.6112C13.5503 11.6076 13.5552 11.6045 13.5611 11.6019C13.6009 11.5841 13.6004 11.6113 13.5568 11.6113H13.5464Z" fill="white" stroke="#C09300" stroke-width="0.7128" stroke-linecap="round" stroke-linejoin="round"/>
    <path d="M11.5413 11.8307C11.5413 11.8307 11.5413 11.8307 11.5413 11.8307C11.5246 11.8275 11.5159 11.8143 11.5201 11.7987C11.5252 11.7796 11.5404 11.7687 11.5548 11.7738C11.564 11.7771 11.5808 11.794 11.5808 11.8001C11.5809 11.807 11.5721 11.8236 11.5683 11.8237C11.5666 11.8237 11.5641 11.8251 11.5626 11.8268C11.5595 11.8305 11.5497 11.8323 11.5414 11.8307C11.5413 11.8307 11.5413 11.8307 11.5413 11.8307ZM13.2579 11.9532C13.2579 11.9532 13.2579 11.9532 13.2579 11.9532C13.2516 11.9508 13.2418 11.937 13.2418 11.9306C13.2419 11.9185 13.2597 11.8987 13.2709 11.8987C13.2763 11.8986 13.2913 11.9064 13.2969 11.9122C13.3071 11.9227 13.3048 11.9401 13.2921 11.9499C13.2858 11.9548 13.2671 11.9566 13.2579 11.9532C13.2579 11.9532 13.2579 11.9532 13.2579 11.9532ZM13.2691 12.0307C13.2691 12.0307 13.2691 12.0307 13.2691 12.0307C13.256 12.0262 13.2512 12.0198 13.2502 12.0052C13.249 11.9901 13.2505 11.9877 13.2666 11.979L13.2676 11.9785C13.2741 11.9749 13.282 11.9745 13.2888 11.9776C13.3037 11.9843 13.3104 11.9915 13.311 12.0016C13.3115 12.0125 13.3035 12.0236 13.291 12.0292C13.28 12.0342 13.2793 12.0342 13.2692 12.0308C13.2691 12.0307 13.2691 12.0307 13.2691 12.0307Z" fill="#C09300"/>
    <path d="M11.6792 11.6905C11.6792 11.6905 11.6792 11.6906 11.6792 11.6906C11.6703 11.6903 11.6588 11.6969 11.6503 11.7021C11.6468 11.7042 11.643 11.7057 11.6391 11.7068C11.6291 11.7096 11.6184 11.7135 11.608 11.7147C11.5898 11.7168 11.5717 11.7034 11.5541 11.7084C11.533 11.7144 11.5353 11.7473 11.5561 11.7541C11.5602 11.7555 11.5645 11.7561 11.5687 11.7559C11.58 11.7553 11.5879 11.7445 11.5978 11.7391C11.626 11.7239 11.6279 11.7677 11.6207 11.7988C11.6194 11.8043 11.618 11.8097 11.6162 11.815C11.6138 11.822 11.6116 11.8291 11.6096 11.8363C11.6091 11.8379 11.6086 11.8396 11.608 11.8412C11.6025 11.8573 11.586 11.8643 11.5693 11.8677C11.5587 11.8699 11.5482 11.8739 11.5378 11.877C11.5241 11.8812 11.5115 11.8896 11.5034 11.9015C11.498 11.9093 11.4926 11.9171 11.488 11.9253C11.4759 11.9468 11.4759 11.9773 11.4991 11.9857C11.5148 11.9913 11.532 11.9925 11.5478 11.9975C11.5607 12.0016 11.5735 12.006 11.5863 12.0099C11.6203 12.0174 11.6521 12.0297 11.686 12.0372C11.7355 12.0521 11.7875 12.059 11.8373 12.0723C11.8426 12.074 11.8475 12.0756 11.853 12.0762C11.8886 12.0836 11.8912 12.0234 11.9 11.9881C11.9029 11.9763 11.9058 11.9645 11.9088 11.9527C11.9125 11.9387 11.9193 11.9245 11.9211 11.9102C11.9241 11.8871 11.8931 11.9 11.8726 11.9109C11.8663 11.9142 11.8596 11.9165 11.852 11.917C11.845 11.9174 11.8408 11.9196 11.8386 11.9228C11.8243 11.9442 11.8555 11.9732 11.8452 11.9968C11.8402 12.0082 11.8298 12.0177 11.8174 12.0166C11.8136 12.0163 11.8097 12.0155 11.8059 12.0144C11.7897 12.0098 11.7727 12.0084 11.7569 12.0026C11.7555 12.0021 11.7541 12.0015 11.7528 12.0008C11.7326 11.9911 11.7476 11.9627 11.752 11.9408C11.7535 11.933 11.7554 11.9253 11.7583 11.918C11.7626 11.9091 11.7652 11.8998 11.7671 11.8904C11.7715 11.8691 11.7639 11.8431 11.7465 11.8563C11.7349 11.8651 11.7201 11.8712 11.7064 11.8762C11.6946 11.8805 11.6852 11.8861 11.6978 11.8975C11.7158 11.9111 11.702 11.9349 11.6988 11.9522C11.698 11.9685 11.6863 11.9764 11.6727 11.9781C11.6595 11.9797 11.6448 11.9772 11.6329 11.9714C11.6087 11.9598 11.6262 11.926 11.633 11.9001C11.6342 11.8953 11.6353 11.8905 11.6363 11.8857C11.6421 11.8687 11.6471 11.8523 11.6528 11.8356C11.656 11.8261 11.6584 11.8162 11.6611 11.8065C11.6686 11.7791 11.6803 11.7523 11.6886 11.7251C11.6906 11.7186 11.6921 11.712 11.692 11.7051C11.6905 11.6945 11.6858 11.6907 11.6793 11.6904C11.6793 11.6904 11.6792 11.6905 11.6792 11.6905ZM11.5669 11.9171C11.5669 11.9171 11.5669 11.9171 11.5669 11.9171C11.5693 11.9167 11.5717 11.917 11.5738 11.9181C11.5816 11.9214 11.5818 11.9277 11.5738 11.9347C11.5703 11.9377 11.5663 11.9406 11.565 11.9406C11.5503 11.9393 11.546 11.9371 11.5454 11.9318C11.5448 11.9271 11.5464 11.9257 11.5561 11.921C11.5595 11.9193 11.5631 11.918 11.5669 11.9171C11.5669 11.9171 11.5669 11.9171 11.5669 11.9171ZM11.5345 12.074C11.519 12.0594 11.5215 12.0488 11.5444 12.0317C11.5543 12.0244 11.5602 12.0252 11.5714 12.0355C11.5887 12.0512 11.5894 12.0612 11.5741 12.0747C11.5666 12.0813 11.5633 12.0827 11.5545 12.0828C11.5454 12.0829 11.5428 12.0817 11.5345 12.074ZM11.6298 12.1027C11.6298 12.1027 11.6298 12.1027 11.6298 12.1027C11.6263 12.1019 11.6229 12.1003 11.62 12.0981C11.617 12.0959 11.6146 12.0931 11.6128 12.09C11.6109 12.0868 11.6098 12.0832 11.6094 12.0796C11.609 12.0759 11.6093 12.0723 11.6104 12.0687C11.6144 12.0552 11.6167 12.0538 11.6366 12.0536C11.659 12.0534 11.6633 12.0571 11.6635 12.0768C11.6637 12.0879 11.6628 12.0904 11.6573 12.0955C11.6535 12.0987 11.6491 12.1009 11.6444 12.1022C11.6396 12.1034 11.6347 12.1036 11.6299 12.1027C11.6299 12.1027 11.6298 12.1027 11.6298 12.1027ZM14.4146 12.1052C14.4145 12.1052 14.4145 12.1052 14.4145 12.1052C14.4074 12.0993 14.406 12.0967 14.4059 12.0891C14.4058 12.0763 14.4132 12.0669 14.4293 12.0596C14.4506 12.0501 14.4593 12.0514 14.4673 12.0655C14.478 12.0842 14.4774 12.092 14.4647 12.1046C14.4576 12.1116 14.4563 12.112 14.4401 12.1121C14.4243 12.1122 14.4225 12.1118 14.4146 12.1053C14.4146 12.1052 14.4146 12.1052 14.4146 12.1052ZM11.7564 12.1412C11.745 12.1381 11.7392 12.1296 11.739 12.116C11.7389 12.1055 11.7396 12.1039 11.7469 12.0981C11.7517 12.0945 11.7591 12.0913 11.765 12.0905C11.7733 12.0893 11.7764 12.0901 11.7831 12.0948C11.8003 12.1069 11.804 12.1189 11.794 12.1304C11.7834 12.1428 11.7733 12.1457 11.7564 12.1412ZM12.4414 12.1718C12.4361 12.1652 12.4329 12.1586 12.4335 12.1501C12.4344 12.137 12.4359 12.1239 12.4401 12.1113C12.4409 12.1068 12.4413 12.1022 12.4416 12.0976C12.443 12.0736 12.4487 12.0501 12.4512 12.0262C12.4515 12.0236 12.4518 12.021 12.4521 12.0184C12.4552 11.9889 12.4562 11.9588 12.4648 11.9305C12.4673 11.9189 12.4673 11.907 12.4677 11.8952C12.4683 11.873 12.4773 11.8259 12.4892 11.8445C12.4953 11.8535 12.5024 11.8617 12.51 11.8694C12.5251 11.8849 12.5453 11.907 12.5253 11.9154C12.5017 11.9246 12.5041 11.9593 12.5025 11.9845C12.5025 11.9849 12.5025 11.9853 12.5025 11.9857C12.497 12.0245 12.4961 12.0644 12.4923 12.1034C12.4925 12.1097 12.491 12.1157 12.4897 12.1218C12.487 12.1335 12.4876 12.1459 12.485 12.1576C12.4819 12.1717 12.4676 12.182 12.4535 12.1786C12.4489 12.1775 12.4447 12.1752 12.4414 12.1718ZM13.3696 11.8656C13.3695 11.8656 13.3695 11.8656 13.3695 11.8656C13.3545 11.877 13.341 11.8904 13.3275 11.9037C13.309 11.9177 13.3428 11.9259 13.3471 11.9378C13.3473 11.9387 13.3475 11.9395 13.3477 11.9403C13.3563 11.9755 13.3623 12.0121 13.3598 12.0482C13.359 12.0582 13.3518 12.062 13.3435 12.0648C13.3284 12.0699 13.3134 12.0774 13.3033 12.0896C13.2937 12.1012 13.2843 12.1135 13.2812 12.1281C13.2792 12.1378 13.2783 12.1479 13.2777 12.1576C13.2788 12.1716 13.2683 12.1872 13.2777 12.1996C13.279 12.2013 13.2804 12.2037 13.2816 12.2054C13.2879 12.2143 13.3028 12.2071 13.3136 12.2071C13.3165 12.2071 13.3194 12.207 13.3223 12.2069C13.3372 12.2062 13.3515 12.201 13.3663 12.1993C13.3969 12.1957 13.4276 12.1951 13.4584 12.1937C13.4772 12.1943 13.4954 12.1892 13.514 12.1874C13.5231 12.1865 13.5336 12.1896 13.5414 12.1849C13.5598 12.1738 13.5487 12.1462 13.5485 12.1247C13.5484 12.1133 13.5486 12.1018 13.5443 12.0912C13.537 12.0701 13.5399 12.0465 13.5365 12.0247C13.5361 12.0076 13.5143 12.0012 13.5033 12.014C13.4927 12.0248 13.4754 12.0269 13.4672 12.0404C13.4579 12.0592 13.4868 12.0592 13.4916 12.0736C13.4971 12.0881 13.4953 12.1042 13.4965 12.1195C13.5018 12.147 13.4501 12.1571 13.4265 12.1419C13.4229 12.1396 13.4197 12.1361 13.4174 12.1312C13.4115 12.1162 13.4123 12.1001 13.4106 12.0843C13.4102 12.0564 13.4035 12.0291 13.4018 12.0013C13.4002 11.967 13.3943 11.933 13.3921 11.8988C13.3918 11.8845 13.3898 11.8613 13.3696 11.8656C13.3696 11.8656 13.3696 11.8656 13.3696 11.8656ZM13.35 12.1234C13.35 12.1234 13.35 12.1234 13.35 12.1234L13.3556 12.1239C13.358 12.1241 13.3599 12.1261 13.3601 12.1285L13.3607 12.1361C13.3613 12.1429 13.357 12.1492 13.3505 12.1513L13.349 12.1517C13.3471 12.1523 13.3452 12.1528 13.3432 12.1533C13.3388 12.1543 13.3341 12.1534 13.3305 12.1507C13.3236 12.1457 13.3253 12.1387 13.3344 12.1292C13.3395 12.1239 13.3419 12.1229 13.35 12.1234C13.35 12.1234 13.35 12.1234 13.35 12.1234ZM12.4136 11.8334C12.4136 11.8334 12.4136 11.8334 12.4136 11.8334C12.4017 11.8376 12.3867 11.855 12.3745 11.8549C12.3603 11.8559 12.3545 11.8635 12.3549 11.872C12.3557 11.8895 12.37 11.9028 12.3716 11.9203C12.3735 11.9327 12.3705 11.9439 12.3675 11.9551C12.3614 11.9776 12.3624 12.0014 12.3584 12.0244C12.353 12.055 12.3477 12.0859 12.3443 12.1167C12.3429 12.13 12.3417 12.1434 12.3394 12.1566C12.338 12.1681 12.3335 12.1726 12.3275 12.1736C12.311 12.1761 12.3009 12.1556 12.3005 12.1389C12.3004 12.1352 12.301 12.1314 12.3014 12.1276C12.3031 12.1135 12.2951 12.1058 12.284 12.1015C12.2726 12.0971 12.2587 12.1 12.2486 12.0931C12.2469 12.0919 12.2453 12.0905 12.244 12.089C12.2319 12.0746 12.2459 12.0544 12.2647 12.0533C12.2782 12.0525 12.2955 12.0575 12.3047 12.0476C12.3088 12.0431 12.3105 12.0362 12.3102 12.0291C12.3095 12.0102 12.2944 11.9941 12.2796 11.9823C12.2599 11.9664 12.2585 11.9397 12.2464 11.9175C12.2448 11.9147 12.2431 11.9119 12.2412 11.9093C12.2287 11.8918 12.2047 11.8839 12.1858 11.8943C12.18 11.8975 12.1746 11.9017 12.1697 11.9064C12.1496 11.9258 12.1292 11.9463 12.1031 11.9564C12.0901 11.9597 12.074 11.9741 12.0688 11.9885C12.0616 12.0085 12.0905 12.0164 12.1102 12.0245C12.1136 12.026 12.1169 12.0275 12.1198 12.0292C12.1383 12.0401 12.1212 12.0688 12.1003 12.0736C12.0779 12.0787 12.0519 12.0756 12.033 12.0624C12.0327 12.0622 12.0325 12.062 12.0322 12.0618C12.0153 12.0494 12.0174 12.0241 12.0147 12.0033C12.0135 11.9944 12.0121 11.9855 12.0095 11.9771C12.0068 11.9683 12.0045 11.9567 11.9975 11.9507C11.9763 11.9328 11.9477 11.979 11.9524 12.0063C11.9531 12.0102 11.9543 12.0141 11.956 12.0179C11.9603 12.0277 11.9674 12.0365 11.9683 12.0471C11.969 12.0548 11.9681 12.0627 11.9663 12.0705C11.9612 12.0922 11.9539 12.117 11.9337 12.1265C11.9223 12.1319 11.9085 12.1343 11.897 12.139C11.8649 12.1515 11.8781 12.1696 11.9125 12.1714C11.9209 12.1718 11.9291 12.1713 11.937 12.1693C11.9386 12.1691 11.9402 12.1689 11.9418 12.1686C11.9888 12.1594 12.0191 12.1185 12.0669 12.1176C12.076 12.1176 12.0852 12.12 12.0943 12.1224C12.1228 12.1298 12.1431 12.0946 12.1726 12.0938C12.1868 12.0934 12.1844 12.1154 12.1917 12.1276C12.1997 12.1409 12.2166 12.1473 12.2339 12.145C12.2609 12.1434 12.2509 12.1641 12.2504 12.1801C12.2517 12.1998 12.2606 12.2131 12.2737 12.2235C12.287 12.234 12.304 12.2398 12.3208 12.2367C12.333 12.2329 12.3457 12.2283 12.356 12.221C12.3753 12.2073 12.3816 12.1819 12.3859 12.1587C12.3899 12.1364 12.3949 12.1142 12.3986 12.0919C12.399 12.0893 12.3994 12.0867 12.3998 12.0841C12.4066 12.0411 12.4115 11.9975 12.415 11.9541C12.416 11.9424 12.4172 11.9308 12.4194 11.9194C12.4235 11.8957 12.4264 11.8721 12.429 11.8486C12.4291 11.8469 12.4291 11.8453 12.4286 11.8437C12.4256 11.8328 12.4203 11.8311 12.4136 11.8334C12.4136 11.8334 12.4136 11.8334 12.4136 11.8334ZM12.2017 11.9633C12.2017 11.9632 12.2017 11.9632 12.2017 11.9632C12.2064 11.9639 12.209 11.9696 12.2095 11.9798C12.21 11.9912 12.2159 12.0005 12.2232 12.0023C12.2289 12.0037 12.2284 12.0098 12.2222 12.014C12.2186 12.0165 12.2122 12.018 12.2007 12.018C12.1827 12.0179 12.1714 12.0132 12.1617 12.0033C12.1586 12.0003 12.1591 11.9952 12.1626 11.9929L12.1645 11.9916C12.169 11.9882 12.177 11.9812 12.1822 11.976C12.1911 11.9669 12.1969 11.9627 12.2017 11.9633C12.2017 11.9633 12.2017 11.9633 12.2017 11.9633ZM14.2652 11.7171C14.2555 11.7176 14.2459 11.7186 14.2363 11.7202C14.221 11.7226 14.2018 11.7222 14.1894 11.7314C14.1611 11.7525 14.2089 11.8021 14.2382 11.7825C14.2496 11.7749 14.2617 11.7663 14.2739 11.7679C14.3189 11.7766 14.3227 11.8251 14.3297 11.8616C14.3301 11.8678 14.3307 11.8739 14.3316 11.88C14.3397 11.9386 14.3468 12.0403 14.3082 11.9954C14.3052 11.9922 14.3017 11.9888 14.2978 11.9856C14.2565 11.9511 14.2211 12.0158 14.1723 12.0384C14.1412 12.0479 14.1325 12.018 14.1192 11.9961C14.1138 11.9872 14.1073 11.9789 14.0991 11.9725C14.091 11.9659 14.0812 11.9617 14.0709 11.9583C14.0438 11.9496 14.0222 11.9313 14.0172 11.9032C14.0111 11.8689 13.9693 11.8611 13.9537 11.8922C13.9493 11.901 13.948 11.91 13.9523 11.9176C13.9573 11.9266 13.9687 11.9307 13.9734 11.9398C13.9849 11.9621 13.9459 11.9747 13.9322 11.9926C13.9308 11.9941 13.9294 11.9957 13.9282 11.9974C13.8924 12.0435 13.8595 12.0893 13.8501 12.0316C13.8478 12.0061 13.8314 12.0048 13.8147 12.0111C13.8025 12.0156 13.7908 12.0218 13.7803 12.0295C13.773 12.0349 13.7666 12.0413 13.7606 12.0481C13.7415 12.07 13.7307 12.098 13.7323 12.127C13.733 12.1394 13.7328 12.1551 13.7443 12.1598C13.7477 12.1612 13.7515 12.1618 13.7555 12.1619C13.7783 12.1623 13.8101 12.1441 13.8195 12.1648C13.8223 12.1711 13.8216 12.1794 13.8165 12.187C13.812 12.1937 13.8058 12.1995 13.7987 12.2033C13.7913 12.2071 13.7821 12.2092 13.7733 12.2114C13.7469 12.2182 13.7626 12.2418 13.7897 12.2401C13.7935 12.2398 13.7973 12.2392 13.801 12.238C13.8333 12.2276 13.8663 12.2042 13.8696 12.1683C13.8741 12.1352 13.9217 12.1413 13.9478 12.1341C13.9575 12.1313 13.9679 12.1291 13.9779 12.1286C14.0216 12.1261 14.0422 12.191 14.0858 12.1956C14.1132 12.1984 14.1373 12.1754 14.1492 12.1505C14.1518 12.1452 14.1537 12.1396 14.155 12.1338C14.1582 12.1187 14.1532 12.0984 14.1676 12.0927C14.1804 12.0876 14.2006 12.0904 14.2075 12.099C14.2238 12.1258 14.2747 12.1179 14.2993 12.1029C14.3479 12.0671 14.3982 12.041 14.4567 12.0263C14.4782 12.0209 14.4995 12.0152 14.5204 12.0081C14.5313 12.0044 14.5478 12.0037 14.5534 11.9936C14.5728 11.9586 14.4985 11.9473 14.464 11.9678C14.4498 11.9763 14.4349 11.9809 14.4184 11.9662C14.3619 11.9228 14.3909 11.8277 14.3585 11.7642C14.3547 11.7569 14.3501 11.7499 14.3443 11.7435C14.3233 11.7211 14.2947 11.7158 14.2652 11.7171H14.2652ZM14.0523 12.013C14.0523 12.013 14.0523 12.0131 14.0523 12.0131C14.0562 12.0129 14.0607 12.0149 14.0679 12.0189C14.0816 12.0264 14.0913 12.039 14.0913 12.0492C14.0913 12.0558 14.0896 12.0562 14.0796 12.0609C14.0734 12.0637 14.0665 12.0668 14.064 12.0667C14.0583 12.0667 14.0445 12.0556 14.0444 12.0511C14.0444 12.0492 14.0426 12.0421 14.0405 12.0364C14.0369 12.0264 14.0374 12.0266 14.0425 12.0199C14.0457 12.0156 14.0483 12.0131 14.0523 12.013C14.0523 12.013 14.0523 12.013 14.0523 12.013ZM14.2564 12.0238C14.2679 12.023 14.2749 12.0266 14.2798 12.0355C14.2854 12.0458 14.2816 12.0536 14.2671 12.0599C14.2607 12.0627 14.2543 12.0649 14.2534 12.0648C14.2525 12.0647 14.2472 12.0616 14.2417 12.0579C14.2333 12.0524 14.232 12.0497 14.2319 12.0433C14.2318 12.0334 14.2428 12.0246 14.2563 12.0238H14.2564ZM13.977 12.0267C13.977 12.0267 13.977 12.0267 13.977 12.0267C13.9805 12.0262 13.9836 12.0279 13.9878 12.0316C13.9934 12.0364 13.9952 12.0403 13.9965 12.0501C13.9976 12.057 13.9974 12.0658 13.9965 12.0696C13.9951 12.0767 13.9949 12.0764 13.979 12.0765C13.959 12.0767 13.9572 12.0745 13.9575 12.056C13.9578 12.0442 13.9579 12.0411 13.9643 12.0345C13.9693 12.0295 13.9736 12.0273 13.977 12.0267C13.977 12.0267 13.977 12.0267 13.977 12.0267ZM13.8051 12.0716C13.8051 12.0716 13.8051 12.0716 13.8052 12.0716C13.8085 12.0723 13.8116 12.074 13.814 12.0764C13.8165 12.0788 13.8182 12.0819 13.8189 12.0853C13.8209 12.0953 13.8191 12.0997 13.8111 12.1039C13.8041 12.1074 13.7881 12.1086 13.7837 12.1058C13.7813 12.1043 13.7793 12.1023 13.7778 12.1C13.7757 12.0962 13.7761 12.0943 13.7788 12.0921C13.7807 12.0906 13.7827 12.0884 13.7827 12.0873C13.7827 12.0861 13.7848 12.0822 13.7876 12.0785C13.7895 12.0758 13.7922 12.0737 13.7953 12.0724C13.7984 12.0712 13.8018 12.0709 13.8051 12.0716C13.8051 12.0716 13.8051 12.0716 13.8051 12.0716ZM14.0942 12.1087C14.0942 12.1087 14.0942 12.1087 14.0942 12.1087C14.0998 12.1087 14.1045 12.1107 14.1079 12.1136C14.1137 12.1187 14.1135 12.1261 14.1069 12.1312C14.1027 12.1345 14.0797 12.1342 14.0718 12.1312C14.0683 12.1299 14.0669 12.1281 14.0669 12.1243C14.0668 12.12 14.0681 12.1173 14.0756 12.1136C14.0821 12.1106 14.0886 12.1088 14.0942 12.1087C14.0942 12.1087 14.0942 12.1087 14.0942 12.1087ZM13.5577 12.2593C13.5577 12.2593 13.5577 12.2593 13.5577 12.2593C13.5559 12.2582 13.5537 12.2571 13.553 12.2558C13.5517 12.2533 13.5553 12.2511 13.5571 12.249C13.5629 12.2421 13.5721 12.2392 13.5805 12.2361C13.5883 12.2326 13.5956 12.2282 13.6023 12.223C13.6181 12.2107 13.6367 12.1943 13.6366 12.1743C13.6367 12.1594 13.6376 12.1442 13.6339 12.1297C13.6299 12.1164 13.6199 12.1062 13.6081 12.0993C13.6001 12.0929 13.5871 12.0911 13.5841 12.0801C13.5835 12.0758 13.5846 12.0719 13.5864 12.0682C13.5919 12.0569 13.5983 12.046 13.6038 12.0347C13.605 12.0323 13.6062 12.0299 13.6074 12.0275C13.6126 12.0169 13.6218 12.0042 13.6318 12.0105C13.6333 12.0114 13.6347 12.0125 13.636 12.0137C13.6396 12.0174 13.642 12.0221 13.6447 12.0265C13.6529 12.0398 13.661 12.0535 13.6687 12.067C13.6697 12.0687 13.6706 12.0705 13.6715 12.0723C13.6751 12.08 13.6779 12.0881 13.6819 12.0957C13.685 12.1015 13.6876 12.1076 13.6874 12.1145C13.6874 12.1275 13.6947 12.1391 13.6943 12.1522C13.6947 12.1697 13.6946 12.188 13.6883 12.2045C13.6797 12.2224 13.6629 12.2357 13.6457 12.2456C13.6424 12.2475 13.639 12.2491 13.6355 12.2505C13.6272 12.2531 13.6221 12.2622 13.6125 12.2616C13.6108 12.2615 13.6091 12.2613 13.6074 12.2613C13.593 12.2617 13.5785 12.2634 13.5642 12.2615C13.5632 12.2614 13.5606 12.2611 13.5598 12.2605C13.5586 12.2597 13.5573 12.2588 13.5577 12.2593C13.5577 12.2593 13.5577 12.2593 13.5577 12.2593ZM13.3436 12.2734C13.336 12.2656 13.3344 12.2623 13.3343 12.2546C13.3342 12.2469 13.3357 12.2438 13.3431 12.2363C13.3568 12.2225 13.3635 12.2221 13.3872 12.2341C13.4097 12.2455 13.4174 12.2466 13.4194 12.2385C13.4213 12.2307 13.4343 12.2235 13.4467 12.2235C13.4535 12.2231 13.4601 12.2253 13.4652 12.2298C13.473 12.2359 13.4734 12.2369 13.4737 12.2511C13.4738 12.2655 13.4736 12.2661 13.4646 12.2741C13.4559 12.2817 13.4545 12.2822 13.4438 12.2811C13.4301 12.2797 13.4219 12.2734 13.4197 12.2627C13.4181 12.2549 13.4153 12.253 13.4133 12.2583C13.4127 12.26 13.4092 12.2621 13.4058 12.263C13.3994 12.2646 13.3887 12.2714 13.381 12.2786C13.3781 12.2813 13.373 12.2826 13.3648 12.2827C13.3537 12.2828 13.3521 12.2821 13.3436 12.2734ZM12.7242 11.9953C12.7242 11.9953 12.7242 11.9952 12.7242 11.9952C12.7055 11.9955 12.6855 12.0097 12.6797 12.0275C12.6784 12.0313 12.6786 12.0354 12.6798 12.0393C12.6819 12.0464 12.685 12.0536 12.6878 12.0608C12.6985 12.088 12.7001 12.134 12.6712 12.1383C12.6529 12.141 12.6402 12.1212 12.634 12.1038C12.6286 12.0889 12.6235 12.074 12.6166 12.0599C12.6096 12.0459 12.5955 12.0343 12.5836 12.0445C12.5604 12.0644 12.5614 12.1035 12.5767 12.13C12.5821 12.1393 12.5864 12.1492 12.5875 12.1603C12.5915 12.179 12.5854 12.199 12.5738 12.2148C12.5618 12.2313 12.5442 12.245 12.5241 12.2489C12.4915 12.2553 12.4622 12.2723 12.495 12.2775C12.502 12.2786 12.5085 12.2793 12.5123 12.2795C12.5183 12.2801 12.5244 12.2804 12.5304 12.2804C12.583 12.2806 12.6019 12.2048 12.6539 12.1965C12.6972 12.1946 12.7402 12.2018 12.7834 12.2044C12.796 12.2052 12.8082 12.2069 12.8208 12.2076C12.866 12.21 12.8865 12.2538 12.9241 12.279C12.9262 12.2804 12.9283 12.2817 12.9304 12.283C12.9404 12.289 12.9523 12.2935 12.9628 12.2886C12.9731 12.2837 12.9835 12.2749 12.9937 12.2726C13.0407 12.2576 13.0593 12.2094 13.1086 12.2089C13.1351 12.2085 13.1617 12.2085 13.1881 12.2081C13.2061 12.2086 13.2072 12.178 13.2059 12.1599C13.2055 12.1533 13.2049 12.1466 13.2041 12.1399C13.2033 12.1327 13.201 12.1257 13.1997 12.1185C13.1984 12.1117 13.198 12.1045 13.1978 12.0973C13.1967 12.0649 13.1686 12.0473 13.139 12.0605C13.122 12.068 13.1024 12.0715 13.088 12.0833C13.0798 12.09 13.0727 12.0981 13.0673 12.1072C13.0555 12.1272 13.0435 12.1619 13.0281 12.1443C13.0248 12.1405 13.0223 12.1356 13.021 12.1302C13.0182 12.1187 13.022 12.106 13.0225 12.0941C13.0228 12.0853 13.0186 12.077 13.0108 12.0728C13.001 12.0676 12.9891 12.0669 12.9774 12.0667C12.9629 12.0663 12.9483 12.0661 12.9339 12.0654C12.9095 12.0641 12.8855 12.0602 12.8609 12.0607C12.8388 12.0591 12.8159 12.0616 12.7939 12.059C12.7825 12.0577 12.7701 12.0577 12.7606 12.0513C12.7472 12.0423 12.7478 12.0216 12.7445 12.0049C12.7441 12.0025 12.7427 12.0003 12.7405 11.9992C12.7356 11.9965 12.7299 11.9951 12.7242 11.9953C12.7242 11.9953 12.7242 11.9953 12.7242 11.9953ZM12.7867 12.1105C12.7974 12.1107 12.8076 12.1121 12.818 12.1134C12.8451 12.1179 12.8726 12.1161 12.9001 12.1175C12.917 12.1183 12.9338 12.1187 12.9508 12.1203C12.9653 12.12 12.9703 12.1393 12.9703 12.1539C12.9703 12.1678 12.9703 12.1817 12.9703 12.1955C12.9694 12.2035 12.9727 12.2141 12.9654 12.2198C12.9609 12.2234 12.9546 12.2233 12.9494 12.2206C12.9472 12.2195 12.9451 12.2182 12.9432 12.2167C12.9375 12.212 12.9355 12.2044 12.9357 12.197C12.9359 12.1896 12.9368 12.1824 12.9371 12.175C12.9366 12.1685 12.9345 12.1628 12.9285 12.1603C12.9241 12.1585 12.9194 12.1575 12.9146 12.1574C12.8881 12.1564 12.8621 12.1546 12.8356 12.1535C12.8134 12.1521 12.7907 12.1553 12.7691 12.1496C12.7519 12.1433 12.7385 12.126 12.7543 12.1169C12.7547 12.1167 12.7551 12.1165 12.7554 12.1163C12.7653 12.1121 12.776 12.1101 12.7867 12.1105H12.7867ZM13.1392 12.1183C13.1442 12.1182 13.1458 12.1199 13.148 12.129C13.1495 12.135 13.1512 12.1421 13.1519 12.1446C13.1531 12.1484 13.1513 12.1496 13.1461 12.1515C13.1307 12.1573 13.1153 12.1568 13.11 12.1496C13.1075 12.1463 13.1103 12.136 13.1148 12.132C13.1239 12.1239 13.1339 12.1183 13.1392 12.1183Z" fill="#C09300"/>
    <path d="M12.4037 9.68595C12.6752 10.1403 13.323 10.1403 13.5947 9.68607C13.8971 9.18038 13.9323 8.68555 13.9336 8.49716C13.9338 8.45469 13.8948 8.42546 13.8523 8.42546C13.3815 8.42546 12.6316 8.41346 12.1609 8.42528C12.1562 8.4254 12.1517 8.42546 12.1472 8.42546C12.1049 8.42546 12.0657 8.45481 12.0659 8.49717C12.067 8.68555 12.1016 9.1803 12.4037 9.68595Z" fill="white" stroke="#C09300" stroke-width="0.92"/>
    <path d="M13.8505 8.50163C13.8417 8.50219 13.8329 8.50244 13.824 8.50244C13.3185 8.50244 12.6904 8.49317 12.1851 8.50232C12.1818 8.50238 12.1786 8.50241 12.1755 8.50241C12.1616 8.50227 12.1488 8.51251 12.149 8.52639C12.1495 8.56133 12.1513 8.59656 12.1535 8.62922C12.1636 8.78235 12.1905 8.9361 12.2312 9.08397C12.4515 9.88265 13.5473 9.88165 13.7679 9.08303C13.8087 8.93516 13.8357 8.78147 13.8459 8.62835C13.8485 8.5882 13.8508 8.54424 13.8505 8.50166C13.8505 8.50164 13.8505 8.50163 13.8505 8.50163Z" fill="white" stroke="#C09300" stroke-width="0.7328"/>
    <path d="M12.668 8.90745C12.668 8.65969 12.4236 8.50229 12.1758 8.50229C12.162 8.50229 12.1493 8.5121 12.1495 8.52595C12.1501 8.56105 12.1522 8.59661 12.1543 8.62928C12.1646 8.78286 12.1905 8.935 12.2315 9.08335C12.3172 9.39396 12.668 9.29132 12.668 8.96912V8.90745ZM13.3124 8.4048C13.3124 8.4048 13.3124 8.4048 13.3124 8.40481V9.13108C13.3124 9.41033 13.6236 9.50745 13.7173 9.24443C13.7362 9.19146 13.7533 9.13748 13.7685 9.08253C13.8095 8.93417 13.8353 8.78204 13.8456 8.62847C13.8477 8.59657 13.8498 8.5621 13.8503 8.5279C13.8506 8.51355 13.8384 8.50247 13.8241 8.50247C13.7075 8.50247 13.4985 8.46591 13.3124 8.40482C13.3124 8.40482 13.3124 8.40481 13.3124 8.4048Z" fill="#C09300"/>
    <path d="M13.3842 8.03446C13.3842 8.03447 13.3842 8.03449 13.3842 8.03449C13.3878 8.03468 13.3893 8.03138 13.3893 8.02581C13.3893 8.00364 13.4322 7.96193 13.4537 7.96742C13.4624 7.96964 13.4712 7.97169 13.4801 7.97357C13.5074 7.97936 13.5407 7.9138 13.5272 7.88941C13.4403 7.73308 13.3732 7.43742 13.3842 7.18908C13.3977 6.8558 13.3364 6.72471 13.2874 6.67564C13.2249 6.61314 13.024 6.55805 12.8916 6.55071C12.8457 6.5484 12.7771 6.59377 12.7318 6.58592C12.6294 6.5682 12.5375 6.56788 12.4897 6.59967C12.4309 6.63889 12.4186 6.83492 12.4616 6.80061C12.5656 6.7173 12.6564 6.79327 12.7188 6.88392C12.774 6.96361 12.7703 7.18902 12.6906 7.45242C12.6412 7.6166 12.541 7.7808 12.4676 7.88727C12.434 7.93591 12.468 7.99477 12.523 7.97332C12.548 7.96357 12.5719 7.9527 12.5931 7.94227C12.6245 7.92684 12.6629 7.95539 12.6547 7.98935C12.647 8.02117 12.6793 8.04679 12.7073 8.02994C12.746 8.00674 12.7801 7.98254 12.8071 7.96198C12.8435 7.9342 12.8962 7.93607 12.9278 7.96922C12.9634 8.00658 13.0438 7.98378 13.0806 7.94759C13.1133 7.91549 13.1467 7.93577 13.1847 7.96121C13.2309 7.99203 13.2998 8.02664 13.3841 8.03442C13.3841 8.03442 13.3841 8.03444 13.3842 8.03446Z" fill="white" stroke="#C09300" stroke-width="0.9744"/>
    <path d="M12.8782 7.23707C12.8782 7.23707 12.8083 7.75045 12.6772 7.89626M12.9885 7.22363C12.9885 7.22363 12.9615 7.7431 12.8709 7.90976M13.0863 7.24457C13.0863 7.24457 13.0863 7.81307 13.1206 7.90988M13.2101 7.2727C13.2101 7.2727 13.2382 7.75051 13.3559 7.92332" stroke="#C09300" stroke-width="1.016"/>
    <path d="M12.7756 6.9309C12.763 6.94192 12.7432 6.93909 12.7378 6.92323C12.7326 6.90789 12.7264 6.89484 12.7192 6.8843C12.6909 6.84326 12.6568 6.80522 12.6183 6.78362C12.5745 6.75903 12.5232 6.6895 12.5734 6.68708C12.6221 6.68403 12.7219 6.71619 12.8215 6.84116C12.8476 6.87384 12.8069 6.90323 12.7756 6.9309Z" fill="#C09300" stroke="#C09300" stroke-width="0.2832"/>
    <path d="M12.4507 6.66476C12.4507 6.66476 12.4507 6.66475 12.4507 6.66474C12.4593 6.63656 12.4728 6.61085 12.4899 6.59982C12.5376 6.56803 12.6296 6.56834 12.732 6.58607C12.7773 6.59392 12.8458 6.54857 12.8918 6.55082C13.0241 6.55816 13.2251 6.61332 13.2875 6.67582C13.302 6.6915 13.3189 6.71427 13.3334 6.74883C13.3337 6.74962 13.3331 6.75051 13.3323 6.75051C13.3319 6.75051 13.3315 6.75032 13.3313 6.75C13.3003 6.70765 13.2139 6.71011 13.1932 6.71254C13.1601 6.71619 13.1393 6.71494 13.0951 6.72598C13.0743 6.73088 13.0425 6.73701 13.0253 6.75048C13.0119 6.76151 13.0008 6.80194 12.98 6.80194C12.9469 6.80194 12.9494 6.79341 12.9408 6.7836C12.9297 6.77016 12.9236 6.75048 12.9126 6.75173C12.8783 6.75788 12.8231 6.73091 12.7533 6.67579C12.6835 6.62063 12.6565 6.60716 12.5658 6.61329C12.4938 6.61921 12.4615 6.65303 12.4517 6.66591C12.4514 6.66628 12.4504 6.66571 12.4505 6.66528L12.4507 6.66477C12.4507 6.66477 12.4507 6.66476 12.4507 6.66476Z" fill="#C09300" stroke="#C09300" stroke-width="0.2832"/>
    <path d="M12.9625 6.74574C12.9828 6.74574 12.9993 6.72929 12.9993 6.70899C12.9993 6.68869 12.9828 6.67224 12.9625 6.67224C12.9422 6.67224 12.9258 6.68869 12.9258 6.70899C12.9258 6.72929 12.9422 6.74574 12.9625 6.74574Z" fill="white"/>
</svg>
