<svg width="20" height="20" viewBox="0 0 20 20" fill="none" xmlns="http://www.w3.org/2000/svg">
<path fill-rule="evenodd" clip-rule="evenodd" d="M12.8557 8.30699H7.14325C6.79825 8.30699 6.51825 8.02699 6.51825 7.68199C6.51825 7.33699 6.79825 7.05699 7.14325 7.05699H12.8557C13.2007 7.05699 13.4807 7.33699 13.4807 7.68199C13.4807 8.02699 13.2007 8.30699 12.8557 8.30699ZM16.6407 10.8253L16.6382 9.10783C16.6382 2.77949 15.6457 1.66699 9.99991 1.66699C4.35408 1.66699 3.36158 2.77949 3.36158 9.10783L3.35908 10.8253C3.35158 15.5128 3.34825 17.2678 4.06408 17.9837C4.29575 18.2162 4.60325 18.3337 4.97741 18.3337C5.77325 18.3337 6.65825 17.5778 7.59575 16.777C8.42575 16.0678 9.36658 15.2645 9.99991 15.2645C10.6332 15.2645 11.5741 16.0678 12.4041 16.777C13.3416 17.5778 14.2266 18.3337 15.0224 18.3337C15.3966 18.3337 15.7041 18.2162 15.9357 17.9837C16.6516 17.2678 16.6482 15.5128 16.6407 10.8253Z" fill="#F89300"/>
</svg>
