<svg width="28" height="28" viewBox="0 0 28 28" fill="none" xmlns="http://www.w3.org/2000/svg">
<path fill-rule="evenodd" clip-rule="evenodd" d="M19.146 3.22973L19.1472 4.10429C22.3609 4.35616 24.4839 6.54607 24.4873 9.90438L24.5 19.7345C24.5046 23.396 22.2043 25.6488 18.5171 25.6547L9.51053 25.6663C5.84639 25.671 3.51729 23.3645 3.51268 19.6925L3.50001 9.97785C3.4954 6.59737 5.54345 4.4133 8.7572 4.11828L8.75605 3.24372C8.7549 2.73064 9.13502 2.34467 9.64185 2.34467C10.1487 2.34351 10.5288 2.72831 10.5299 3.24139L10.5311 4.05765L17.3733 4.04832L17.3721 3.23206C17.371 2.71898 17.7511 2.33418 18.2579 2.33301C18.7532 2.33184 19.1449 2.71665 19.146 3.22973ZM5.27506 10.3382L22.7146 10.3148V9.90672C22.665 7.39964 21.4072 6.0843 19.1495 5.8884L19.1506 6.78628C19.1506 7.2877 18.7601 7.68533 18.2648 7.68533C17.758 7.6865 17.3767 7.29003 17.3767 6.78861L17.3756 5.84409L10.5334 5.85341L10.5346 6.79678C10.5346 7.29936 10.1556 7.69583 9.64876 7.69583C9.14193 7.69699 8.76066 7.30169 8.76066 6.79911L8.7595 5.90122C6.51333 6.12628 5.27045 7.44628 5.27391 9.97552L5.27506 10.3382ZM17.7799 15.638V15.6508C17.7914 16.1872 18.2291 16.5942 18.7601 16.5825C19.2785 16.5697 19.692 16.1254 19.6805 15.589C19.6563 15.076 19.2405 14.6573 18.7233 14.6585C18.1934 14.6702 17.7787 15.1016 17.7799 15.638ZM18.7313 20.8737C18.2015 20.8621 17.7741 20.4201 17.773 19.8837C17.7615 19.3473 18.1865 18.903 18.7164 18.8902H18.7279C19.2693 18.8902 19.7081 19.3322 19.7081 19.8802C19.7093 20.4283 19.2716 20.8726 18.7313 20.8737ZM13.0341 15.6567C13.0572 16.1931 13.496 16.6117 14.0259 16.5884C14.5443 16.5639 14.9578 16.1208 14.9347 15.5844C14.9221 15.0596 14.4959 14.6515 13.9775 14.6527C13.4477 14.676 13.033 15.1203 13.0341 15.6567ZM14.0305 20.8213C13.5007 20.8446 13.0629 20.426 13.0387 19.8896C13.0387 19.3532 13.4523 18.91 13.9821 18.8856C14.5005 18.8844 14.9278 19.2925 14.9394 19.8161C14.9635 20.3537 14.5489 20.7968 14.0305 20.8213ZM8.28838 15.6975C8.31142 16.2339 8.75029 16.6537 9.28016 16.6292C9.7985 16.6059 10.212 16.1616 10.1878 15.6252C10.1763 15.1004 9.75012 14.6923 9.23062 14.6935C8.70076 14.7168 8.28723 15.1611 8.28838 15.6975ZM9.28476 20.8271C8.7549 20.8516 8.31718 20.4318 8.29299 19.8954C8.29184 19.359 8.70652 18.9147 9.23638 18.8914C9.75473 18.8902 10.1821 19.2983 10.1936 19.8231C10.2178 20.3595 9.80426 20.8038 9.28476 20.8271Z" fill="#F89300"/>
</svg>
