<svg xmlns="http://www.w3.org/2000/svg" xmlns:xlink="http://www.w3.org/1999/xlink" width="212" height="168" viewBox="0 0 212 168">
  <defs>
    <filter id="Rectangle_150" x="0" y="0" width="212" height="168" filterUnits="userSpaceOnUse">
      <feOffset dx="4" dy="4" input="SourceAlpha"/>
      <feGaussianBlur stdDeviation="4" result="blur"/>
      <feFlood flood-opacity="0.161"/>
      <feComposite operator="in" in2="blur"/>
      <feComposite in="SourceGraphic"/>
    </filter>
  </defs>
  <g id="Dark_Mode" data-name="Dark Mode" transform="translate(-498 -300)">
    <g transform="matrix(1, 0, 0, 1, 498, 300)" filter="url(#Rectangle_150)">
      <rect id="Rectangle_150-2" data-name="Rectangle 150" width="188" height="144" rx="16" transform="translate(8 8)" fill="#707070"/>
    </g>
    <g id="Group_260" data-name="Group 260" transform="translate(7 -77)">
      <path id="Rectangle_151" data-name="Rectangle 151" d="M16,0H172a16,16,0,0,1,16,16V32H0V16A16,16,0,0,1,16,0Z" transform="translate(499 385)"/>
      <rect id="Rectangle_152" data-name="Rectangle 152" width="94" height="12" rx="6" transform="translate(546 395)" fill="#707070"/>
    </g>
    <rect id="Rectangle_153" data-name="Rectangle 153" width="133" height="96" rx="16" transform="translate(514 348)"/>
    <rect id="Rectangle_154" data-name="Rectangle 154" width="31" height="12" rx="4" transform="translate(655 348)" fill="#1c5a92"/>
    <g id="Group_263" data-name="Group 263">
      <circle id="Ellipse_16" data-name="Ellipse 16" cx="4" cy="4" r="4" transform="translate(678 379)" fill="#aaa"/>
      <rect id="Rectangle_155" data-name="Rectangle 155" width="20" height="10" rx="4" transform="translate(654 378)" fill="#aaa"/>
    </g>
    <g id="Group_262" data-name="Group 262">
      <circle id="Ellipse_15" data-name="Ellipse 15" cx="4" cy="4" r="4" transform="translate(678 399)" fill="#aaa"/>
      <rect id="Rectangle_156" data-name="Rectangle 156" width="20" height="10" rx="4" transform="translate(654 398)" fill="#aaa"/>
    </g>
    <g id="Group_261" data-name="Group 261">
      <circle id="Ellipse_14" data-name="Ellipse 14" cx="4" cy="4" r="4" transform="translate(678 419)" fill="#aaa"/>
      <rect id="Rectangle_157" data-name="Rectangle 157" width="20" height="10" rx="4" transform="translate(654 418)" fill="#aaa"/>
    </g>
  </g>
</svg>
