<svg width="21" height="16" viewBox="0 0 21 16" fill="none" xmlns="http://www.w3.org/2000/svg">
<path fill-rule="evenodd" clip-rule="evenodd" d="M6.59756 8C6.59756 10.1333 8.3439 11.8691 10.5 11.8691C12.6463 11.8691 14.3927 10.1333 14.3927 8C14.3927 5.85697 12.6463 4.12121 10.5 4.12121C8.3439 4.12121 6.59756 5.85697 6.59756 8ZM16.2366 2.04606C17.9439 3.36485 19.3976 5.29455 20.4415 7.70909C20.5195 7.89333 20.5195 8.10667 20.4415 8.28121C18.3537 13.1103 14.6366 16 10.5 16H10.4902C6.36341 16 2.64634 13.1103 0.558537 8.28121C0.480488 8.10667 0.480488 7.89333 0.558537 7.70909C2.64634 2.88 6.36341 0 10.4902 0H10.5C12.5683 0 14.5293 0.717576 16.2366 2.04606ZM10.5012 10.4124C11.8378 10.4124 12.9304 9.32635 12.9304 7.99787C12.9304 6.65968 11.8378 5.57362 10.5012 5.57362C10.3841 5.57362 10.267 5.58332 10.1597 5.60272C10.1207 6.66938 9.24263 7.52272 8.15971 7.52272H8.11093C8.08166 7.67787 8.06215 7.83302 8.06215 7.99787C8.06215 9.32635 9.15483 10.4124 10.5012 10.4124Z" fill="url(#paint0_linear_5161_4670)"/>
<defs>
<linearGradient id="paint0_linear_5161_4670" x1="20.5" y1="16" x2="-2.30351" y2="7.73541" gradientUnits="userSpaceOnUse">
<stop stop-color="#246BFD"/>
<stop offset="1" stop-color="#5089FD"/>
</linearGradient>
</defs>
</svg>
