<svg width="14" height="16" viewBox="0 0 14 16" fill="none" xmlns="http://www.w3.org/2000/svg">
<path fill-rule="evenodd" clip-rule="evenodd" d="M11.632 10.4346C12.0031 10.8061 12.2336 11.2951 12.284 11.8178C12.2886 11.8668 12.2836 11.9162 12.2692 11.9633C12.2547 12.0104 12.2312 12.0541 12.1998 12.0921C12.1685 12.1301 12.1299 12.1615 12.0864 12.1845C12.0429 12.2076 11.9953 12.2218 11.9463 12.2265C11.9343 12.2278 11.9223 12.2284 11.9102 12.2284C11.817 12.2283 11.7272 12.1934 11.6582 12.1307C11.5893 12.068 11.5462 11.9818 11.5374 11.889C11.4998 11.4975 11.311 11.136 11.0111 10.8815C10.7112 10.6269 10.3239 10.4993 9.93147 10.5258C9.83221 10.5325 9.73438 10.4994 9.65951 10.4339C9.58463 10.3684 9.53885 10.2759 9.53222 10.1766C9.52559 10.0773 9.55865 9.97951 9.62415 9.90464C9.68965 9.82976 9.78221 9.78397 9.88146 9.77734C10.2032 9.75576 10.5259 9.80324 10.8278 9.9166C11.1298 10.03 11.404 10.2066 11.632 10.4346H11.632ZM1.39787 6.096C1.39787 5.99654 1.43738 5.90116 1.50771 5.83083C1.57803 5.76051 1.67341 5.721 1.77287 5.721H9.40147C9.50092 5.721 9.5963 5.76051 9.66663 5.83083C9.73696 5.90116 9.77647 5.99654 9.77647 6.096C9.77647 6.19546 9.73696 6.29084 9.66663 6.36117C9.5963 6.43149 9.50092 6.471 9.40147 6.471H1.77284C1.67338 6.471 1.578 6.43149 1.50767 6.36117C1.43735 6.29084 1.39787 6.19546 1.39787 6.096ZM1.39787 7.82994C1.39787 7.73048 1.43738 7.6351 1.50771 7.56477C1.57803 7.49445 1.67341 7.45494 1.77287 7.45494H9.40147C9.50092 7.45494 9.5963 7.49445 9.66663 7.56477C9.73696 7.6351 9.77647 7.73048 9.77647 7.82994C9.77647 7.92939 9.73696 8.02478 9.66663 8.0951C9.5963 8.16543 9.50092 8.20494 9.40147 8.20494H1.77284C1.67338 8.20494 1.578 8.16543 1.50767 8.0951C1.43735 8.02478 1.39787 7.92939 1.39787 7.82994ZM12.9918 12.0905C12.9918 11.3165 12.6843 10.5742 12.137 10.0269C11.5897 9.47954 10.8474 9.17206 10.0733 9.17206C9.29931 9.17206 8.55699 9.47954 8.00967 10.0269C7.46235 10.5742 7.15487 11.3165 7.15487 12.0905C7.15464 12.3685 7.19398 12.645 7.27168 12.9119C7.27481 12.9212 7.2775 12.9309 7.2799 12.9406C7.48372 13.61 7.92119 14.1839 8.51264 14.5578C9.10408 14.9317 9.81015 15.0807 10.5022 14.9777C11.1943 14.8747 11.8264 14.5266 12.2834 13.9967C12.7403 13.4668 12.9917 12.7903 12.9918 12.0906V12.0905ZM0.767152 13.8165C0.767252 13.9658 0.826572 14.1089 0.932091 14.2144C1.03761 14.32 1.18071 14.3794 1.32996 14.3796H7.20618C6.97063 14.0862 6.78202 13.7581 6.64709 13.4069H1.77284C1.67338 13.4069 1.578 13.3674 1.50767 13.2971C1.43735 13.2268 1.39784 13.1314 1.39784 13.0319C1.39784 12.9325 1.43735 12.8371 1.50767 12.7668C1.578 12.6964 1.67338 12.6569 1.77284 12.6569H6.44831C6.39804 12.3313 6.3914 12.0005 6.42856 11.6731H1.77284C1.67338 11.6731 1.578 11.6336 1.50767 11.5633C1.43735 11.493 1.39784 11.3976 1.39784 11.2981C1.39784 11.1987 1.43735 11.1033 1.50767 11.033C1.578 10.9626 1.67338 10.9231 1.77284 10.9231H6.59397C6.71174 10.5711 6.88293 10.2392 7.10153 9.93916H1.77284C1.67338 9.93916 1.578 9.89965 1.50767 9.82932C1.43735 9.759 1.39784 9.66361 1.39784 9.56416C1.39784 9.4647 1.43735 9.36932 1.50767 9.29899C1.578 9.22867 1.67338 9.18916 1.77284 9.18916H7.81934C7.82221 9.18916 7.82512 9.18947 7.828 9.18947C8.56196 8.62231 9.48357 8.35432 10.4072 8.43947V4.83191H7.63806C7.47034 4.83199 7.30418 4.79976 7.14865 4.73697H1.77284C1.67338 4.73697 1.578 4.69746 1.50767 4.62713C1.43735 4.55681 1.39784 4.46142 1.39784 4.36197C1.39784 4.26251 1.43735 4.16713 1.50767 4.0968C1.578 4.02648 1.67338 3.98697 1.77284 3.98697H6.41172C6.35449 3.8376 6.32517 3.67899 6.32521 3.51903V3.00288H1.77284C1.67338 3.00288 1.578 2.96337 1.50767 2.89304C1.43735 2.82271 1.39784 2.72733 1.39784 2.62788C1.39784 2.52842 1.43735 2.43304 1.50767 2.36271C1.578 2.29238 1.67338 2.25288 1.77284 2.25288H6.32521V0.75H1.32996C1.18075 0.750149 1.0377 0.809484 0.932183 0.914986C0.826669 1.02049 0.767318 1.16354 0.767152 1.31275V13.8165ZM7.07522 3.51906V1.27516L9.91081 4.08194H7.63806C7.48883 4.08176 7.34577 4.02239 7.24026 3.91687C7.13474 3.81135 7.07539 3.66829 7.07522 3.51906ZM11.046 4.15031L6.96268 0.108531C6.89249 0.0389904 6.79768 -1.59342e-05 6.69887 4.88293e-09H1.32996C0.981905 0.000372185 0.648205 0.138795 0.402077 0.384899C0.15595 0.631003 0.0174952 0.96469 0.0170898 1.31275V13.8165C0.0174537 14.1646 0.155881 14.4984 0.402005 14.7446C0.648129 14.9907 0.981852 15.1292 1.32996 15.1297L8.01678 15.1294C8.6697 15.5707 9.44728 15.7902 10.2346 15.7555C11.0219 15.7207 11.7771 15.4336 12.3887 14.9365L13.3424 15.8903C13.4128 15.9603 13.508 15.9995 13.6073 15.9994C13.7066 15.9993 13.8018 15.9598 13.872 15.8896C13.9422 15.8194 13.9817 15.7242 13.9818 15.6249C13.982 15.5256 13.9427 15.4304 13.8727 15.36L12.919 14.4062C13.298 13.9407 13.5569 13.3892 13.673 12.8002C13.7891 12.2112 13.7589 11.6028 13.5849 11.0282C13.411 10.4536 13.0986 9.93056 12.6753 9.5049C12.252 9.07923 11.7307 8.76399 11.1571 8.58684V4.41691C11.1571 4.36734 11.1473 4.31826 11.1282 4.2725C11.1092 4.22675 11.0812 4.18523 11.046 4.15034V4.15031Z" fill="#F89300"/>
</svg>
