<svg width="21" height="20" viewBox="0 0 21 20" fill="none" xmlns="http://www.w3.org/2000/svg">
<path d="M16.6042 7.88965C16.6042 7.88965 16.1517 13.5021 15.8892 15.8663C15.7642 16.9955 15.0667 17.6571 13.9242 17.678C11.75 17.7171 9.57332 17.7196 7.39999 17.6738C6.30082 17.6513 5.61499 16.9813 5.49249 15.8721C5.22832 13.4871 4.77832 7.88965 4.77832 7.88965" stroke="#F75555" stroke-width="1.5" stroke-linecap="round" stroke-linejoin="round"/>
<path d="M17.7567 5.19987H3.625" stroke="#F75555" stroke-width="1.5" stroke-linecap="round" stroke-linejoin="round"/>
<path d="M15.0335 5.19949C14.3793 5.19949 13.816 4.73699 13.6877 4.09616L13.4852 3.08283C13.3602 2.61533 12.9368 2.29199 12.4543 2.29199H8.92682C8.44432 2.29199 8.02099 2.61533 7.89599 3.08283L7.69349 4.09616C7.56516 4.73699 7.00182 5.19949 6.34766 5.19949" stroke="#F75555" stroke-width="1.5" stroke-linecap="round" stroke-linejoin="round"/>
</svg>
