<svg width="20" height="19" viewBox="0 0 20 19" fill="none" xmlns="http://www.w3.org/2000/svg">
<rect width="20" height="19" fill="#E5E5E5"/>
<g id="46_Dark_account full page" clip-path="url(#clip0_4429_7682)">
<rect width="430" height="932" transform="translate(-383 -152)" fill="#181A20"/>
<g id="Auto Layout Vertical">
<g id="Auto Layout Vertical_2">
<g id="Auto Layout Vertical_3" clip-path="url(#clip1_4429_7682)">
<g id="Auto Layout Horizontal">
<g id="Iconly/Regular/Outline/Edit">
<g id="Group">
<path id="Vector" fill-rule="evenodd" clip-rule="evenodd" d="M19.2508 18.9395H11.9978C11.5838 18.9395 11.2478 18.6035 11.2478 18.1895C11.2478 17.7755 11.5838 17.4395 11.9978 17.4395H19.2508C19.6648 17.4395 20.0008 17.7755 20.0008 18.1895C20.0008 18.6035 19.6648 18.9395 19.2508 18.9395Z" fill="white"/>
<g id="Mask Group">
<mask id="mask0_4429_7682" style="mask-type:luminance" maskUnits="userSpaceOnUse" x="0" y="0" width="18" height="19">
<path id="Vector_2" fill-rule="evenodd" clip-rule="evenodd" d="M0.500244 0H17.6808V18.9395H0.500244V0Z" fill="white"/>
</mask>
<g mask="url(#mask0_4429_7682)">
<path id="Exclude" fill-rule="evenodd" clip-rule="evenodd" d="M11.6105 2.01664L2.19552 13.7916C2.02452 14.0056 1.96152 14.2816 2.02452 14.5466L2.70552 17.4316L5.74452 17.3936C6.03352 17.3906 6.30052 17.2616 6.47752 17.0416C9.69452 13.0166 15.8275 5.34264 16.0015 5.11764C16.1655 4.85164 16.2295 4.47564 16.1435 4.11364C16.0555 3.74264 15.8245 3.42764 15.4915 3.22664C15.4205 3.17764 13.7355 1.86964 13.6835 1.82864C13.0495 1.32064 12.1245 1.40864 11.6105 2.01664ZM2.11352 18.9396C1.76652 18.9396 1.46452 18.7016 1.38352 18.3626L0.564518 14.8916C0.395518 14.1726 0.563518 13.4306 1.02452 12.8546L10.4445 1.07264C10.4485 1.06864 10.4515 1.06364 10.4555 1.05964C11.4885 -0.175357 13.3565 -0.357357 14.6165 0.653643C14.6665 0.692643 16.3395 1.99264 16.3395 1.99264C16.9475 2.35464 17.4225 3.00164 17.6025 3.76764C17.7815 4.52564 17.6515 5.30764 17.2345 5.96864C17.2035 6.01764 17.1765 6.05964 7.64852 17.9796C7.18952 18.5516 6.50152 18.8846 5.76252 18.8936L2.12352 18.9396H2.11352Z" fill="white"/>
</g>
</g>
<path id="Vector_3" fill-rule="evenodd" clip-rule="evenodd" d="M14.7234 8.68438C14.5634 8.68438 14.4034 8.63338 14.2664 8.52938L8.81442 4.34138C8.48642 4.08938 8.42442 3.61938 8.67642 3.28938C8.92942 2.96138 9.39942 2.90038 9.72842 3.15238L15.1814 7.33938C15.5094 7.59138 15.5714 8.06238 15.3184 8.39138C15.1714 8.58338 14.9484 8.68438 14.7234 8.68438Z" fill="white"/>
</g>
</g>
</g>
</g>
</g>
</g>
</g>
<defs>
<clipPath id="clip0_4429_7682">
<rect width="430" height="932" fill="white" transform="translate(-383 -152)"/>
</clipPath>
<clipPath id="clip1_4429_7682">
<rect width="382" height="707" fill="white" transform="translate(-359.5 -20)"/>
</clipPath>
</defs>
</svg>
