<svg width="19" height="16" viewBox="0 0 19 16" fill="none" xmlns="http://www.w3.org/2000/svg">
    <path fill-rule="evenodd" clip-rule="evenodd" d="M5.42427 0.5C4.09738 0.5 2.8975 0.831631 2.02659 1.64033C1.14742 2.45671 0.699951 3.66904 0.699951 5.22432V10.9757C0.699951 12.531 1.14742 13.7433 2.02659 14.5597C2.8975 15.3684 4.09738 15.7 5.42427 15.7H13.6405C14.9674 15.7 16.1673 15.3684 17.0381 14.5597C17.9174 13.7433 18.3648 12.531 18.3648 10.9757V5.22432C18.3648 3.66904 17.9174 2.45671 17.0381 1.64033C16.1673 0.831631 14.9674 0.5 13.6405 0.5H5.42427ZM15.4715 5.11119C15.7407 4.9031 15.7903 4.5161 15.5822 4.24681C15.3742 3.97751 14.9872 3.92789 14.7179 4.13598L10.1603 7.65764C9.79045 7.94348 9.27423 7.94348 8.90434 7.65764L4.3468 4.13598C4.0775 3.92789 3.69051 3.97751 3.48241 4.24681C3.27432 4.5161 3.32394 4.9031 3.59324 5.11119L8.15083 8.6329C8.96456 9.26161 10.1001 9.26161 10.9139 8.6329L15.4715 5.11119Z" fill="#F89300"/>
</svg>
