<svg width="382" height="222" viewBox="0 0 382 222" fill="none" xmlns="http://www.w3.org/2000/svg">
<g clip-path="url(#clip0_4490_7136)">
<path d="M191 222C272.811 222 339.132 218.137 339.132 213.371C339.132 208.606 272.811 204.742 191 204.742C109.189 204.742 42.8682 208.606 42.8682 213.371C42.8682 218.137 109.189 222 191 222Z" fill="#F5F5F5"/>
<path d="M166.453 10.9516C166.506 19.9847 160.02 19.8933 160.15 17.0499C160.28 14.2066 158.675 7.52886 160.15 8.17681C161.624 8.82476 166.43 6.95714 166.453 10.9516Z" fill="#1A2E35"/>
<path d="M162.373 27.3105C163.266 27.2419 165.062 28.0728 165.222 30.4283C165.264 31.1127 165.465 31.7781 165.808 32.372C166.151 32.966 166.628 33.4723 167.201 33.851C167.201 33.851 164.229 34.2093 162.281 32.6695C160.692 31.4269 159.989 28.7055 160.822 28.0957C161.279 27.7304 161.807 27.4631 162.373 27.3105Z" fill="#1A2E35"/>
<path d="M161.204 20.8916C162.732 22.2409 164.13 25.8084 160.685 27.5007C157.239 29.193 151.822 25.2138 151.822 25.2138L157.774 22.4619L161.204 20.8916Z" fill="#1A2E35"/>
<path d="M162.9 27.6383C162.816 27.1442 162.678 26.661 162.487 26.1975C162.473 26.1589 162.451 26.1235 162.422 26.0934C162.394 26.0632 162.36 26.039 162.323 26.022C162.285 26.005 162.244 25.9956 162.203 25.9943C162.162 25.993 162.121 25.9999 162.082 26.0146H162.021L159.905 27.4248C159.87 27.4478 159.841 27.4773 159.818 27.5116C159.796 27.5459 159.78 27.5843 159.772 27.6247C159.764 27.665 159.765 27.7065 159.773 27.7468C159.781 27.7871 159.797 27.8253 159.821 27.8593C159.845 27.891 159.873 27.9192 159.905 27.9432C160.21 28.1647 160.538 28.3537 160.883 28.5073C161.379 28.7055 162.411 28.1414 162.762 27.8974C162.806 27.8704 162.842 27.8321 162.866 27.7865C162.89 27.7409 162.902 27.6898 162.9 27.6383Z" fill="#F89300"/>
<path opacity="0.3" d="M162.9 27.6383C162.816 27.1442 162.678 26.661 162.487 26.1975C162.473 26.1589 162.451 26.1235 162.422 26.0934C162.394 26.0632 162.36 26.039 162.323 26.022C162.285 26.005 162.244 25.9956 162.203 25.9943C162.162 25.993 162.121 25.9999 162.082 26.0146H162.021L159.905 27.4248C159.87 27.4478 159.841 27.4773 159.818 27.5116C159.796 27.5459 159.78 27.5843 159.772 27.6247C159.764 27.665 159.765 27.7065 159.773 27.7468C159.781 27.7871 159.797 27.8253 159.821 27.8593C159.845 27.891 159.873 27.9192 159.905 27.9432C160.21 28.1647 160.538 28.3537 160.883 28.5073C161.379 28.7055 162.411 28.1414 162.762 27.8974C162.806 27.8704 162.842 27.8321 162.866 27.7865C162.89 27.7409 162.902 27.6898 162.9 27.6383Z" fill="black"/>
<path d="M140.125 23.8952C139.277 23.6132 137.336 23.9943 136.618 26.2507C136.413 26.9052 136.06 27.5036 135.586 27.9995C135.111 28.4953 134.529 28.8751 133.883 29.1093C133.883 29.1093 136.687 30.1613 138.948 29.1093C140.782 28.2784 142.081 25.7934 141.446 25.0006C141.087 24.5449 140.637 24.1685 140.125 23.8952Z" fill="#1A2E35"/>
<path d="M148.544 8.38281C145.45 9.22134 141.286 12.8803 143.135 17.3703C141.309 18.6128 138.971 22.1879 141.706 24.4748C144.648 26.937 151.883 23.4838 151.883 23.4838L151.936 22.3099L152.799 13.574L148.544 8.38281Z" fill="#1A2E35"/>
<path d="M139.537 24.0938C139.741 23.6314 139.997 23.194 140.301 22.7903C140.355 22.7247 140.432 22.6831 140.517 22.6745C140.601 22.6659 140.686 22.6911 140.752 22.7446L140.798 22.7903L142.509 24.6579C142.538 24.6869 142.561 24.7214 142.577 24.7593C142.593 24.7973 142.601 24.8379 142.601 24.879C142.601 24.92 142.593 24.9607 142.577 24.9986C142.561 25.0366 142.538 25.071 142.509 25.1001C142.485 25.1289 142.453 25.1501 142.417 25.161C142.07 25.3031 141.709 25.4079 141.34 25.4736C140.805 25.5498 139.98 24.7646 139.659 24.4445C139.606 24.4052 139.565 24.3507 139.544 24.2881C139.522 24.2255 139.52 24.1578 139.537 24.0938Z" fill="#F89300"/>
<path opacity="0.3" d="M139.537 24.0938C139.741 23.6314 139.997 23.194 140.301 22.7903C140.355 22.7247 140.432 22.6831 140.517 22.6745C140.601 22.6659 140.686 22.6911 140.752 22.7446L140.798 22.7903L142.509 24.6579C142.538 24.6869 142.561 24.7214 142.577 24.7593C142.593 24.7973 142.601 24.8379 142.601 24.879C142.601 24.92 142.593 24.9607 142.577 24.9986C142.561 25.0366 142.538 25.071 142.509 25.1001C142.485 25.1289 142.453 25.1501 142.417 25.161C142.07 25.3031 141.709 25.4079 141.34 25.4736C140.805 25.5498 139.98 24.7646 139.659 24.4445C139.606 24.4052 139.565 24.3507 139.544 24.2881C139.522 24.2255 139.52 24.1578 139.537 24.0938Z" fill="black"/>
<path d="M167.377 40.2012C168.836 41.3294 170.433 42.5338 172.037 43.6315C173.641 44.7292 175.253 45.8345 176.911 46.8484C178.569 47.8622 180.25 48.8075 181.946 49.707L183.222 50.3549L184.521 50.9571C184.949 51.1629 185.384 51.3459 185.827 51.5136L186.477 51.7804C186.698 51.8643 186.935 51.971 187.072 52.0091C187.871 52.252 188.689 52.428 189.517 52.5351C190.419 52.6647 191.366 52.7561 192.329 52.8247C194.246 52.9467 196.218 53.0001 198.196 53.0077C200.175 53.0153 202.177 53.0077 204.171 52.9467L210.168 52.779L210.543 55.7748C206.53 56.5811 202.478 57.179 198.403 57.5662C196.347 57.7492 194.285 57.8864 192.176 57.9016C191.122 57.9016 190.052 57.9016 188.952 57.8025C187.769 57.7343 186.596 57.5427 185.453 57.2308C185.101 57.1393 184.88 57.0478 184.62 56.964L183.856 56.6972C183.344 56.5295 182.84 56.3465 182.328 56.1407L180.846 55.5461L179.394 54.9058C177.475 54.0439 175.606 53.0768 173.794 52.0091C171.991 50.9495 170.219 49.8518 168.507 48.6779C166.76 47.497 165.077 46.2247 163.465 44.8664L167.377 40.2012Z" fill="#FD897B"/>
<path d="M159.447 36.7784C161.349 35.2996 169.18 40.1401 171.564 42.1602L169.83 52.6265C169.83 52.6265 158.561 47.9155 157.881 44.6986C157.178 41.3369 158.011 37.9066 159.447 36.7784Z" fill="#1A2E35"/>
<path d="M209.336 53.0381L214.057 49.3867L214.432 55.0353C214.432 55.0353 211.177 57.0478 209.03 55.7976L209.336 53.0381Z" fill="#FD897B"/>
<path d="M218.267 48.8301L220.681 51.5134L214.401 55.0351L214.026 49.3865L218.267 48.8301Z" fill="#FD897B"/>
<path d="M128.565 205.924L134.517 206.366L136.687 192.698L130.743 192.256L128.565 205.924Z" fill="#FD897B"/>
<path d="M86.4619 186.82L91.512 189.991L100.504 179.35L95.4542 176.171L86.4619 186.82Z" fill="#FD897B"/>
<path d="M93.1085 188.855L88.3793 184.106C88.2977 184.025 88.1895 183.975 88.0746 183.967C87.9596 183.959 87.8454 183.992 87.7528 184.06L83.4515 187.27C83.2532 187.429 83.1265 187.661 83.0993 187.914C83.072 188.167 83.1465 188.421 83.3064 188.619L83.3751 188.695C85.0483 190.319 85.9421 191.02 88.0202 193.109C89.2961 194.397 91.0304 196.402 92.7952 198.178C94.5601 199.954 96.409 198.3 95.8512 197.416C93.2689 193.398 93.735 191.897 93.5592 189.854C93.5381 189.477 93.3775 189.121 93.1085 188.855Z" fill="#1A2E35"/>
<path d="M134.914 205.512H128.206C128.088 205.512 127.974 205.553 127.883 205.628C127.792 205.703 127.731 205.808 127.71 205.924L126.648 211.214C126.605 211.446 126.656 211.686 126.788 211.881C126.921 212.077 127.126 212.212 127.358 212.258C127.429 212.266 127.501 212.266 127.572 212.258C129.91 212.258 131.048 212.083 133.997 212.083C135.808 212.083 140.873 212.266 143.402 212.266C145.931 212.266 146.183 209.796 145.152 209.575C140.568 208.569 137.412 207.189 135.907 205.863C135.63 205.628 135.277 205.504 134.914 205.512Z" fill="#1A2E35"/>
<path d="M136.687 192.697L135.48 200.29L129.612 199.306L130.735 192.263L136.687 192.697Z" fill="#E77064"/>
<path d="M95.4544 176.179L100.504 179.35L96.7838 183.756L91.6191 180.714L95.4544 176.179Z" fill="#E77064"/>
<path d="M133.089 68.4517L156.88 73.0788C169.173 39.8657 166.499 38.7756 166.499 38.7756C164.77 37.8269 162.984 36.9868 161.151 36.2601L160.83 36.1381C159.302 35.5816 158.996 35.4978 156.964 34.9032C153.465 34.0723 150.202 33.3786 146.161 32.8069L145.397 32.7002C144.633 32.6087 143.938 32.5324 143.235 32.4638C142.761 32.4105 142.287 32.38 141.837 32.3495L140.309 32.2657C137.696 32.1361 135.824 32.1742 135.824 32.1742C136.55 52.9162 135.373 58.8697 133.089 68.4517Z" fill="#1A2E35"/>
<path d="M149.599 20.8916C149.599 24.4896 149.041 30.9767 146.153 32.8215C146.153 32.8215 146.421 36.5262 152.877 37.7764C159.982 39.1562 156.956 34.9178 156.956 34.9178C153.266 33.2408 153.9 30.3898 155.123 27.8285L149.599 20.8916Z" fill="#FD897B"/>
<path d="M151.852 23.7197L155.122 27.8285C154.838 28.4235 154.603 29.0405 154.419 29.6732C152.975 29.1701 151.256 27.1577 151.363 25.5797C151.41 24.935 151.576 24.3044 151.852 23.7197Z" fill="#E77064"/>
<path d="M149.255 12.6287C148.491 18.4907 148.025 20.9529 150.378 24.4976C153.915 29.8337 161.295 29.4906 163.809 23.9793C166.101 19.0167 166.956 10.258 161.723 6.86576C160.838 6.28224 159.846 5.87851 158.804 5.67763C157.762 5.47676 156.691 5.48268 155.652 5.69506C154.612 5.90744 153.625 6.32211 152.746 6.91538C151.868 7.50865 151.115 8.26889 150.53 9.15264C149.843 10.1981 149.406 11.3876 149.255 12.6287Z" fill="#FD897B"/>
<path d="M168.378 3.34387C168.485 4.27348 168.415 5.21499 168.172 6.11861C168.117 5.81194 168.043 5.50897 167.95 5.21148C165.857 -1.6949 156.429 -0.0483411 153.587 2.9246C149.003 1.61346 144.64 2.6578 145.221 8.26066C145.294 9.70416 145.814 11.0894 146.711 12.2246C146 14.1913 146.711 17.3243 149.056 17.4158C152.357 17.5454 155.489 13.1851 156.75 10.7915C159.042 11.1802 162.342 11.5538 164.848 10.9439C165.268 11.1955 165.612 11.3708 165.612 11.3708C168.279 9.94533 170.311 8.56558 168.378 3.34387Z" fill="#1A2E35"/>
<path d="M147.222 16.6305C147.13 17.7678 147.49 18.8956 148.223 19.7712C149.216 20.9222 150.515 20.2438 150.981 18.8793C151.371 17.6444 151.317 15.5633 149.988 14.9154C149.757 14.8071 149.507 14.7454 149.253 14.7335C148.998 14.7217 148.743 14.7601 148.503 14.8464C148.264 14.9328 148.043 15.0655 147.855 15.2369C147.666 15.4083 147.514 15.615 147.405 15.8454C147.291 16.0917 147.228 16.359 147.222 16.6305Z" fill="#FD897B"/>
<path d="M156.52 73.0789C156.52 73.0789 156.612 120.204 152.746 137.95C148.727 156.413 136.908 198.415 136.908 198.415L128.352 197.31C128.352 197.31 135.052 154.881 137.902 136.532C141.011 116.537 139.109 69.6943 139.109 69.6943L156.52 73.0789Z" fill="#F89300"/>
<path opacity="0.3" d="M156.52 73.0789C156.52 73.0789 156.612 120.204 152.746 137.95C148.727 156.413 136.908 198.415 136.908 198.415L128.352 197.31C128.352 197.31 135.052 154.881 137.902 136.532C141.011 116.537 139.109 69.6943 139.109 69.6943L156.52 73.0789Z" fill="black"/>
<path d="M138.368 199.154L126.885 197.676L127.374 193.62L140.408 195.145L138.368 199.154Z" fill="#1A2E35"/>
<path d="M150.599 71.8586C150.599 71.8586 137.787 110.804 131.423 133.238C124.715 156.908 98.9986 183.085 98.9986 183.085L91.626 178.831C91.626 178.831 109.198 153.98 115.654 131.897C128.802 87.0664 123.401 77.5682 133.088 68.4512L150.599 71.8586Z" fill="#F89300"/>
<path opacity="0.3" d="M150.599 71.8586C150.599 71.8586 137.787 110.804 131.423 133.238C124.715 156.908 98.9986 183.085 98.9986 183.085L91.626 178.831C91.626 178.831 109.198 153.98 115.654 131.897C128.802 87.0664 123.401 77.5682 133.088 68.4512L150.599 71.8586Z" fill="black"/>
<path d="M100.198 184.267L89.9531 178.366L92.5049 174.723L103.881 180.981L100.198 184.267Z" fill="#1A2E35"/>
<path d="M157.735 15.9603C157.644 16.4329 157.819 16.8598 158.132 16.9208C158.446 16.9818 158.767 16.6463 158.896 16.1585C159.026 15.6706 158.812 15.2514 158.499 15.1904C158.186 15.1294 157.827 15.4877 157.735 15.9603Z" fill="#1A2E35"/>
<path d="M163.076 16.9967C162.984 17.4693 163.16 17.9038 163.473 17.9648C163.787 18.0258 164.107 17.6904 164.199 17.2025C164.291 16.7146 164.115 16.2954 163.802 16.242C163.489 16.1887 163.168 16.5164 163.076 16.9967Z" fill="#1A2E35"/>
<path d="M163.664 16.2495L164.864 16.1504C164.864 16.1504 164.107 16.9203 163.664 16.2495Z" fill="#1A2E35"/>
<path d="M161.51 17.5381C161.721 18.6937 162.091 19.8148 162.61 20.8693C162.336 20.9972 162.037 21.0635 161.735 21.0635C161.433 21.0635 161.134 20.9972 160.86 20.8693L161.51 17.5381Z" fill="#FD5652"/>
<path d="M158.859 22.3937C158.22 22.2893 157.616 22.0324 157.099 21.6448C156.581 21.2572 156.165 20.7505 155.887 20.1678C155.879 20.1513 155.875 20.1334 155.874 20.1152C155.873 20.0971 155.876 20.079 155.883 20.0619C155.889 20.0449 155.899 20.0293 155.911 20.0161C155.924 20.0028 155.939 19.9922 155.956 19.9848C155.99 19.9719 156.028 19.9726 156.062 19.9867C156.096 20.0009 156.124 20.0275 156.139 20.061C156.406 20.5965 156.795 21.0619 157.276 21.4194C157.756 21.777 158.314 22.0167 158.905 22.1192C158.923 22.122 158.94 22.1284 158.956 22.138C158.971 22.1476 158.985 22.1602 158.996 22.1751C159.006 22.19 159.014 22.207 159.018 22.2248C159.022 22.2427 159.022 22.2613 159.019 22.2793C159.012 22.315 158.991 22.3466 158.961 22.3678C158.932 22.389 158.895 22.3982 158.859 22.3937Z" fill="#1A2E35"/>
<path d="M156.521 13.9319C156.447 13.9282 156.377 13.8973 156.325 13.8452C156.273 13.7931 156.242 13.7235 156.238 13.6499C156.241 13.5721 156.274 13.4985 156.33 13.4441C156.657 13.137 157.053 12.9125 157.485 12.7892C157.917 12.6659 158.372 12.6473 158.813 12.7351C158.885 12.7564 158.946 12.8049 158.983 12.8704C159.02 12.9358 159.031 13.013 159.012 13.0858C159.003 13.1209 158.987 13.1539 158.965 13.1829C158.943 13.2119 158.916 13.2363 158.885 13.2547C158.854 13.2731 158.819 13.2852 158.783 13.2902C158.747 13.2953 158.711 13.2931 158.675 13.284C158.326 13.2221 157.966 13.2422 157.625 13.3427C157.284 13.4433 156.972 13.6215 156.712 13.8633C156.659 13.9096 156.591 13.9342 156.521 13.9319Z" fill="#1A2E35"/>
<path d="M166.04 14.9916C165.984 14.9923 165.929 14.9759 165.883 14.9445C165.836 14.9132 165.801 14.8685 165.78 14.8163C165.648 14.4898 165.442 14.1982 165.179 13.9641C164.915 13.7301 164.6 13.56 164.26 13.4671C164.223 13.4606 164.188 13.447 164.157 13.427C164.126 13.4071 164.099 13.3811 164.077 13.3507C164.056 13.3202 164.041 13.2858 164.033 13.2496C164.025 13.2133 164.024 13.1758 164.031 13.1393C164.046 13.0663 164.088 13.0019 164.149 12.9593C164.21 12.9168 164.286 12.8993 164.359 12.9106C164.795 13.0192 165.199 13.2301 165.536 13.5258C165.874 13.8215 166.136 14.1934 166.3 14.6105C166.315 14.6445 166.323 14.6812 166.324 14.7184C166.325 14.7557 166.319 14.7927 166.305 14.8274C166.292 14.8622 166.272 14.8939 166.246 14.9208C166.22 14.9476 166.189 14.9691 166.155 14.984L166.04 14.9916Z" fill="#1A2E35"/>
<path d="M158.377 20.1371C158.14 20.138 157.907 20.084 157.695 19.9795C157.483 19.875 157.298 19.7228 157.155 19.5349C156.795 18.9757 156.556 18.3486 156.45 17.6928C156.345 17.0369 156.377 16.3665 156.543 15.7234C156.979 13.3146 158.492 11.3555 159.92 11.3555C160.158 11.3589 160.392 11.4154 160.605 11.5209C160.818 11.6265 161.004 11.7783 161.15 11.9653C161.51 12.5244 161.749 13.1516 161.855 13.8074C161.96 14.4632 161.928 15.1337 161.762 15.7768C161.326 18.1856 159.806 20.1371 158.377 20.1371ZM159.905 11.5689C158.568 11.5689 157.132 13.4594 156.711 15.7768C156.444 17.3014 156.658 18.6735 157.284 19.4129C157.411 19.5779 157.574 19.7117 157.761 19.8042C157.948 19.8967 158.153 19.9454 158.362 19.9465C159.706 19.9465 161.135 18.0636 161.555 15.7463C161.717 15.1336 161.75 14.4941 161.652 13.8682C161.553 13.2422 161.325 12.6436 160.982 12.1101C160.858 11.9449 160.698 11.8102 160.514 11.7164C160.33 11.6226 160.127 11.5721 159.92 11.5689H159.905Z" fill="#F9F9F9"/>
<path d="M164.313 20.9C164.066 20.8965 163.823 20.8371 163.602 20.7261C163.381 20.6152 163.188 20.4557 163.037 20.2596C162.694 19.7464 162.462 19.1675 162.356 18.5599C162.249 17.9523 162.271 17.3291 162.419 16.7302C162.808 14.4891 164.275 12.6748 165.688 12.6748C165.936 12.6814 166.179 12.7429 166.4 12.855C166.62 12.9671 166.813 13.1269 166.964 13.3228C167.304 13.836 167.535 14.4135 167.641 15.0194C167.747 15.6253 167.728 16.2466 167.583 16.8446C167.201 19.0933 165.734 20.9 164.313 20.9ZM165.666 12.8654C164.336 12.8654 162.961 14.611 162.61 16.7683C162.473 17.3399 162.453 17.9333 162.553 18.5125C162.653 19.0917 162.87 19.6446 163.19 20.1377C163.327 20.3081 163.498 20.4474 163.693 20.546C163.888 20.6447 164.102 20.7004 164.321 20.7094C165.65 20.7094 167.033 18.9713 167.377 16.8141C167.513 16.2428 167.532 15.6501 167.434 15.0713C167.335 14.4924 167.121 13.9393 166.804 13.4447C166.668 13.2728 166.497 13.1321 166.302 13.0322C166.107 12.9322 165.892 12.8753 165.673 12.8654H165.666Z" fill="#F9F9F9"/>
<path d="M94.8652 191.623C94.1012 191.623 93.3372 190.449 92.8865 189.771C92.8713 189.748 92.8633 189.722 92.8633 189.694C92.8633 189.667 92.8713 189.641 92.8865 189.618C92.9028 189.596 92.925 189.578 92.9506 189.568C92.9761 189.557 93.0041 189.553 93.0316 189.557C93.2761 189.611 95.3771 190.068 95.6445 190.784C95.6749 190.863 95.6831 190.949 95.6683 191.032C95.6535 191.116 95.6162 191.193 95.5605 191.257C95.4887 191.375 95.3861 191.472 95.2636 191.536C95.1412 191.601 95.0035 191.631 94.8652 191.623ZM93.2685 189.908C93.8567 190.792 94.4297 191.318 94.8423 191.341C94.9339 191.342 95.0242 191.319 95.1044 191.275C95.1847 191.231 95.2523 191.167 95.3007 191.089C95.3265 191.063 95.3439 191.029 95.3507 190.992C95.3574 190.956 95.3534 190.918 95.3389 190.884C95.2014 190.502 94.1089 190.121 93.2685 189.908Z" fill="#F89300"/>
<path d="M93.6127 189.908C93.3813 189.909 93.1506 189.883 92.9251 189.832C92.9021 189.824 92.8812 189.811 92.864 189.793C92.8468 189.776 92.8337 189.755 92.8258 189.732C92.8107 189.688 92.8107 189.64 92.8258 189.595C92.8793 189.549 94.0482 188.398 94.9115 188.398H94.9726C95.0796 188.406 95.1838 188.435 95.2786 188.485C95.3733 188.535 95.4565 188.604 95.5227 188.688C95.6006 188.769 95.649 188.874 95.66 188.986C95.6711 189.098 95.6443 189.211 95.5838 189.306C95.3394 189.717 94.3614 189.908 93.6127 189.908ZM93.2689 189.61C93.9871 189.694 95.1484 189.489 95.3852 189.145C95.4234 189.092 95.454 189.008 95.3394 188.863C95.2995 188.807 95.2468 188.762 95.1857 188.73C95.1246 188.698 95.0568 188.681 94.9879 188.68C94.3314 188.803 93.7301 189.128 93.2689 189.61Z" fill="#F89300"/>
<path d="M137.107 206.556C136.475 206.541 135.845 206.465 135.228 206.328C135.198 206.322 135.172 206.307 135.151 206.285C135.131 206.263 135.117 206.235 135.113 206.206C135.11 206.177 135.115 206.147 135.129 206.122C135.143 206.096 135.164 206.075 135.19 206.061C135.472 205.924 137.925 204.704 138.635 205.116C138.7 205.157 138.753 205.213 138.79 205.28C138.827 205.346 138.848 205.421 138.849 205.497C138.857 205.625 138.835 205.754 138.783 205.872C138.731 205.99 138.652 206.094 138.551 206.175C138.126 206.46 137.618 206.594 137.107 206.556ZM135.709 206.145C137.016 206.358 138.001 206.305 138.383 205.977C138.449 205.921 138.5 205.851 138.533 205.771C138.567 205.692 138.581 205.606 138.574 205.52C138.576 205.491 138.569 205.462 138.556 205.437C138.543 205.411 138.522 205.39 138.498 205.375C138.116 205.154 136.756 205.672 135.709 206.137V206.145Z" fill="#F89300"/>
<path d="M135.266 206.327H135.182C135.16 206.313 135.142 206.292 135.131 206.268C135.12 206.243 135.117 206.216 135.121 206.19C135.121 206.083 135.488 203.659 136.817 203.659H136.932C137.314 203.697 137.421 203.888 137.443 204.048C137.55 204.719 136.068 206.015 135.32 206.335L135.266 206.327ZM136.794 203.918C135.931 203.918 135.549 205.321 135.419 205.931C136.183 205.481 137.199 204.467 137.138 204.063C137.138 204.063 137.138 203.941 136.87 203.918H136.794Z" fill="#F89300"/>
<path d="M158.323 15.2132L159.523 15.1064C159.523 15.1064 158.766 15.884 158.323 15.2132Z" fill="#1A2E35"/>
<path d="M153.075 42.8457C143.143 39.0875 140.041 33.4618 140.278 32.2803L141.806 32.3718H142.104C142.485 32.3817 142.865 32.4148 143.242 32.4708C143.945 32.5318 144.671 32.6081 145.405 32.7072L146.169 32.8139C149.815 33.2564 153.425 33.9569 156.971 34.9102C158.591 35.3828 159.126 35.5353 160.027 35.8554L160.791 36.1451L161.112 36.2671C161.907 37.9746 161.731 41.4659 153.075 42.8457Z" fill="#FD897B"/>
<path d="M153.075 42.8457C143.143 39.0875 140.041 33.4618 140.278 32.2803L141.806 32.3718H142.104C144.121 35.2304 148.537 39.179 153.037 39.7203C156.658 38.958 160.073 38.0889 160.043 35.8554L160.807 36.1451L161.128 36.2671C161.907 37.9746 161.731 41.4659 153.075 42.8457Z" fill="#F89300"/>
<path opacity="0.3" d="M153.075 42.8457C143.143 39.0875 140.041 33.4618 140.278 32.2803L141.806 32.3718H142.104C144.121 35.2304 148.537 39.179 153.037 39.7203C156.658 38.958 160.073 38.0889 160.043 35.8554L160.807 36.1451L161.128 36.2671C161.907 37.9746 161.731 41.4659 153.075 42.8457Z" fill="black"/>
<path d="M133.005 66.9881L131.477 68.9091C131.362 69.0539 131.53 69.2597 131.805 69.3131L156.758 74.1613C156.972 74.207 157.17 74.1613 157.208 74.0012L157.835 71.9201C157.881 71.7753 157.72 71.6152 157.483 71.5695L133.387 66.889C133.32 66.8743 133.25 66.8757 133.184 66.8929C133.118 66.9101 133.056 66.9427 133.005 66.9881Z" fill="#1A2E35"/>
<path d="M135.716 70.3042L135.075 70.1822C134.945 70.1822 134.861 70.0755 134.884 69.9917L135.724 67.2931C135.724 67.2093 135.877 67.1712 135.999 67.194L136.648 67.316C136.778 67.316 136.862 67.4303 136.839 67.5066L135.999 70.2127C135.969 70.2579 135.925 70.2916 135.874 70.3082C135.822 70.3248 135.767 70.3234 135.716 70.3042Z" fill="#F89300"/>
<path opacity="0.3" d="M135.716 70.3042L135.075 70.1822C134.945 70.1822 134.861 70.0755 134.884 69.9917L135.724 67.2931C135.724 67.2093 135.877 67.1712 135.999 67.194L136.648 67.316C136.778 67.316 136.862 67.4303 136.839 67.5066L135.999 70.2127C135.969 70.2579 135.925 70.2916 135.874 70.3082C135.822 70.3248 135.767 70.3234 135.716 70.3042Z" fill="black"/>
<path d="M137.413 41.3743C137.123 43.1809 136.848 45.1858 136.649 47.061C136.451 48.9362 136.275 50.8725 136.183 52.8239C136.132 53.7844 136.102 54.7449 136.091 55.7054V58.564C136.13 60.4308 136.275 62.2938 136.527 64.144C136.673 64.777 136.931 65.3787 137.291 65.9201C137.751 66.6609 138.261 67.3689 138.819 68.0393C140.039 69.4856 141.346 70.8576 142.731 72.1481C144.129 73.4897 145.596 74.7856 147.101 76.051C148.606 77.3164 150.157 78.5742 151.685 79.7862L150.042 82.3171C146.446 80.3516 143.008 78.1114 139.759 75.6165C138.08 74.3359 136.496 72.9346 135.022 71.4239C134.233 70.6158 133.51 69.7466 132.86 68.8245C132.051 67.736 131.477 66.493 131.171 65.1731L130.889 63.557C130.789 63.031 130.721 62.505 130.659 61.9867C130.507 60.9347 130.423 59.8904 130.339 58.846C130.179 56.769 130.131 54.685 130.193 52.6029C130.254 50.537 130.369 48.4789 130.575 46.4283C130.782 44.3777 131.041 42.3653 131.454 40.2461L137.413 41.3743Z" fill="#FD897B"/>
<path d="M132.339 33.7669C129.069 36.4044 129.849 44.2408 129.849 44.2408L140.85 47.8541C140.85 47.8541 140.346 38.8209 139.811 35.5735C139.154 31.7087 135.548 31.1675 132.339 33.7669Z" fill="#1A2E35"/>
<path d="M150.34 79.2989L155.314 77.4541L154.55 82.1727C154.55 82.1727 150.944 83.4686 149.095 81.8068L150.34 79.2989Z" fill="#FD897B"/>
<path d="M161.235 78.1554V81.7992L154.55 82.1727L155.314 77.4541L161.235 78.1554Z" fill="#FD897B"/>
<path d="M154.931 74.0386L154.289 73.9166C154.16 73.9166 154.076 73.8099 154.098 73.726L154.939 71.0275C154.939 70.9436 155.092 70.9055 155.222 70.9284L155.863 71.0504C155.993 71.0504 156.077 71.1647 156.054 71.2409L155.214 73.9471C155.191 74.0233 155.092 74.0691 154.931 74.0386Z" fill="#F89300"/>
<path opacity="0.3" d="M154.931 74.0386L154.289 73.9166C154.16 73.9166 154.076 73.8099 154.098 73.726L154.939 71.0275C154.939 70.9436 155.092 70.9055 155.222 70.9284L155.863 71.0504C155.993 71.0504 156.077 71.1647 156.054 71.2409L155.214 73.9471C155.191 74.0233 155.092 74.0691 154.931 74.0386Z" fill="black"/>
<path d="M145.328 72.1636L144.679 72.0416C144.549 72.0416 144.465 71.9349 144.496 71.851L145.336 69.1525C145.336 69.0687 145.481 69.0305 145.611 69.0534L146.26 69.1754C146.383 69.1754 146.474 69.2897 146.444 69.366L145.603 72.0721C145.58 72.1636 145.458 72.2017 145.328 72.1636Z" fill="#F89300"/>
<path opacity="0.3" d="M145.328 72.1636L144.679 72.0416C144.549 72.0416 144.465 71.9349 144.496 71.851L145.336 69.1525C145.336 69.0687 145.481 69.0305 145.611 69.0534L146.26 69.1754C146.383 69.1754 146.474 69.2897 146.444 69.366L145.603 72.0721C145.58 72.1636 145.458 72.2017 145.328 72.1636Z" fill="black"/>
<path d="M96.6684 116.613L136.274 202.92C137.182 204.881 138.831 206.405 140.861 207.157C142.89 207.91 145.136 207.831 147.108 206.937L153.395 204.071L298.991 137.561C300.958 136.658 302.486 135.015 303.242 132.991C303.998 130.966 303.92 128.726 303.025 126.759L268.026 50.5298L263.442 40.4599C262.531 38.5012 260.882 36.9804 258.853 36.2282C256.825 35.4759 254.58 35.553 252.608 36.4426L100.718 105.811C98.751 106.715 97.2218 108.357 96.4634 110.38C95.7049 112.403 95.7786 114.644 96.6684 116.613Z" fill="#F89300"/>
<path opacity="0.1" d="M96.6684 116.613L136.274 202.92C137.182 204.881 138.831 206.405 140.861 207.157C142.89 207.91 145.136 207.831 147.108 206.937L153.395 204.071L298.991 137.561C300.958 136.658 302.486 135.015 303.242 132.991C303.998 130.966 303.92 128.726 303.025 126.759L268.026 50.5298L263.442 40.4599C262.531 38.5012 260.882 36.9804 258.853 36.2282C256.825 35.4759 254.58 35.553 252.608 36.4426L100.718 105.811C98.751 106.715 97.2218 108.357 96.4634 110.38C95.7049 112.403 95.7786 114.644 96.6684 116.613Z" fill="white"/>
<path d="M279.491 75.4672L112.746 151.639L132.261 194.168L299.006 117.996L279.491 75.4672Z" fill="#F89300"/>
<path opacity="0.3" d="M279.491 75.4672L112.746 151.639L132.261 194.168L299.006 117.996L279.491 75.4672Z" fill="white"/>
<path d="M272.586 95.1419L167.214 143.277L174.198 158.498L279.57 110.362L272.586 95.1419Z" fill="#F89300"/>
<path opacity="0.8" d="M272.586 95.1419L167.214 143.277L174.198 158.498L279.57 110.362L272.586 95.1419Z" fill="white"/>
<path d="M273.784 59.9677L106.904 136.834L117.411 159.542L284.29 82.6757L273.784 59.9677Z" fill="#F89300"/>
<path opacity="0.3" d="M273.784 59.9677L106.904 136.834L117.411 159.542L284.29 82.6757L273.784 59.9677Z" fill="black"/>
<path d="M119.313 117.695L153.395 204.04L298.991 137.53C300.957 136.627 302.486 134.984 303.242 132.96C303.998 130.936 303.92 128.695 303.025 126.728L268.026 50.499L123.928 107.122C121.916 107.921 120.303 109.48 119.438 111.46C118.574 113.441 118.529 115.682 119.313 117.695Z" fill="#F89300"/>
<path d="M312.024 90.4016L311.303 90.6543L312.496 94.0417L313.216 93.789L312.024 90.4016Z" fill="#F89300"/>
<path opacity="0.1" d="M312.024 90.4016L311.303 90.6543L312.496 94.0417L313.216 93.789L312.024 90.4016Z" fill="white"/>
<path d="M306.007 73.3763L305.286 73.6289L309.984 86.9779L310.705 86.7253L306.007 73.3763Z" fill="#F89300"/>
<path opacity="0.1" d="M306.007 73.3763L305.286 73.6289L309.984 86.9779L310.705 86.7253L306.007 73.3763Z" fill="white"/>
<path d="M129.452 107.419L287.065 52.1913C289.11 51.4813 291.353 51.608 293.304 52.5436C295.256 53.4793 296.756 55.1478 297.478 57.1844L329.001 146.746C329.713 148.786 329.587 151.025 328.651 152.973C327.715 154.921 326.045 156.42 324.004 157.144L166.391 212.372C164.345 213.078 162.103 212.95 160.151 212.015C158.2 211.08 156.697 209.414 155.97 207.379L124.448 117.817C123.736 115.776 123.862 113.537 124.8 111.588C125.738 109.64 127.41 108.141 129.452 107.419Z" fill="#F89300"/>
<path opacity="0.1" d="M129.452 107.419L287.065 52.1913C289.11 51.4813 291.353 51.608 293.304 52.5436C295.256 53.4793 296.756 55.1478 297.478 57.1844L329.001 146.746C329.713 148.786 329.587 151.025 328.651 152.973C327.715 154.921 326.045 156.42 324.004 157.144L166.391 212.372C164.345 213.078 162.103 212.95 160.151 212.015C158.2 211.08 156.697 209.414 155.97 207.379L124.448 117.817C123.736 115.776 123.862 113.537 124.8 111.588C125.738 109.64 127.41 108.141 129.452 107.419Z" fill="white"/>
<path d="M309.546 91.4584L136.515 152.087L150.227 191.048L323.259 130.419L309.546 91.4584Z" fill="#F89300"/>
<path opacity="0.3" d="M309.546 91.4584L136.515 152.087L150.227 191.048L323.259 130.419L309.546 91.4584Z" fill="white"/>
<path d="M288.834 72.4974L253.065 85.0303L255.022 90.5899L290.79 78.0571L288.834 72.4974Z" fill="#F89300"/>
<path opacity="0.8" d="M288.834 72.4974L253.065 85.0303L255.022 90.5899L290.79 78.0571L288.834 72.4974Z" fill="white"/>
<path d="M312.798 140.582L284.102 150.637L285.124 153.542L313.821 143.487L312.798 140.582Z" fill="#F89300"/>
<path opacity="0.8" d="M312.798 140.582L284.102 150.637L285.124 153.542L313.821 143.487L312.798 140.582Z" fill="white"/>
<path d="M314.75 146.14L277.771 159.098L278.793 162.003L315.772 149.046L314.75 146.14Z" fill="#F89300"/>
<path opacity="0.8" d="M314.75 146.14L277.771 159.098L278.793 162.003L315.772 149.046L314.75 146.14Z" fill="white"/>
<path d="M182.894 188.586L164.404 195.064L166.604 201.315L185.094 194.836L182.894 188.586Z" fill="#F89300"/>
<path opacity="0.8" d="M182.894 188.586L164.404 195.064L166.604 201.315L185.094 194.836L182.894 188.586Z" fill="white"/>
<path d="M281.755 135.053L303.346 127.491C304.484 127.087 305.416 126.25 305.94 125.164C306.463 124.078 306.536 122.829 306.142 121.69C305.737 120.554 304.899 119.624 303.81 119.101C302.721 118.579 301.47 118.506 300.328 118.9L278.73 126.469C277.591 126.873 276.659 127.71 276.136 128.796C275.612 129.882 275.539 131.131 275.933 132.27C276.34 133.406 277.18 134.336 278.27 134.857C279.361 135.378 280.613 135.449 281.755 135.053Z" fill="#F89300"/>
<path d="M244.77 148.012L266.368 140.443C267.498 140.037 268.423 139.205 268.944 138.126C269.466 137.047 269.542 135.807 269.157 134.672C268.75 133.538 267.912 132.609 266.823 132.088C265.734 131.568 264.484 131.496 263.343 131.89L241.752 139.459C240.614 139.863 239.682 140.7 239.158 141.786C238.634 142.872 238.562 144.121 238.956 145.26C239.368 146.389 240.21 147.31 241.298 147.825C242.385 148.34 243.633 148.407 244.77 148.012Z" fill="#F89300"/>
<path d="M207.808 160.971L229.406 153.402C230.533 152.993 231.455 152.16 231.973 151.081C232.491 150.002 232.566 148.764 232.18 147.631C231.773 146.497 230.934 145.568 229.846 145.047C228.757 144.527 227.507 144.455 226.366 144.849L204.752 152.388C203.615 152.793 202.685 153.63 202.163 154.716C201.641 155.803 201.569 157.05 201.964 158.189C202.37 159.33 203.213 160.264 204.309 160.786C205.405 161.308 206.663 161.374 207.808 160.971Z" fill="#F89300"/>
<path d="M170.807 173.93L192.405 166.361C193.536 165.956 194.463 165.125 194.986 164.046C195.509 162.967 195.586 161.726 195.202 160.59C194.795 159.456 193.956 158.527 192.868 158.006C191.779 157.486 190.529 157.414 189.387 157.808L167.789 165.377C166.651 165.781 165.719 166.618 165.195 167.704C164.672 168.79 164.599 170.039 164.993 171.178C165.406 172.307 166.247 173.228 167.335 173.743C168.423 174.258 169.67 174.325 170.807 173.93Z" fill="#F89300"/>
<g opacity="0.8">
<path d="M281.755 135.053L303.346 127.491C304.484 127.087 305.416 126.25 305.94 125.164C306.463 124.078 306.536 122.829 306.142 121.69C305.737 120.554 304.899 119.624 303.81 119.101C302.721 118.579 301.47 118.506 300.328 118.9L278.73 126.469C277.591 126.873 276.659 127.71 276.136 128.796C275.612 129.882 275.539 131.131 275.933 132.27C276.34 133.406 277.18 134.336 278.27 134.857C279.361 135.378 280.613 135.449 281.755 135.053Z" fill="white"/>
<path d="M244.77 148.011L266.368 140.442C267.498 140.036 268.423 139.204 268.944 138.125C269.466 137.046 269.542 135.806 269.157 134.671C268.75 133.537 267.912 132.608 266.823 132.088C265.734 131.567 264.484 131.495 263.343 131.889L241.752 139.458C240.614 139.862 239.682 140.699 239.158 141.785C238.634 142.871 238.562 144.12 238.956 145.259C239.368 146.388 240.21 147.309 241.298 147.824C242.385 148.339 243.633 148.406 244.77 148.011Z" fill="white"/>
<path d="M207.807 160.97L229.405 153.401C230.532 152.992 231.454 152.159 231.972 151.08C232.491 150.001 232.565 148.763 232.179 147.63C231.772 146.496 230.934 145.567 229.845 145.046C228.756 144.526 227.506 144.454 226.365 144.848L204.751 152.387C203.614 152.792 202.684 153.629 202.162 154.715C201.64 155.802 201.568 157.049 201.963 158.188C202.369 159.329 203.212 160.263 204.308 160.785C205.404 161.307 206.662 161.373 207.807 160.97Z" fill="white"/>
<path d="M170.807 173.929L192.405 166.36C193.536 165.955 194.463 165.124 194.986 164.045C195.509 162.966 195.586 161.725 195.202 160.589C194.795 159.455 193.956 158.526 192.868 158.005C191.779 157.485 190.529 157.413 189.387 157.807L167.789 165.376C166.651 165.78 165.719 166.617 165.195 167.703C164.672 168.789 164.599 170.038 164.993 171.177C165.406 172.306 166.247 173.227 167.335 173.742C168.423 174.257 169.67 174.324 170.807 173.929Z" fill="white"/>
</g>
<path d="M292.978 93.7073L273.76 100.441C272.128 101.013 271.269 102.797 271.843 104.425L275.847 115.804C276.42 117.432 278.208 118.289 279.841 117.717L299.058 110.983C300.691 110.411 301.549 108.627 300.976 106.999L296.971 95.6206C296.398 93.992 294.61 93.1354 292.978 93.7073Z" fill="#F89300"/>
<path opacity="0.3" d="M292.978 93.7073L273.76 100.441C272.128 101.013 271.269 102.797 271.843 104.425L275.847 115.804C276.42 117.432 278.208 118.289 279.841 117.717L299.058 110.983C300.691 110.411 301.549 108.627 300.976 106.999L296.971 95.6206C296.398 93.992 294.61 93.1354 292.978 93.7073Z" fill="black"/>
<path d="M177.003 114.853C176.524 113.486 175.779 112.227 174.812 111.148C173.845 110.069 172.674 109.19 171.366 108.563C170.058 107.936 168.639 107.572 167.19 107.492C165.742 107.413 164.291 107.619 162.922 108.099L147.398 113.915L147.199 113.968L146.741 114.159L146.458 114.266C143.951 115.395 141.977 117.444 140.945 119.988C139.913 122.532 139.903 125.375 140.917 127.926C141.931 130.477 143.891 132.54 146.39 133.687C148.888 134.834 151.734 134.977 154.335 134.085L169.034 129.207C169.458 129.112 169.876 128.995 170.287 128.856C170.591 128.75 170.89 128.628 171.181 128.49C173.679 127.348 175.661 125.318 176.737 122.796C177.814 120.273 177.909 117.441 177.003 114.853Z" fill="#F89300"/>
<path opacity="0.8" d="M177.003 114.853C176.524 113.486 175.779 112.227 174.812 111.148C173.845 110.069 172.674 109.19 171.366 108.563C170.058 107.936 168.639 107.572 167.19 107.492C165.742 107.413 164.291 107.619 162.922 108.099L147.398 113.915L147.199 113.968L146.741 114.159L146.458 114.266C143.951 115.395 141.977 117.444 140.945 119.988C139.913 122.532 139.903 125.375 140.917 127.926C141.931 130.477 143.891 132.54 146.39 133.687C148.888 134.834 151.734 134.977 154.335 134.085L169.034 129.207C169.458 129.112 169.876 128.995 170.287 128.856C170.591 128.75 170.89 128.628 171.181 128.49C173.679 127.348 175.661 125.318 176.737 122.796C177.814 120.273 177.909 117.441 177.003 114.853Z" fill="white"/>
</g>
<defs>
<clipPath id="clip0_4490_7136">
<rect width="382" height="222" fill="white"/>
</clipPath>
</defs>
</svg>
