<svg width="25" height="20" viewBox="0 0 25 20" fill="none" xmlns="http://www.w3.org/2000/svg">
  <g clip-path="url(#clip0_7350_10837)">
    <path d="M380.769 -213.25H-38.4614V55.9167H380.769V-213.25Z" fill="#D8D8D8"/>
    <path d="M25 0.5H0V2.60583H25V0.5Z" fill="#DC4437"/>
    <path d="M25 4.72754H0V6.83337H25V4.72754Z" fill="#DC4437"/>
    <path d="M25 13.1666H0V15.2725H25V13.1666Z" fill="#DC4437"/>
    <path d="M25 17.3942H0V19.5H25V17.3942Z" fill="#DC4437"/>
    <path d="M25 8.93921H0V11.045H25V8.93921Z" fill="#DC4437"/>
    <path d="M25 2.60583H0V4.71167H25V2.60583Z" fill="white"/>
    <path d="M25 6.83337H0V8.93921H25V6.83337Z" fill="white"/>
    <path d="M25 15.2725H0V17.3783H25V15.2725Z" fill="white"/>
    <path d="M25 11.0608H0V13.1666H25V11.0608Z" fill="white"/>
    <path d="M13.4615 0.5H0V11.0608H13.4615V0.5Z" fill="#2A66B7"/>
    <path d="M2.59612 1.1333L3.03842 1.90913L4.03842 2.0358L3.30765 2.6533L3.48073 3.5083L2.59612 3.09663L1.7115 3.5083L1.88458 2.6533L1.15381 2.0358L2.15381 1.90913L2.59612 1.1333Z" fill="white"/>
    <path d="M6.5385 1.1333L6.98081 1.90913L7.98081 2.0358L7.26927 2.6533L7.42311 3.5083L6.5385 3.09663L5.65388 3.5083L5.80773 2.6533L5.09619 2.0358L6.09619 1.90913L6.5385 1.1333Z" fill="white"/>
    <path d="M10.4809 1.1333L10.9232 1.90913L11.9232 2.0358L11.1924 2.6533L11.3655 3.5083L10.4809 3.09663L9.59627 3.5083L9.76934 2.6533L9.03857 2.0358L10.0386 1.90913L10.4809 1.1333Z" fill="white"/>
    <path d="M4.61516 4.30005L5.05747 5.07588L6.05747 5.20255L5.34593 5.82005L5.49977 6.67505L4.61516 6.26338L3.73054 6.67505L3.88439 5.82005L3.17285 5.20255L4.17285 5.07588L4.61516 4.30005Z" fill="white"/>
    <path d="M8.55754 4.30005L8.99985 5.07588L9.99985 5.20255L9.26908 5.82005L9.44216 6.67505L8.55754 6.26338L7.67293 6.67505L7.846 5.82005L7.11523 5.20255L8.11523 5.07588L8.55754 4.30005Z" fill="white"/>
    <path d="M2.59612 7.65662L3.03842 8.43245L4.03842 8.55912L3.30765 9.16078L3.48073 10.0316L2.59612 9.61995L1.7115 10.0316L1.88458 9.16078L1.15381 8.55912L2.15381 8.43245L2.59612 7.65662Z" fill="white"/>
    <path d="M6.5385 7.65662L6.98081 8.43245L7.98081 8.55912L7.26927 9.16078L7.42311 10.0316L6.5385 9.61995L5.65388 10.0316L5.80773 9.16078L5.09619 8.55912L6.09619 8.43245L6.5385 7.65662Z" fill="white"/>
    <path d="M10.4809 7.65662L10.9232 8.43245L11.9232 8.55912L11.1924 9.16078L11.3655 10.0316L10.4809 9.61995L9.59627 10.0316L9.76934 9.16078L9.03857 8.55912L10.0386 8.43245L10.4809 7.65662Z" fill="white"/>
  </g>
  <defs>
    <clipPath id="clip0_7350_10837">
      <rect y="0.5" width="25" height="19" rx="2" fill="white"/>
    </clipPath>
  </defs>
</svg>
