<svg width="29" height="28" viewBox="0 0 29 28" fill="none" xmlns="http://www.w3.org/2000/svg">
<path fill-rule="evenodd" clip-rule="evenodd" d="M12.2601 21.6919H4.90894C4.42594 21.6919 4.03394 21.2999 4.03394 20.8169C4.03394 20.3339 4.42594 19.9419 4.90894 19.9419H12.2601C12.7431 19.9419 13.1351 20.3339 13.1351 20.8169C13.1351 21.2999 12.7431 21.6919 12.2601 21.6919" fill="white"/>
<path fill-rule="evenodd" clip-rule="evenodd" d="M20.7856 18.9097C19.7473 18.9097 18.9026 19.745 18.9026 20.7717C18.9026 21.7995 19.7473 22.6337 20.7856 22.6337C21.8228 22.6337 22.6663 21.7995 22.6663 20.7717C22.6663 19.745 21.8228 18.9097 20.7856 18.9097M20.7856 24.3837C18.7824 24.3837 17.1526 22.7632 17.1526 20.7717C17.1526 18.7802 18.7824 17.1597 20.7856 17.1597C22.7876 17.1597 24.4163 18.7802 24.4163 20.7717C24.4163 22.7632 22.7876 24.3837 20.7856 24.3837" fill="white"/>
<path fill-rule="evenodd" clip-rule="evenodd" d="M22.8893 10.3838H15.5393C15.0563 10.3838 14.6643 9.99179 14.6643 9.50879C14.6643 9.02579 15.0563 8.63379 15.5393 8.63379H22.8893C23.3723 8.63379 23.7643 9.02579 23.7643 9.50879C23.7643 9.99179 23.3723 10.3838 22.8893 10.3838" fill="white"/>
<mask id="mask0_4814_10253" style="mask-type:luminance" maskUnits="userSpaceOnUse" x="4" y="5" width="8" height="9">
<path fill-rule="evenodd" clip-rule="evenodd" d="M4 5.83398H11.2634V13.0575H4V5.83398Z" fill="white"/>
</mask>
<g mask="url(#mask0_4814_10253)">
<path fill-rule="evenodd" clip-rule="evenodd" d="M7.63159 7.5835C6.59442 7.5835 5.74976 8.41883 5.74976 9.44666C5.74976 10.4733 6.59442 11.3075 7.63159 11.3075C8.66992 11.3075 9.51342 10.4733 9.51342 9.44666C9.51342 8.41883 8.66992 7.5835 7.63159 7.5835M7.63159 13.0575C5.62959 13.0575 3.99976 11.4382 3.99976 9.44666C3.99976 7.45516 5.62959 5.8335 7.63159 5.8335C9.63476 5.8335 11.2634 7.45516 11.2634 9.44666C11.2634 11.4382 9.63476 13.0575 7.63159 13.0575" fill="white"/>
</g>
</svg>
