<svg width="17" height="20" viewBox="0 0 17 20" fill="none" xmlns="http://www.w3.org/2000/svg">
<path fill-rule="evenodd" clip-rule="evenodd" d="M5.42574 14.39H10.8119C11.2178 14.39 11.5545 14.05 11.5545 13.64C11.5545 13.23 11.2178 12.9 10.8119 12.9H5.42574C5.0198 12.9 4.68317 13.23 4.68317 13.64C4.68317 14.05 5.0198 14.39 5.42574 14.39ZM8.77228 7.9H5.42574C5.0198 7.9 4.68317 8.24 4.68317 8.65C4.68317 9.06 5.0198 9.39 5.42574 9.39H8.77228C9.17822 9.39 9.51485 9.06 9.51485 8.65C9.51485 8.24 9.17822 7.9 8.77228 7.9ZM15.8381 7.02561C16.0708 7.02292 16.3242 7.02 16.5545 7.02C16.802 7.02 17 7.22 17 7.47V15.51C17 17.99 15.0099 20 12.5545 20H4.67327C2.09901 20 0 17.89 0 15.29V4.51C0 2.03 2 0 4.46535 0H9.75247C10.0099 0 10.2079 0.21 10.2079 0.46V3.68C10.2079 5.51 11.703 7.01 13.5149 7.02C13.9381 7.02 14.3112 7.02316 14.6377 7.02593C14.8917 7.02809 15.1175 7.03 15.3168 7.03C15.4578 7.03 15.6405 7.02789 15.8381 7.02561ZM16.1111 5.566C15.2972 5.569 14.3378 5.566 13.6477 5.559C12.5527 5.559 11.6507 4.648 11.6507 3.542V0.906C11.6507 0.475 12.1685 0.261 12.4646 0.572C13.0004 1.13476 13.7368 1.90834 14.4699 2.67837C15.2009 3.44632 15.9286 4.21074 16.4507 4.759C16.7398 5.062 16.5279 5.565 16.1111 5.566Z" fill="url(#paint0_linear_5161_2546)"/>
<defs>
<linearGradient id="paint0_linear_5161_2546" x1="17" y1="20" x2="-3.67335" y2="14.9051" gradientUnits="userSpaceOnUse">
<stop stop-color="#12D18E"/>
<stop offset="1" stop-color="#71E3BB"/>
</linearGradient>
</defs>
</svg>
