<svg width="13" height="14" viewBox="0 0 13 14" fill="none" xmlns="http://www.w3.org/2000/svg">
<path d="M4.50838 12.117V10.328C4.50837 9.87303 4.87932 9.50331 5.33892 9.50025H7.02247C7.48427 9.50025 7.85863 9.87087 7.85863 10.328V10.328V12.1225C7.85852 12.5089 8.16998 12.8246 8.56011 12.8337H9.68247C10.8013 12.8337 11.7083 11.9357 11.7083 10.8281V10.8281V5.73906C11.7024 5.30331 11.4957 4.89411 11.1472 4.62793L7.30867 1.56675C6.63621 1.03374 5.68029 1.03374 5.00783 1.56675L1.18618 4.63348C0.836318 4.89859 0.629309 5.30846 0.625 5.74462V10.8281C0.625 11.9357 1.53201 12.8337 2.65087 12.8337H3.77323C4.17304 12.8337 4.49715 12.5128 4.49715 12.117V12.117" stroke="#9E9E9E" stroke-linecap="round" stroke-linejoin="round"/>
</svg>
