<svg width="15" height="14" viewBox="0 0 15 14" fill="none" xmlns="http://www.w3.org/2000/svg">
<path d="M13.3333 9.76515V2.72432C13.3333 2.02432 12.7616 1.50515 12.0675 1.56348H12.0325C10.8075 1.66848 8.94663 2.29265 7.90829 2.94598L7.80913 3.01015C7.63996 3.11515 7.35996 3.11515 7.19079 3.01015L7.04496 2.92265C6.00663 2.27515 4.15163 1.65682 2.92663 1.55765C2.23246 1.49932 1.66663 2.02432 1.66663 2.71848V9.76515C1.66663 10.3252 2.12163 10.8502 2.68163 10.9202L2.85079 10.9435C4.11663 11.1127 6.07079 11.7543 7.19079 12.3668L7.21413 12.3785C7.37163 12.466 7.62246 12.466 7.77413 12.3785C8.89413 11.7602 10.8541 11.1127 12.1258 10.9435L12.3183 10.9202C12.8783 10.8502 13.3333 10.3252 13.3333 9.76515Z" stroke="#9E9E9E" stroke-linecap="round" stroke-linejoin="round"/>
<path d="M7.5 3.20264V11.9526" stroke="#9E9E9E" stroke-linecap="round" stroke-linejoin="round"/>
<path d="M5.02087 4.95264H3.70837" stroke="#9E9E9E" stroke-linecap="round" stroke-linejoin="round"/>
<path d="M5.45837 6.70264H3.70837" stroke="#9E9E9E" stroke-linecap="round" stroke-linejoin="round"/>
</svg>
