<svg width="108" height="38" viewBox="0 0 108 38" fill="none" xmlns="http://www.w3.org/2000/svg">
<path d="M9.44179 33.8034C8.28096 33.7927 7.17898 33.2738 6.35516 32.45L0.513566 26.6031C0.304937 26.3944 0.1819 26.1056 0.235395 25.8167C0.310287 25.3887 0.674049 25.0945 1.08596 25.0945H2.95826C3.53065 25.0945 4.10304 24.9126 4.53635 24.5275C5.05525 24.0621 5.32807 23.4148 5.29597 22.7301L5.25318 7.60717C5.25318 7.22201 5.4832 6.87429 5.84162 6.72986C6.20003 6.58007 6.60659 6.66567 6.87941 6.93849C6.89011 6.94919 6.90081 6.95988 6.91151 6.97593L12.828 13.7858C13.4271 14.401 13.7534 15.2087 13.7534 16.07V29.5346C13.7534 31.9044 11.8169 33.8248 9.44714 33.8034H9.44179ZM2.72289 26.6352L7.54274 31.4604C8.07234 31.99 8.78381 32.2735 9.53273 32.2574C11.0359 32.2253 12.2021 30.9201 12.2021 29.4222V16.0646C12.2021 15.6046 12.0256 15.1713 11.7046 14.8503C11.6939 14.8396 11.6832 14.8289 11.6725 14.8129L6.79917 9.2013L6.83661 22.6926C6.89011 23.7571 6.4782 24.7949 5.68648 25.5706C4.95361 26.2821 3.94256 26.6405 2.92082 26.6405H2.73359L2.72289 26.6352Z" fill="#F6A61C"/>
<path d="M1.50854 26.635H1.33201C0.690079 26.635 0 26.2231 0 25.0676V7.55354C0 7.16838 0.262123 6.81531 0.641934 6.75112C1.12338 6.67088 1.54064 7.04534 1.54064 7.51074V25.0676C1.54064 25.0676 1.54064 25.0837 1.54064 25.0944H1.56739C2.03279 25.0944 2.39655 25.5009 2.33236 25.977C2.27886 26.3675 1.9044 26.635 1.50854 26.635Z" fill="#F6A61C"/>
<path d="M3.30597 22.9277C2.87801 22.9277 2.53564 22.58 2.53564 22.1574V9.20635C2.53564 8.7784 2.88336 8.43604 3.30597 8.43604C3.72857 8.43604 4.07629 8.78375 4.07629 9.20635V22.1574C4.07629 22.5853 3.72857 22.9277 3.30597 22.9277Z" fill="#F6A61C"/>
<path d="M3.20968 6.17326C4.91438 6.17326 6.29631 4.79133 6.29631 3.08663C6.29631 1.38193 4.91438 0 3.20968 0C1.50498 0 0.123047 1.38193 0.123047 3.08663C0.123047 4.79133 1.50498 6.17326 3.20968 6.17326Z" fill="#F6A61C"/>
<path d="M24.8857 27.1175L25.7363 26.9891C26.0091 26.9891 26.2391 27.2994 26.4317 27.9199C26.6189 28.5404 26.7152 28.9844 26.7152 29.2573C26.7152 30.2843 25.7095 30.8032 23.6874 30.8032C20.6222 30.8032 19.0869 29.1021 19.0869 25.6999V7.80062C19.0869 7.12659 19.7181 6.79492 20.9753 6.79492H21.8579C23.1204 6.79492 23.7463 7.13194 23.7463 7.80062V25.7587C23.7463 26.6628 24.1261 27.1121 24.8804 27.1121L24.8857 27.1175Z" fill="#F8F9DF"/>
<path d="M36.8898 29.605V7.80062C36.8898 7.12659 37.521 6.79492 38.7781 6.79492H39.6608C40.9233 6.79492 41.5491 7.13194 41.5491 7.80062V14.7977C42.4532 14.1451 43.5231 13.8187 44.7642 13.8187C46.8665 13.8187 48.4981 14.5784 49.6643 16.103C50.8304 17.6276 51.4135 19.7085 51.4135 22.3404C51.4135 24.9723 50.8679 27.0479 49.7766 28.5458C48.6853 30.049 47.2677 30.7979 45.5238 30.7979C44.5769 30.7979 43.7317 30.5786 42.9881 30.1346C42.2446 29.6959 41.6829 29.1289 41.3031 28.4334L40.9874 29.7868C40.8591 30.3325 40.2492 30.6053 39.1579 30.6053H38.7781C37.5157 30.6053 36.8898 30.2683 36.8898 29.5943V29.605ZM44.1383 26.9891C45.8394 26.9891 46.69 25.411 46.69 22.2441C46.69 19.0773 45.711 17.5045 43.7585 17.5045C43.0042 17.5045 42.266 17.7024 41.5545 18.1037V25.1328C42.2713 26.3739 43.1326 26.9891 44.1383 26.9891Z" fill="#F8F9DF"/>
<path d="M54.6928 29.6051V19.6177C54.6928 18.0396 54.6286 16.9376 54.5056 16.3117C54.3772 15.6805 54.3184 15.306 54.3184 15.1776C54.3184 14.8406 54.741 14.5892 55.5915 14.4234C56.4421 14.2575 57.0787 14.1719 57.4959 14.1719C57.9132 14.1719 58.1914 14.2147 58.3304 14.3003C58.4695 14.3859 58.5765 14.5143 58.6621 14.6962C58.7477 14.8727 58.8065 15.0225 58.8493 15.1348C58.8921 15.2525 58.9403 15.4451 58.9938 15.7179C59.0473 15.9907 59.0847 16.1566 59.1061 16.2208C59.9888 14.6266 61.1336 13.8242 62.5405 13.8242C63.2145 13.8242 63.6799 13.9954 63.942 14.3431C64.2041 14.6908 64.3379 15.0813 64.3379 15.5253C64.3379 15.9693 64.2416 16.5203 64.0544 17.1783C63.8671 17.8417 63.6317 18.1733 63.3589 18.1733C63.2305 18.1733 63.0112 18.1305 62.6956 18.0449C62.38 17.9593 62.1072 17.9165 61.8771 17.9165C60.8286 17.9165 59.9888 18.4408 59.3575 19.4946V29.6104C59.3575 30.2845 58.7263 30.6215 57.4692 30.6215H56.5865C55.3241 30.6215 54.6982 30.2845 54.6982 29.6104L54.6928 29.6051Z" fill="#F8F9DF"/>
<path d="M65.595 26.2028C65.595 25.6144 65.6484 25.0794 65.7501 24.598C65.8571 24.1165 66.0978 23.5976 66.4723 23.0359C66.8521 22.4796 67.3549 22.0249 67.9861 21.6665C69.4786 20.7838 71.6933 20.3452 74.6355 20.3452V19.3074C74.6355 18.1091 73.817 17.5099 72.1801 17.5099C71.0246 17.5099 69.9013 17.7614 68.81 18.2642C68.4302 18.43 68.2108 18.5156 68.1466 18.5156C67.831 18.5156 67.478 18.1893 67.0928 17.5367C66.7023 16.8841 66.5097 16.3705 66.5097 15.9907C66.5097 15.4237 67.0928 14.9208 68.259 14.4768C69.4252 14.0382 70.8481 13.8135 72.5278 13.8135C77.0428 13.8135 79.3002 15.5681 79.3002 19.0773V24.9992C79.3002 26.3044 79.3644 27.3957 79.4875 28.2784L79.6747 29.5729C79.6747 29.91 79.2521 30.1614 78.3962 30.3272C77.5456 30.4931 76.909 30.5786 76.4918 30.5786C76.0745 30.5786 75.791 30.5358 75.6573 30.4503C75.5182 30.3647 75.4112 30.2256 75.3256 30.0223C75.24 29.8244 75.1758 29.6639 75.1384 29.5516C75.0956 29.4339 75.0474 29.2306 74.9993 28.9364C74.9458 28.6421 74.9083 28.4656 74.8869 28.4014C74.5071 29.0755 73.8598 29.6425 72.9344 30.1025C72.0089 30.5626 71.1156 30.798 70.2543 30.798C68.6388 30.798 67.4566 30.3807 66.7076 29.5355C65.9641 28.6956 65.5896 27.583 65.5896 26.1974L65.595 26.2028ZM70.2276 25.7267C70.2276 26.1493 70.3667 26.481 70.6395 26.7324C70.9123 26.9838 71.3242 27.1122 71.8699 27.1122C72.4155 27.1122 72.9504 26.925 73.4747 26.5452C73.9989 26.1654 74.3894 25.6946 74.6409 25.1276V23.3943C71.6987 23.3943 70.2276 24.17 70.2276 25.7267Z" fill="#F8F9DF"/>
<path d="M83.3979 29.6051V19.6177C83.3979 18.0396 83.3337 16.9376 83.2107 16.3117C83.0823 15.6805 83.0234 15.306 83.0234 15.1776C83.0234 14.8406 83.446 14.5892 84.2966 14.4234C85.1472 14.2575 85.7838 14.1719 86.201 14.1719C86.6183 14.1719 86.8964 14.2147 87.0355 14.3003C87.1746 14.3859 87.2816 14.5143 87.3672 14.6962C87.4528 14.8727 87.5116 15.0225 87.5544 15.1348C87.5972 15.2525 87.6454 15.4451 87.6989 15.7179C87.7524 15.9907 87.7898 16.1566 87.8112 16.2208C88.6939 14.6266 89.8386 13.8242 91.2455 13.8242C91.9196 13.8242 92.385 13.9954 92.6471 14.3431C92.9092 14.6908 93.043 15.0813 93.043 15.5253C93.043 15.9693 92.9467 16.5203 92.7594 17.1783C92.5722 17.8417 92.3368 18.1733 92.064 18.1733C91.9356 18.1733 91.7163 18.1305 91.4007 18.0449C91.0851 17.9593 90.8122 17.9165 90.5822 17.9165C89.5337 17.9165 88.6939 18.4408 88.0626 19.4946V29.6104C88.0626 30.2845 87.4314 30.6215 86.1743 30.6215H85.2916C84.0291 30.6215 83.4033 30.2845 83.4033 29.6104L83.3979 29.6051Z" fill="#F8F9DF"/>
<path d="M93.2944 14.7013C93.2944 14.2412 93.9363 14.0059 95.2148 14.0059H96.2205C97.2476 14.0059 97.8361 14.2252 97.9858 14.6692L99.8421 20.5001C100.029 21.0885 100.324 22.3617 100.725 24.3142H100.853C101.276 22.2975 101.57 21.0243 101.736 20.5001L103.592 14.6692C103.736 14.2305 104.325 14.0059 105.357 14.0059H106.112C107.374 14.0059 108 14.2359 108 14.7013C108 14.8511 107.968 15.0383 107.904 15.2683L100.687 36.3826C100.521 36.8213 99.933 37.0459 98.922 37.0459H98.387C97.1246 37.0459 96.4987 36.8266 96.4987 36.3826C96.4987 36.1954 96.5415 36.0028 96.6217 35.8156L98.6064 30.5517L93.4067 15.2683C93.3211 14.9741 93.2783 14.7869 93.2783 14.7013H93.2944Z" fill="#F8F9DF"/>
<path d="M28.8763 29.6049V15.0169C28.8763 14.3429 29.5076 14.0112 30.7647 14.0112H31.6474C32.9098 14.0112 33.5357 14.3482 33.5357 15.0169V29.6049C33.5357 30.2789 32.9045 30.6159 31.6474 30.6159H30.7647C29.5022 30.6159 28.8763 30.2789 28.8763 29.6049Z" fill="#F8F9DF"/>
<path d="M31.2354 12.9893C30.5507 12.9893 29.9623 12.7807 29.4808 12.3581C28.994 11.9355 28.7533 11.3417 28.7533 10.5767C28.7533 9.8813 29.0047 9.30891 29.5022 8.85421C29.9997 8.40485 30.5828 8.18018 31.2408 8.18018C31.8988 8.18018 32.4444 8.38345 32.9366 8.79536C33.4287 9.20192 33.6748 9.79571 33.6748 10.5767C33.6748 11.3577 33.4341 11.9248 32.9526 12.3527C32.4712 12.7807 31.9041 12.9947 31.2408 12.9947L31.2354 12.9893Z" fill="#F8F9DF"/>
</svg>
