<svg width="13" height="24" viewBox="0 0 13 24" fill="none" xmlns="http://www.w3.org/2000/svg">
<path d="M9.08124 24.0003C8.0262 23.9927 7.02464 23.6242 6.27591 23.0393L0.96669 18.8879C0.777075 18.7397 0.665251 18.5346 0.71387 18.3295C0.781937 18.0257 1.11255 17.8168 1.48692 17.8168H3.18859C3.70881 17.8168 4.22904 17.6876 4.62285 17.4142C5.09446 17.0837 5.34242 16.6241 5.31325 16.138L5.27435 5.40041C5.27435 5.12694 5.48341 4.88005 5.80916 4.7775C6.13491 4.67115 6.50442 4.73192 6.75238 4.92563C6.7621 4.93323 6.77182 4.94083 6.78155 4.95222L12.1588 9.78735C12.7034 10.2241 12.9999 10.7977 12.9999 11.4092V20.9693C12.9999 22.6519 11.2399 24.0155 9.0861 24.0003H9.08124ZM2.97466 18.9107L7.35525 22.3366C7.83658 22.7127 8.48322 22.914 9.16389 22.9026C10.5301 22.8798 11.59 21.953 11.59 20.8895V11.4054C11.59 11.0787 11.4295 10.7711 11.1378 10.5432C11.1281 10.5356 11.1184 10.528 11.1087 10.5166L6.67945 6.53228L6.71348 16.1114C6.7621 16.8672 6.38773 17.6041 5.66817 18.1548C5.00208 18.66 4.08318 18.9145 3.15455 18.9145H2.98439L2.97466 18.9107Z" fill="#F6A61C"/>
<path d="M1.87106 18.9108H1.71062C1.12719 18.9108 0.5 18.6184 0.5 17.798V5.36262C0.5 5.08915 0.738234 4.83846 1.08343 4.79288C1.521 4.73591 1.90023 5.00179 1.90023 5.33223V17.798C1.90023 17.798 1.90023 17.8094 1.90023 17.817H1.92454C2.34753 17.817 2.67814 18.1056 2.6198 18.4437C2.57118 18.7209 2.23084 18.9108 1.87106 18.9108Z" fill="#F6A61C"/>
<path d="M3.5048 16.2786C3.11585 16.2786 2.80469 16.0317 2.80469 15.7317V6.5362C2.80469 6.23234 3.12071 5.98926 3.5048 5.98926C3.8889 5.98926 4.20492 6.23614 4.20492 6.5362V15.7317C4.20492 16.0355 3.8889 16.2786 3.5048 16.2786Z" fill="#F6A61C"/>
<path d="M3.41702 4.38314C4.96636 4.38314 6.22235 3.40194 6.22235 2.19157C6.22235 0.981199 4.96636 0 3.41702 0C1.86768 0 0.611694 0.981199 0.611694 2.19157C0.611694 3.40194 1.86768 4.38314 3.41702 4.38314Z" fill="#F6A61C"/>
</svg>
