<svg width="25" height="24" viewBox="0 0 25 24" fill="none" xmlns="http://www.w3.org/2000/svg">
<path d="M17.1406 4H8.85938C5.62344 4 3 6.62344 3 9.85938V18.1406C3 21.3766 5.62344 24 8.85938 24H17.1406C20.3766 24 23 21.3766 23 18.1406V9.85938C23 6.62344 20.3766 4 17.1406 4ZM12.4105 19.4688C12.4105 20.0082 11.9734 20.4453 11.434 20.4453H8.69961C7.62109 20.4453 6.74648 19.5707 6.74648 18.4922V9.50781C6.74648 8.4293 7.62109 7.55469 8.69961 7.55469H11.434C11.9734 7.55469 12.4105 7.9918 12.4105 8.53125C12.4105 9.0707 11.9734 9.50781 11.434 9.50781H9.18789C8.91836 9.50781 8.69961 9.72656 8.69961 9.99609V18.0039C8.69961 18.2734 8.91836 18.4922 9.18789 18.4922H11.434C11.9734 18.4922 12.4105 18.9293 12.4105 19.4688ZM18.9676 14.6906L15.4437 18.2145C15.0625 18.5957 14.4441 18.5957 14.0625 18.2145C13.6813 17.8332 13.6813 17.2148 14.0625 16.8332L15.9191 14.9766H10.8602C10.3207 14.9766 9.88359 14.5395 9.88359 14C9.88359 13.4605 10.3207 13.0234 10.8602 13.0234H15.9191L14.0625 11.1668C13.6813 10.7855 13.6813 10.1672 14.0625 9.78555C14.4438 9.4043 15.0621 9.4043 15.4437 9.78555L18.9676 13.3094C19.3488 13.6906 19.3488 14.309 18.9676 14.6906Z" fill="#F75555"/>
</svg>
