<svg width="21" height="20" viewBox="0 0 21 20" fill="none" xmlns="http://www.w3.org/2000/svg">
<path d="M10.5 17.4997V5.83301" stroke="#FAFAFA" stroke-width="1.2" stroke-linecap="round" stroke-linejoin="round"/>
<path d="M13.8333 9.99967L15.4999 11.6663L18.8333 8.33301" stroke="#FAFAFA" stroke-width="1.2" stroke-linecap="round" stroke-linejoin="round"/>
<path d="M18.8334 5V3.33333C18.8334 3.11232 18.7456 2.90036 18.5893 2.74408C18.4331 2.5878 18.2211 2.5 18.0001 2.5H13.8334C12.9494 2.5 12.1015 2.85119 11.4764 3.47631C10.8513 4.10143 10.5001 4.94928 10.5001 5.83333C10.5001 4.94928 10.1489 4.10143 9.52377 3.47631C8.89865 2.85119 8.0508 2.5 7.16675 2.5H3.00008C2.77907 2.5 2.56711 2.5878 2.41083 2.74408C2.25455 2.90036 2.16675 3.11232 2.16675 3.33333V14.1667C2.16675 14.3877 2.25455 14.5996 2.41083 14.7559C2.56711 14.9122 2.77907 15 3.00008 15H8.00008C8.66312 15 9.29901 15.2634 9.76785 15.7322C10.2367 16.2011 10.5001 16.837 10.5001 17.5C10.5001 16.837 10.7635 16.2011 11.2323 15.7322C11.7012 15.2634 12.337 15 13.0001 15H18.0001C18.2211 15 18.4331 14.9122 18.5893 14.7559C18.7456 14.5996 18.8334 14.3877 18.8334 14.1667V13.0833" stroke="#FAFAFA" stroke-width="1.2" stroke-linecap="round" stroke-linejoin="round"/>
</svg>
