<svg width="20" height="21" viewBox="0 0 20 21" fill="none" xmlns="http://www.w3.org/2000/svg">
<g id="Group">
<g id="Mask Group">
<mask id="mask0_5006_3611" style="mask-type:luminance" maskUnits="userSpaceOnUse" x="0" y="0" width="20" height="21">
<path id="Vector" fill-rule="evenodd" clip-rule="evenodd" d="M0.25 0.000976562H19.5349V20.722H0.25V0.000976562Z" fill="white"/>
</mask>
<g mask="url(#mask0_5006_3611)">
<path id="Exclude" fill-rule="evenodd" clip-rule="evenodd" d="M5.45232 15.441C5.68132 15.441 5.91032 15.47 6.13432 15.53C6.81032 15.712 7.39732 16.164 7.74532 16.771C7.97132 17.152 8.09632 17.597 8.10032 18.051C8.10032 18.701 8.62232 19.222 9.26432 19.222H10.5173C11.1563 19.222 11.6783 18.704 11.6813 18.065C11.6773 17.359 11.9533 16.688 12.4583 16.183C12.9563 15.685 13.6523 15.386 14.3483 15.406C14.8043 15.417 15.2433 15.54 15.6303 15.76C16.1873 16.079 16.8983 15.889 17.2203 15.339L17.8843 14.232C18.0323 13.977 18.0753 13.657 17.9963 13.362C17.9183 13.067 17.7223 12.811 17.4583 12.66C16.8403 12.304 16.3993 11.73 16.2163 11.042C16.0353 10.367 16.1343 9.62998 16.4873 9.02298C16.7173 8.62298 17.0543 8.28598 17.4583 8.05398C18.0003 7.73698 18.1903 7.02798 17.8753 6.47598C17.8623 6.45398 17.8503 6.43098 17.8403 6.40698L17.2543 5.39098C16.9353 4.83598 16.2253 4.64498 15.6683 4.96198C15.0663 5.31798 14.3503 5.41998 13.6623 5.23898C12.9753 5.06098 12.3993 4.62598 12.0403 4.01198C11.8103 3.62798 11.6853 3.18098 11.6813 2.72598C11.6903 2.38398 11.5703 2.07698 11.3523 1.85198C11.1353 1.62798 10.8303 1.50098 10.5173 1.50098H9.26432C8.95432 1.50098 8.66432 1.62198 8.44532 1.83998C8.22732 2.05898 8.10832 2.34998 8.11032 2.65998C8.08932 4.12198 6.89432 5.29898 5.44732 5.29898C4.98332 5.29398 4.53632 5.16898 4.14832 4.93698C3.60332 4.62698 2.89132 4.81798 2.57232 5.37298L1.89532 6.48598C1.58532 7.02398 1.77532 7.73498 2.32732 8.05598C3.14632 8.52998 3.65732 9.41398 3.65732 10.362C3.65732 11.31 3.14632 12.193 2.32532 12.668C1.77632 12.986 1.58632 13.693 1.90432 14.243L2.53532 15.331C2.69132 15.612 2.94632 15.815 3.24132 15.898C3.53532 15.98 3.85932 15.945 4.12932 15.795C4.52632 15.562 4.98832 15.441 5.45232 15.441ZM10.5173 20.722H9.26432C7.79532 20.722 6.60032 19.528 6.60032 18.059C6.59832 17.878 6.54632 17.69 6.44932 17.527C6.29232 17.253 6.03832 17.057 5.74532 16.979C5.45432 16.901 5.13532 16.944 4.87332 17.096C4.24532 17.446 3.50632 17.531 2.83032 17.341C2.15532 17.15 1.57232 16.686 1.23032 16.071L0.60532 14.994C-0.12568 13.726 0.30932 12.101 1.57532 11.369C1.93432 11.162 2.15732 10.776 2.15732 10.362C2.15732 9.94798 1.93432 9.56098 1.57532 9.35398C0.30832 8.61798 -0.12568 6.98898 0.60432 5.72098L1.28232 4.60798C2.00332 3.35398 3.63332 2.91198 4.90432 3.64198C5.07732 3.74498 5.26532 3.79698 5.45632 3.79898C6.07932 3.79898 6.60032 3.28498 6.61032 2.65298C6.60632 1.95598 6.88132 1.28698 7.38232 0.781977C7.88532 0.277977 8.55332 0.000976562 9.26432 0.000976562H10.5173C11.2333 0.000976562 11.9293 0.294977 12.4283 0.805977C12.9263 1.31998 13.2013 2.02498 13.1803 2.73998C13.1823 2.90098 13.2353 3.08698 13.3313 3.24998C13.4903 3.51998 13.7413 3.70998 14.0393 3.78798C14.3373 3.86198 14.6493 3.82198 14.9143 3.66498C16.1943 2.93398 17.8233 3.37198 18.5543 4.64198L19.1773 5.72098C19.1933 5.74998 19.2073 5.77798 19.2193 5.80698C19.8813 7.05798 19.4393 8.63298 18.2093 9.35198C18.0303 9.45498 17.8853 9.59898 17.7853 9.77298C17.6303 10.042 17.5873 10.362 17.6653 10.656C17.7453 10.956 17.9363 11.205 18.2053 11.359C18.8123 11.708 19.2653 12.296 19.4463 12.975C19.6273 13.653 19.5283 14.389 19.1753 14.996L18.5113 16.102C17.7803 17.358 16.1513 17.793 14.8843 17.061C14.7153 16.964 14.5203 16.911 14.3263 16.906H14.3203C14.0313 16.906 13.7343 17.029 13.5183 17.244C13.2993 17.463 13.1793 17.755 13.1813 18.065C13.1743 19.534 11.9793 20.722 10.5173 20.722Z" fill="#E0E0E0"/>
</g>
</g>
<path id="Exclude_2" fill-rule="evenodd" clip-rule="evenodd" d="M9.89503 8.47461C8.85503 8.47461 8.00903 9.32161 8.00903 10.3616C8.00903 11.4016 8.85503 12.2466 9.89503 12.2466C10.935 12.2466 11.781 11.4016 11.781 10.3616C11.781 9.32161 10.935 8.47461 9.89503 8.47461ZM9.89503 13.7466C8.02803 13.7466 6.50903 12.2286 6.50903 10.3616C6.50903 8.49461 8.02803 6.97461 9.89503 6.97461C11.762 6.97461 13.281 8.49461 13.281 10.3616C13.281 12.2286 11.762 13.7466 9.89503 13.7466Z" fill="#E0E0E0"/>
</g>
</svg>
