<svg width="162" height="162" viewBox="0 0 162 162" fill="none" xmlns="http://www.w3.org/2000/svg">
<path d="M142.24 106.288C141.314 105.359 139.812 105.357 138.884 106.282L131.42 113.724L123.956 106.282C123.027 105.357 121.525 105.359 120.6 106.288C119.674 107.216 119.677 108.718 120.605 109.644L128.059 117.074L120.605 124.505C119.677 125.431 119.675 126.933 120.6 127.861C121.063 128.326 121.672 128.559 122.281 128.559C122.887 128.559 123.493 128.328 123.956 127.866L131.42 120.425L138.884 127.866C139.347 128.328 139.953 128.559 140.559 128.559C141.168 128.559 141.777 128.326 142.24 127.861C143.166 126.933 143.163 125.43 142.235 124.505L134.781 117.074L142.235 109.644C143.162 108.718 143.165 107.216 142.24 106.288Z" fill="#A9A9A9" fill-opacity="0.85"/>
<path d="M146.026 90.2822V75.588C146.026 67.6006 139.518 61.1023 131.518 61.1023H125.761C126.229 60.08 126.492 58.9453 126.492 57.7499C126.492 53.2845 122.852 49.6515 118.378 49.6515H114.508C111.828 43.2456 111.827 36.9956 114.504 30.6285H118.378C122.852 30.6285 126.492 26.9918 126.492 22.5213C126.492 18.0558 122.852 14.4229 118.378 14.4229H67.6587C66.3479 14.4229 65.2857 15.485 65.2857 16.7959C65.2857 18.1068 66.3479 19.1689 67.6587 19.1689H118.378C120.235 19.1689 121.746 20.6728 121.746 22.5213C121.746 24.3745 120.235 25.8825 118.378 25.8825H16.7502C13.8491 25.8825 11.489 28.239 11.489 31.1361V49.1355C11.489 52.0372 13.8491 54.3979 16.7502 54.3979H118.378C120.235 54.3979 121.746 55.9018 121.746 57.7503C121.746 59.5987 120.235 61.1026 118.378 61.1026C118.378 61.1026 13.3732 61.1026 13.2524 61.1026C8.56227 61.1023 4.74609 57.2991 4.74609 52.6242V27.6474C4.74609 22.9728 8.56227 19.1693 13.2527 19.1693H56.6987C58.0096 19.1693 59.0718 18.1071 59.0718 16.7962C59.0718 15.4853 58.0096 14.4232 56.6987 14.4232H13.2527C5.94496 14.4232 0 20.3555 0 27.6474V52.6242C0 57.8132 3.01219 62.3116 7.38207 64.4758C6.21485 65.9651 5.51623 67.8379 5.51623 69.8718C5.51623 74.7024 9.45327 78.6321 14.293 78.6321H18.7971C21.9058 85.9158 21.9042 93.0618 18.7933 100.393H14.293C9.45327 100.393 5.51623 104.322 5.51623 109.153C5.51623 113.984 9.45327 117.914 14.293 117.914H41.5612L41.5625 122.315C41.4033 124.693 42.5541 125.63 43.2616 125.979C44.1387 126.412 45.5527 126.592 47.3065 125C47.3204 124.987 47.3344 124.975 47.348 124.961L54.4393 118.208L61.5385 124.962C61.5499 124.973 61.5616 124.984 61.573 124.995C62.6358 125.966 63.5761 126.28 64.3479 126.28C64.8449 126.28 65.2724 126.15 65.6176 125.981C66.3276 125.632 67.4831 124.695 67.3233 122.315L67.3246 117.914H79.5698C80.8807 117.914 81.9429 116.851 81.9429 115.541C81.9429 114.23 80.8807 113.168 79.5698 113.168H67.3259L67.3281 105.139H103.288C102.209 107.66 101.461 110.354 101.098 113.168H90.3682C89.0573 113.168 87.9951 114.23 87.9951 115.541C87.9951 116.851 89.0573 117.914 90.3682 117.914H100.86C101.304 134.347 114.842 147.578 131.419 147.578C148.282 147.578 162 133.897 162 117.079C162 105.531 155.535 95.4614 146.026 90.2822ZM16.7502 49.6518C16.4759 49.6518 16.2351 49.4104 16.2351 49.1355V31.1361C16.2351 30.8611 16.4708 30.6285 16.7502 30.6285H109.424C107.212 36.9396 107.214 43.3126 109.43 49.6515H16.7502V49.6518ZM14.293 73.886C12.0706 73.886 10.2623 72.0854 10.2623 69.8718C10.2623 67.6531 12.0706 65.8484 14.293 65.8484H131.518C136.901 65.8484 141.28 70.2176 141.28 75.588V88.1987C138.727 87.3285 136.023 86.7881 133.218 86.6252V79.4795C133.218 76.3951 130.706 73.8857 127.616 73.8857L14.293 73.886ZM14.293 113.167C12.0706 113.167 10.2623 111.367 10.2623 109.153C10.2623 106.939 12.0706 105.138 14.293 105.138H20.3364H41.5577L41.56 113.167H14.293V113.167ZM23.8884 100.393C24.9122 97.5592 25.5356 94.7198 25.7599 91.881H41.5539L41.5562 100.393H23.8884ZM62.5776 119.4L56.0738 113.212C55.1575 112.34 53.7176 112.34 52.8016 113.213L46.3073 119.398L46.3 91.8807H62.5852L62.5776 119.4ZM67.3287 100.393L67.3309 91.881H85.0136C86.3245 91.881 87.3867 90.8188 87.3867 89.5079C87.3867 88.1971 86.3245 87.1349 85.0136 87.1349H25.7624C25.5409 84.2936 24.9192 81.457 23.8953 78.6321H127.616C128.08 78.6321 128.472 79.0203 128.472 79.4798V86.7138C119.011 87.6212 110.797 92.8498 105.839 100.393H67.3287V100.393ZM131.42 142.832C117.179 142.832 105.594 131.279 105.594 117.079C105.594 102.874 117.179 91.3172 131.42 91.3172C145.665 91.3172 157.254 102.874 157.254 117.079C157.254 131.279 145.665 142.832 131.42 142.832Z" fill="#A9A9A9" fill-opacity="0.85"/>
</svg>
