<svg width="75" height="80" viewBox="0 0 75 80" fill="none" xmlns="http://www.w3.org/2000/svg">
<g clip-path="url(#clip0_6042_15075)">
<path d="M48.7579 23.1585C50.0135 25.9197 50.986 29.1306 51.6435 32.6213H64.6283C62.5309 27.171 58.9339 22.5035 54.2981 19.2171C49.6624 15.9307 44.1992 14.1751 38.6086 14.1753C42.5193 14.1753 46.1237 17.3657 48.7579 23.1585Z" fill="#FF2F43"/>
<path d="M12.5889 32.6213H25.5737C26.2314 29.1306 27.2038 25.9193 28.4594 23.1585C31.0935 17.3657 34.698 14.1753 38.6086 14.1753C33.0181 14.1751 27.5549 15.9307 22.9191 19.2171C18.2834 22.5035 14.6863 27.171 12.5889 32.6213Z" fill="#FF2F43"/>
<path d="M38.6086 16.6348C33.9631 16.6348 29.8461 23.2915 27.9785 32.6213H49.2387C47.3711 23.2915 43.2541 16.6348 38.6086 16.6348Z" fill="#FF2F43"/>
<path d="M24.5778 43.6892C24.5741 40.8084 24.772 37.9313 25.1697 35.0811H11.761C10.1423 40.6936 10.1423 46.6848 11.761 52.2974H25.1697C24.772 49.4471 24.5741 46.57 24.5778 43.6892Z" fill="#FF2F43"/>
<path d="M21.0701 15.4053V10.4863C17.9702 10.49 14.9983 11.7868 12.8063 14.0922C10.6143 16.3976 9.38133 19.5234 9.37781 22.7837H14.0547C14.0568 20.8275 14.7966 18.952 16.1118 17.5687C17.427 16.1855 19.2102 15.4074 21.0701 15.4053Z" fill="#FF2F43"/>
<path d="M21.0701 5.56738V0.648438C9.46548 0.648438 0.0239258 10.5786 0.0239258 22.7837H4.70086C4.70577 18.2192 6.43196 13.8432 9.50073 10.6156C12.5695 7.38806 16.7302 5.57255 21.0701 5.56738Z" fill="#FF2F43"/>
<path d="M36.4163 54.7568H27.9785C28.682 58.271 29.7046 61.4056 30.9542 63.9491L36.4163 54.7568Z" fill="#FF2F43"/>
<path d="M45.2218 39.9385C46.275 38.1544 47.9151 36.8397 49.83 36.2448C49.7797 35.8536 49.7262 35.4655 49.6692 35.0806H27.5484C26.7056 40.7851 26.7056 46.5923 27.5484 52.2969H37.8778L45.2218 39.9385Z" fill="#FF2F43"/>
<path d="M52.1548 35.8933H52.1621C53.5511 35.8886 54.9182 36.2579 56.1332 36.9661C57.3481 37.6743 58.3705 38.6978 59.1029 39.9391L65.7639 51.1482C67.0692 45.8647 66.9628 40.3049 65.4563 35.0811H52.0475C52.0855 35.3501 52.1203 35.6217 52.1548 35.8933Z" fill="#FF2F43"/>
<path d="M28.4594 64.2197C27.2038 61.4584 26.2312 58.2476 25.5737 54.7568H12.5889C15.334 61.8688 20.597 67.5822 27.2688 70.693C27.4827 69.9712 27.7843 69.2814 28.1659 68.6407L29.5326 66.3408C29.1596 65.6782 28.8019 64.9711 28.4594 64.2197Z" fill="#FF2F43"/>
<path d="M74.1758 69.9442L57.1196 41.2424C56.5941 40.3581 55.8634 39.6289 54.9961 39.1233C54.1289 38.6178 53.1536 38.3525 52.1621 38.3525C51.1706 38.3525 50.1953 38.6178 49.3281 39.1233C48.4608 39.6289 47.7301 40.3581 47.2046 41.2424L30.1489 69.9442C29.5959 70.8749 29.2897 71.9444 29.2623 73.0416C29.2349 74.1388 29.4873 75.2237 29.9932 76.1837C30.4991 77.1436 31.2401 77.9437 32.1392 78.5008C33.0384 79.0579 34.0629 79.3517 35.1065 79.3516H69.2189C70.2624 79.3516 71.287 79.0578 72.1861 78.5007C73.0852 77.9436 73.8262 77.1436 74.3321 76.1836C74.838 75.2236 75.0903 74.1387 75.0629 73.0415C75.0355 71.9444 74.7294 70.8749 74.1763 69.9442H74.1758ZM54.5009 71.9732H49.8239V67.0543H54.5009V71.9732ZM54.5009 62.1353H49.8239V52.2975H54.5009V62.1353Z" fill="#FF2F43"/>
</g>
<defs>
<clipPath id="clip0_6042_15075">
<rect width="74.8309" height="78.7031" fill="white" transform="translate(0.0239258 0.648438)"/>
</clipPath>
</defs>
</svg>
