<svg width="17" height="19" viewBox="0 0 17 19" fill="none" xmlns="http://www.w3.org/2000/svg">
<g clip-path="url(#clip0_5852_15244)">
<g filter="url(#filter0_iiiii_5852_15244)">
<g clip-path="url(#clip1_5852_15244)">
<rect x="0.885742" y="1.5708" width="16.1137" height="16.1137" fill="white"/>
<mask id="mask0_5852_15244" style="mask-type:alpha" maskUnits="userSpaceOnUse" x="0" y="1" width="17" height="17">
<rect x="0.885742" y="1.5708" width="16.1137" height="16.1137" fill="#EBEBEB"/>
</mask>
<g mask="url(#mask0_5852_15244)">
<g opacity="0.1" filter="url(#filter1_f_5852_15244)">
<path d="M-0.705078 20.0814L18.6113 12.1655V23.8077H-0.705078V20.0814Z" fill="black"/>
</g>
<g opacity="0.1" filter="url(#filter2_f_5852_15244)">
<path d="M-4.45215 4.79346H18.4999L6.19299 20.7259H-4.45215V4.79346Z" fill="black"/>
</g>
<g opacity="0.3">
<rect opacity="0.1" x="0.885742" y="2.83984" width="16.1137" height="0.0805687" fill="black"/>
<rect opacity="0.1" x="0.885742" y="4.18945" width="16.1137" height="0.0805687" fill="black"/>
<rect opacity="0.1" x="0.885742" y="5.53857" width="16.1137" height="0.0805687" fill="black"/>
<rect opacity="0.1" x="0.885742" y="6.88818" width="16.1137" height="0.0805687" fill="black"/>
<rect opacity="0.1" x="0.885742" y="8.23779" width="16.1137" height="0.0805687" fill="black"/>
<rect opacity="0.1" x="0.885742" y="9.5874" width="16.1137" height="0.0805687" fill="black"/>
<rect opacity="0.1" x="0.885742" y="10.937" width="16.1137" height="0.0805687" fill="black"/>
<rect opacity="0.1" x="0.885742" y="12.2866" width="16.1137" height="0.0805687" fill="black"/>
<rect opacity="0.1" x="0.885742" y="13.6362" width="16.1137" height="0.0805687" fill="black"/>
<rect opacity="0.1" x="0.885742" y="14.9854" width="16.1137" height="0.0805687" fill="black"/>
<rect opacity="0.1" x="0.885742" y="16.335" width="16.1137" height="0.0805687" fill="black"/>
</g>
</g>
<g filter="url(#filter3_ddii_5852_15244)">
<path d="M0.885742 1.5708H16.9995V6.31311C16.9995 7.27467 16.6175 8.19686 15.9376 8.87679L8.19173 16.6226C7.5118 17.3026 6.58961 17.6845 5.62805 17.6845H0.885742V1.5708Z" fill="white"/>
</g>
<mask id="mask1_5852_15244" style="mask-type:alpha" maskUnits="userSpaceOnUse" x="0" y="1" width="17" height="17">
<path d="M0.885742 1.5708H16.9995V6.31311C16.9995 7.27467 16.6175 8.19686 15.9376 8.87679L8.19173 16.6226C7.5118 17.3026 6.58961 17.6845 5.62805 17.6845H0.885742V1.5708Z" fill="#F8F8F8"/>
</mask>
<g mask="url(#mask1_5852_15244)">
<g opacity="0.3" filter="url(#filter4_f_5852_15244)">
<path d="M-0.705078 18.2382L18.6113 10.4331V19.6381H-0.705078V18.2382Z" fill="black"/>
</g>
<g opacity="0.3" filter="url(#filter5_f_5852_15244)">
<path d="M2.6582 18.5103L15.7305 14.6934V19.6383H2.6582V18.5103Z" fill="black"/>
</g>
<g opacity="0.3" filter="url(#filter6_f_5852_15244)">
<path d="M0.50293 2.27539H19.6581L0.50293 21.4306V2.27539Z" fill="white"/>
</g>
</g>
<g filter="url(#filter7_dd_5852_15244)">
<path d="M0.885742 1.5708H16.9995V6.00208C16.9995 8.00444 15.3762 9.62767 13.3739 9.62767H12.5682C10.5658 9.62767 8.94261 11.2509 8.94261 13.2533V14.0589C8.94261 16.0613 7.31938 17.6845 5.31702 17.6845H0.885742V1.5708Z" fill="white"/>
</g>
<mask id="mask2_5852_15244" style="mask-type:alpha" maskUnits="userSpaceOnUse" x="0" y="1" width="17" height="17">
<path d="M0.885742 1.5708H16.9995V6.00208C16.9995 8.00444 15.3762 9.62767 13.3739 9.62767H12.5682C10.5658 9.62767 8.94261 11.2509 8.94261 13.2533V14.0589C8.94261 16.0613 7.31938 17.6845 5.31702 17.6845H0.885742V1.5708Z" fill="white"/>
</mask>
<g mask="url(#mask2_5852_15244)">
<g opacity="0.04">
<rect x="0.885742" y="5.53906" width="16.1137" height="0.0805687" fill="black"/>
<rect x="0.885742" y="6.88867" width="16.1137" height="0.0805687" fill="black"/>
<rect x="0.885742" y="8.23779" width="16.1137" height="0.0805687" fill="black"/>
<rect x="0.885742" y="9.5874" width="16.1137" height="0.0805687" fill="black"/>
<rect x="0.885742" y="10.937" width="16.1137" height="0.0805687" fill="black"/>
<rect x="0.885742" y="12.2866" width="16.1137" height="0.0805687" fill="black"/>
<rect x="0.885742" y="13.6362" width="16.1137" height="0.0805687" fill="black"/>
<rect x="0.885742" y="14.9858" width="16.1137" height="0.0805687" fill="black"/>
<rect x="0.885742" y="16.3354" width="16.1137" height="0.0805687" fill="black"/>
</g>
<rect x="0.885742" y="1.5708" width="16.1137" height="3.96801" fill="#F89300"/>
<g opacity="0.2" filter="url(#filter8_f_5852_15244)">
<path d="M-0.706055 16.0234L18.6103 8.21826V19.6389H-0.706055V16.0234Z" fill="black"/>
</g>
<g opacity="0.2" filter="url(#filter9_f_5852_15244)">
<path d="M1.60059 19.1752L20.9169 11.3701V19.7694H1.60059V19.1752Z" fill="black"/>
</g>
<g opacity="0.4" filter="url(#filter10_f_5852_15244)">
<path d="M-0.585938 21.6231L19.5562 1.48096V21.6231H-0.585938Z" fill="white"/>
</g>
<g opacity="0.4" filter="url(#filter11_f_5852_15244)">
<path d="M-6.40625 -2.37695H12.749L-6.40625 16.7783V-2.37695Z" fill="white"/>
</g>
<g opacity="0.4" filter="url(#filter12_f_5852_15244)">
<path d="M-6.40625 -2.37695H12.749L-6.40625 16.7783V-2.37695Z" fill="white"/>
</g>
<mask id="mask3_5852_15244" style="mask-type:alpha" maskUnits="userSpaceOnUse" x="0" y="1" width="11" height="18">
<path d="M0.794922 18.853L6.00167 1.09766H10.2819V18.853H0.794922Z" fill="#D9D9D9" stroke="black" stroke-width="0.0201422"/>
</mask>
<g mask="url(#mask3_5852_15244)">
<g opacity="0.5" filter="url(#filter13_f_5852_15244)">
<path d="M4.49287 2.17467C4.66562 1.52996 5.3283 1.14737 5.97301 1.32011C6.61772 1.49286 7.00032 2.15555 6.82757 2.80026L3.93837 13.5829C3.86978 13.8389 3.77506 14.0872 3.6557 14.3238L1.689 18.2225C1.57097 18.4565 1.2171 18.3617 1.23187 18.1001L1.47804 13.7403C1.49298 13.4757 1.53508 13.2133 1.60367 12.9573L4.49287 2.17467Z" fill="black"/>
</g>
</g>
</g>
<g opacity="0.1">
<mask id="mask4_5852_15244" style="mask-type:alpha" maskUnits="userSpaceOnUse" x="0" y="1" width="801" height="801">
<rect x="0.886719" y="1.57129" width="800" height="800" fill="url(#paint0_linear_5852_15244)"/>
</mask>
<g mask="url(#mask4_5852_15244)">
<rect x="0.886719" y="1.57129" width="800" height="800" fill="black"/>
</g>
</g>
<path d="M4.35227 6.54545V8H4.17614V6.54545H4.35227ZM6.05884 6.54545V8H5.88839L5.09577 6.85795H5.08157V8H4.90543V6.54545H5.07589L5.87134 7.69034H5.88555V6.54545H6.05884ZM7.063 6.90909V7.05114H6.49766V6.90909H7.063ZM6.66243 6.64773H6.83004V7.6875C6.83004 7.73485 6.83691 7.77036 6.85064 7.79403C6.86484 7.81723 6.88284 7.83286 6.90462 7.84091C6.92687 7.84848 6.95031 7.85227 6.97493 7.85227C6.9934 7.85227 7.00855 7.85133 7.02038 7.84943C7.03222 7.84706 7.04169 7.84517 7.04879 7.84375L7.08288 7.99432C7.07152 7.99858 7.05566 8.00284 7.0353 8.0071C7.01494 8.01184 6.98913 8.0142 6.95788 8.0142C6.91054 8.0142 6.86413 8.00402 6.81868 7.98366C6.7737 7.9633 6.73629 7.93229 6.70646 7.89062C6.67711 7.84896 6.66243 7.7964 6.66243 7.73295V6.64773ZM7.9608 8.02273C7.85568 8.02273 7.76501 7.99953 7.68878 7.95312C7.61302 7.90625 7.55455 7.84091 7.51335 7.7571C7.47263 7.67282 7.45227 7.57481 7.45227 7.46307C7.45227 7.35133 7.47263 7.25284 7.51335 7.16761C7.55455 7.08191 7.61184 7.01515 7.68523 6.96733C7.75909 6.91903 7.84527 6.89489 7.94375 6.89489C8.00057 6.89489 8.05668 6.90436 8.11207 6.9233C8.16747 6.94223 8.2179 6.97301 8.26335 7.01562C8.30881 7.05777 8.34503 7.11364 8.37202 7.18324C8.39901 7.25284 8.4125 7.33854 8.4125 7.44034V7.51136H7.57159V7.36648H8.24205C8.24205 7.30492 8.22973 7.25 8.20511 7.2017C8.18097 7.15341 8.1464 7.11529 8.10142 7.08736C8.05691 7.05942 8.00436 7.04545 7.94375 7.04545C7.87699 7.04545 7.81922 7.06203 7.77045 7.09517C7.72216 7.12784 7.68499 7.17045 7.65895 7.22301C7.63291 7.27557 7.61989 7.33191 7.61989 7.39205V7.48864C7.61989 7.57102 7.63409 7.64086 7.6625 7.69815C7.69138 7.75497 7.73139 7.7983 7.78253 7.82812C7.83366 7.85748 7.89309 7.87216 7.9608 7.87216C8.00483 7.87216 8.0446 7.866 8.08011 7.85369C8.1161 7.84091 8.14711 7.82197 8.17315 7.79688C8.1992 7.77131 8.21932 7.73958 8.23352 7.7017L8.39545 7.74716C8.37841 7.80208 8.34976 7.85038 8.30952 7.89205C8.26927 7.93324 8.21955 7.96544 8.16037 7.98864C8.10118 8.01136 8.03466 8.02273 7.9608 8.02273ZM8.86747 8V6.90909H9.0294V7.07386H9.04077C9.06065 7.01989 9.09664 6.97609 9.14872 6.94247C9.20081 6.90885 9.25952 6.89205 9.32486 6.89205C9.33717 6.89205 9.35256 6.89228 9.37102 6.89276C9.38949 6.89323 9.40346 6.89394 9.41293 6.89489V7.06534C9.40724 7.06392 9.39422 7.06179 9.37386 7.05895C9.35398 7.05563 9.33291 7.05398 9.31065 7.05398C9.25762 7.05398 9.21027 7.0651 9.16861 7.08736C9.12741 7.10914 9.09474 7.13944 9.0706 7.17827C9.04692 7.21662 9.03509 7.26042 9.03509 7.30966V8H8.86747ZM10.3658 6.90909V7.05114H9.7777V6.90909H10.3658ZM9.95384 8V6.75852C9.95384 6.69602 9.96851 6.64394 9.99787 6.60227C10.0272 6.56061 10.0653 6.52936 10.1122 6.50852C10.1591 6.48769 10.2086 6.47727 10.2607 6.47727C10.3018 6.47727 10.3355 6.48059 10.3615 6.48722C10.3875 6.49384 10.407 6.5 10.4197 6.50568L10.3714 6.65057C10.3629 6.64773 10.3511 6.64418 10.3359 6.63991C10.3213 6.63565 10.3018 6.63352 10.2777 6.63352C10.2223 6.63352 10.1823 6.64749 10.1577 6.67543C10.1335 6.70336 10.1214 6.74432 10.1214 6.7983V8H9.95384ZM11.1961 8.43182C11.1151 8.43182 11.0455 8.4214 10.9873 8.40057C10.929 8.38021 10.8805 8.35322 10.8417 8.3196C10.8033 8.28646 10.7728 8.25095 10.7501 8.21307L10.8836 8.11932C10.8987 8.1392 10.9179 8.16193 10.9411 8.1875C10.9643 8.21354 10.996 8.23603 11.0363 8.25497C11.077 8.27438 11.1303 8.28409 11.1961 8.28409C11.2842 8.28409 11.3568 8.26278 11.4141 8.22017C11.4714 8.17756 11.5001 8.1108 11.5001 8.01989V7.7983H11.4859C11.4736 7.81818 11.456 7.8428 11.4333 7.87216C11.4111 7.90104 11.3789 7.92685 11.3367 7.94957C11.2951 7.97183 11.2387 7.98295 11.1677 7.98295C11.0796 7.98295 11.0005 7.96212 10.9305 7.92045C10.8609 7.87879 10.8057 7.81818 10.765 7.73864C10.7247 7.65909 10.7046 7.5625 10.7046 7.44886C10.7046 7.33712 10.7243 7.23982 10.7636 7.15696C10.8029 7.07363 10.8576 7.00923 10.9276 6.96378C10.9977 6.91785 11.0787 6.89489 11.1705 6.89489C11.2415 6.89489 11.2979 6.90672 11.3396 6.9304C11.3817 6.9536 11.4139 6.98011 11.4362 7.00994C11.4589 7.0393 11.4764 7.06345 11.4887 7.08239H11.5058V6.90909H11.6677V8.03125C11.6677 8.125 11.6464 8.20123 11.6038 8.25994C11.5616 8.31913 11.5048 8.36245 11.4333 8.38991C11.3623 8.41785 11.2832 8.43182 11.1961 8.43182ZM11.1904 7.83239C11.2576 7.83239 11.3145 7.817 11.3609 7.78622C11.4073 7.75545 11.4425 7.71117 11.4667 7.65341C11.4908 7.59564 11.5029 7.52652 11.5029 7.44602C11.5029 7.36742 11.4911 7.29806 11.4674 7.23793C11.4437 7.17779 11.4087 7.13068 11.3623 7.09659C11.3159 7.0625 11.2586 7.04545 11.1904 7.04545C11.1194 7.04545 11.0602 7.06345 11.0129 7.09943C10.966 7.13542 10.9307 7.18371 10.907 7.24432C10.8838 7.30492 10.8722 7.37216 10.8722 7.44602C10.8722 7.52178 10.8841 7.58878 10.9077 7.64702C10.9319 7.70478 10.9674 7.75024 11.0143 7.78338C11.0616 7.81605 11.1203 7.83239 11.1904 7.83239ZM12.6603 6.90909V7.05114H12.0722V6.90909H12.6603ZM12.2484 8V6.75852C12.2484 6.69602 12.263 6.64394 12.2924 6.60227C12.3218 6.56061 12.3599 6.52936 12.4067 6.50852C12.4536 6.48769 12.5031 6.47727 12.5552 6.47727C12.5964 6.47727 12.63 6.48059 12.656 6.48722C12.6821 6.49384 12.7015 6.5 12.7143 6.50568L12.666 6.65057C12.6575 6.64773 12.6456 6.64418 12.6305 6.63991C12.6158 6.63565 12.5964 6.63352 12.5722 6.63352C12.5168 6.63352 12.4768 6.64749 12.4522 6.67543C12.4281 6.70336 12.416 6.74432 12.416 6.7983V8H12.2484ZM13.4622 8.02273C13.3713 8.02273 13.2911 7.99976 13.2214 7.95384C13.1518 7.90743 13.0974 7.84209 13.0581 7.75781C13.0188 7.67306 12.9991 7.57292 12.9991 7.45739C12.9991 7.3428 13.0188 7.24337 13.0581 7.15909C13.0974 7.07481 13.1521 7.00971 13.2222 6.96378C13.2922 6.91785 13.3732 6.89489 13.4651 6.89489C13.5361 6.89489 13.5922 6.90672 13.6334 6.9304C13.675 6.9536 13.7068 6.98011 13.7286 7.00994C13.7508 7.0393 13.7681 7.06345 13.7804 7.08239H13.7946V6.54545H13.9622V8H13.8003V7.83239H13.7804C13.7681 7.85227 13.7506 7.87737 13.7278 7.90767C13.7051 7.9375 13.6727 7.96425 13.6305 7.98793C13.5884 8.01113 13.5323 8.02273 13.4622 8.02273ZM13.4849 7.87216C13.5522 7.87216 13.609 7.85464 13.6554 7.8196C13.7018 7.78409 13.7371 7.73509 13.7612 7.67259C13.7854 7.60961 13.7974 7.53693 13.7974 7.45455C13.7974 7.37311 13.7856 7.30185 13.7619 7.24077C13.7383 7.17921 13.7032 7.13139 13.6568 7.0973C13.6104 7.06274 13.5531 7.04545 13.4849 7.04545C13.4139 7.04545 13.3547 7.06368 13.3074 7.10014C13.2605 7.13613 13.2252 7.18513 13.2016 7.24716C13.1784 7.30871 13.1668 7.37784 13.1668 7.45455C13.1668 7.5322 13.1786 7.60275 13.2023 7.66619C13.2264 7.72917 13.2619 7.77936 13.3088 7.81676C13.3562 7.85369 13.4149 7.87216 13.4849 7.87216ZM14.9328 8.43182C14.8518 8.43182 14.7822 8.4214 14.724 8.40057C14.6658 8.38021 14.6172 8.35322 14.5784 8.3196C14.5401 8.28646 14.5095 8.25095 14.4868 8.21307L14.6203 8.11932C14.6355 8.1392 14.6546 8.16193 14.6778 8.1875C14.701 8.21354 14.7328 8.23603 14.773 8.25497C14.8137 8.27438 14.867 8.28409 14.9328 8.28409C15.0209 8.28409 15.0936 8.26278 15.1509 8.22017C15.2081 8.17756 15.2368 8.1108 15.2368 8.01989V7.7983H15.2226C15.2103 7.81818 15.1928 7.8428 15.17 7.87216C15.1478 7.90104 15.1156 7.92685 15.0734 7.94957C15.0318 7.97183 14.9754 7.98295 14.9044 7.98295C14.8163 7.98295 14.7373 7.96212 14.6672 7.92045C14.5976 7.87879 14.5424 7.81818 14.5017 7.73864C14.4615 7.65909 14.4413 7.5625 14.4413 7.44886C14.4413 7.33712 14.461 7.23982 14.5003 7.15696C14.5396 7.07363 14.5943 7.00923 14.6643 6.96378C14.7344 6.91785 14.8154 6.89489 14.9072 6.89489C14.9783 6.89489 15.0346 6.90672 15.0763 6.9304C15.1184 6.9536 15.1506 6.98011 15.1729 7.00994C15.1956 7.0393 15.2131 7.06345 15.2254 7.08239H15.2425V6.90909H15.4044V8.03125C15.4044 8.125 15.3831 8.20123 15.3405 8.25994C15.2983 8.31913 15.2415 8.36245 15.17 8.38991C15.099 8.41785 15.0199 8.43182 14.9328 8.43182ZM14.9271 7.83239C14.9944 7.83239 15.0512 7.817 15.0976 7.78622C15.144 7.75545 15.1793 7.71117 15.2034 7.65341C15.2276 7.59564 15.2396 7.52652 15.2396 7.44602C15.2396 7.36742 15.2278 7.29806 15.2041 7.23793C15.1804 7.17779 15.1454 7.13068 15.099 7.09659C15.0526 7.0625 14.9953 7.04545 14.9271 7.04545C14.8561 7.04545 14.7969 7.06345 14.7496 7.09943C14.7027 7.13542 14.6674 7.18371 14.6438 7.24432C14.6205 7.30492 14.6089 7.37216 14.6089 7.44602C14.6089 7.52178 14.6208 7.58878 14.6445 7.64702C14.6686 7.70478 14.7041 7.75024 14.751 7.78338C14.7983 7.81605 14.8571 7.83239 14.9271 7.83239Z" fill="black"/>
<path d="M4.35227 8.54545V10H4.17614V8.54545H4.35227ZM6.05884 8.54545V10H5.88839L5.09577 8.85795H5.08157V10H4.90543V8.54545H5.07589L5.87134 9.69034H5.88555V8.54545H6.05884ZM7.063 8.90909V9.05114H6.49766V8.90909H7.063ZM6.66243 8.64773H6.83004V9.6875C6.83004 9.73485 6.83691 9.77036 6.85064 9.79403C6.86484 9.81723 6.88284 9.83286 6.90462 9.84091C6.92687 9.84848 6.95031 9.85227 6.97493 9.85227C6.9934 9.85227 7.00855 9.85133 7.02038 9.84943C7.03222 9.84706 7.04169 9.84517 7.04879 9.84375L7.08288 9.99432C7.07152 9.99858 7.05566 10.0028 7.0353 10.0071C7.01494 10.0118 6.98913 10.0142 6.95788 10.0142C6.91054 10.0142 6.86413 10.004 6.81868 9.98366C6.7737 9.9633 6.73629 9.93229 6.70646 9.89062C6.67711 9.84896 6.66243 9.7964 6.66243 9.73295V8.64773ZM7.9608 10.0227C7.85568 10.0227 7.76501 9.99953 7.68878 9.95312C7.61302 9.90625 7.55455 9.84091 7.51335 9.7571C7.47263 9.67282 7.45227 9.57481 7.45227 9.46307C7.45227 9.35133 7.47263 9.25284 7.51335 9.16761C7.55455 9.08191 7.61184 9.01515 7.68523 8.96733C7.75909 8.91903 7.84527 8.89489 7.94375 8.89489C8.00057 8.89489 8.05668 8.90436 8.11207 8.9233C8.16747 8.94223 8.2179 8.97301 8.26335 9.01562C8.30881 9.05777 8.34503 9.11364 8.37202 9.18324C8.39901 9.25284 8.4125 9.33854 8.4125 9.44034V9.51136H7.57159V9.36648H8.24205C8.24205 9.30492 8.22973 9.25 8.20511 9.2017C8.18097 9.15341 8.1464 9.11529 8.10142 9.08736C8.05691 9.05942 8.00436 9.04545 7.94375 9.04545C7.87699 9.04545 7.81922 9.06203 7.77045 9.09517C7.72216 9.12784 7.68499 9.17045 7.65895 9.22301C7.63291 9.27557 7.61989 9.33191 7.61989 9.39205V9.48864C7.61989 9.57102 7.63409 9.64086 7.6625 9.69815C7.69138 9.75497 7.73139 9.7983 7.78253 9.82812C7.83366 9.85748 7.89309 9.87216 7.9608 9.87216C8.00483 9.87216 8.0446 9.866 8.08011 9.85369C8.1161 9.84091 8.14711 9.82197 8.17315 9.79688C8.1992 9.77131 8.21932 9.73958 8.23352 9.7017L8.39545 9.74716C8.37841 9.80208 8.34976 9.85038 8.30952 9.89205C8.26927 9.93324 8.21955 9.96544 8.16037 9.98864C8.10118 10.0114 8.03466 10.0227 7.9608 10.0227ZM8.86747 10V8.90909H9.0294V9.07386H9.04077C9.06065 9.01989 9.09664 8.97609 9.14872 8.94247C9.20081 8.90885 9.25952 8.89205 9.32486 8.89205C9.33717 8.89205 9.35256 8.89228 9.37102 8.89276C9.38949 8.89323 9.40346 8.89394 9.41293 8.89489V9.06534C9.40724 9.06392 9.39422 9.06179 9.37386 9.05895C9.35398 9.05563 9.33291 9.05398 9.31065 9.05398C9.25762 9.05398 9.21027 9.0651 9.16861 9.08736C9.12741 9.10914 9.09474 9.13944 9.0706 9.17827C9.04692 9.21662 9.03509 9.26042 9.03509 9.30966V10H8.86747ZM10.3658 8.90909V9.05114H9.7777V8.90909H10.3658ZM9.95384 10V8.75852C9.95384 8.69602 9.96851 8.64394 9.99787 8.60227C10.0272 8.56061 10.0653 8.52936 10.1122 8.50852C10.1591 8.48769 10.2086 8.47727 10.2607 8.47727C10.3018 8.47727 10.3355 8.48059 10.3615 8.48722C10.3875 8.49384 10.407 8.5 10.4197 8.50568L10.3714 8.65057C10.3629 8.64773 10.3511 8.64418 10.3359 8.63991C10.3213 8.63565 10.3018 8.63352 10.2777 8.63352C10.2223 8.63352 10.1823 8.64749 10.1577 8.67543C10.1335 8.70336 10.1214 8.74432 10.1214 8.7983V10H9.95384ZM4.59375 12.4318C4.51278 12.4318 4.44318 12.4214 4.38494 12.4006C4.3267 12.3802 4.27817 12.3532 4.23935 12.3196C4.20099 12.2865 4.17045 12.2509 4.14773 12.2131L4.28125 12.1193C4.2964 12.1392 4.31558 12.1619 4.33878 12.1875C4.36198 12.2135 4.3937 12.236 4.43395 12.255C4.47467 12.2744 4.52794 12.2841 4.59375 12.2841C4.68182 12.2841 4.7545 12.2628 4.81179 12.2202C4.86908 12.1776 4.89773 12.1108 4.89773 12.0199V11.7983H4.88352C4.87121 11.8182 4.85369 11.8428 4.83097 11.8722C4.80871 11.901 4.77652 11.9268 4.73438 11.9496C4.69271 11.9718 4.63636 11.983 4.56534 11.983C4.47727 11.983 4.3982 11.9621 4.32812 11.9205C4.25852 11.8788 4.20336 11.8182 4.16264 11.7386C4.1224 11.6591 4.10227 11.5625 4.10227 11.4489C4.10227 11.3371 4.12192 11.2398 4.16122 11.157C4.20052 11.0736 4.25521 11.0092 4.32528 10.9638C4.39536 10.9179 4.47633 10.8949 4.56818 10.8949C4.6392 10.8949 4.69555 10.9067 4.73722 10.9304C4.77936 10.9536 4.81155 10.9801 4.83381 11.0099C4.85653 11.0393 4.87405 11.0634 4.88636 11.0824H4.90341V10.9091H5.06534V12.0312C5.06534 12.125 5.04403 12.2012 5.00142 12.2599C4.95928 12.3191 4.90246 12.3625 4.83097 12.3899C4.75994 12.4179 4.68087 12.4318 4.59375 12.4318ZM4.58807 11.8324C4.6553 11.8324 4.71212 11.817 4.75852 11.7862C4.80492 11.7554 4.8402 11.7112 4.86435 11.6534C4.88849 11.5956 4.90057 11.5265 4.90057 11.446C4.90057 11.3674 4.88873 11.2981 4.86506 11.2379C4.84138 11.1778 4.80634 11.1307 4.75994 11.0966C4.71354 11.0625 4.65625 11.0455 4.58807 11.0455C4.51705 11.0455 4.45786 11.0634 4.41051 11.0994C4.36364 11.1354 4.32836 11.1837 4.30469 11.2443C4.28149 11.3049 4.26989 11.3722 4.26989 11.446C4.26989 11.5218 4.28172 11.5888 4.3054 11.647C4.32955 11.7048 4.36506 11.7502 4.41193 11.7834C4.45928 11.8161 4.51799 11.8324 4.58807 11.8324ZM6.05795 10.9091V11.0511H5.46989V10.9091H6.05795ZM5.64602 12V10.7585C5.64602 10.696 5.6607 10.6439 5.69006 10.6023C5.71941 10.5606 5.75753 10.5294 5.8044 10.5085C5.85128 10.4877 5.90076 10.4773 5.95284 10.4773C5.99403 10.4773 6.02765 10.4806 6.05369 10.4872C6.07973 10.4938 6.09915 10.5 6.11193 10.5057L6.06364 10.6506C6.05511 10.6477 6.04328 10.6442 6.02813 10.6399C6.01345 10.6357 5.99403 10.6335 5.96989 10.6335C5.91449 10.6335 5.87448 10.6475 5.84986 10.6754C5.82571 10.7034 5.81364 10.7443 5.81364 10.7983V12H5.64602ZM6.85987 12.0227C6.76896 12.0227 6.68871 11.9998 6.61911 11.9538C6.5495 11.9074 6.49505 11.8421 6.45575 11.7578C6.41645 11.6731 6.3968 11.5729 6.3968 11.4574C6.3968 11.3428 6.41645 11.2434 6.45575 11.1591C6.49505 11.0748 6.54974 11.0097 6.61982 10.9638C6.68989 10.9179 6.77086 10.8949 6.86271 10.8949C6.93374 10.8949 6.98984 10.9067 7.03104 10.9304C7.0727 10.9536 7.10443 10.9801 7.12621 11.0099C7.14846 11.0393 7.16574 11.0634 7.17805 11.0824H7.19226V10.5455H7.35987V12H7.19794V11.8324H7.17805C7.16574 11.8523 7.14822 11.8774 7.1255 11.9077C7.10277 11.9375 7.07034 11.9643 7.0282 11.9879C6.98606 12.0111 6.92995 12.0227 6.85987 12.0227ZM6.8826 11.8722C6.94983 11.8722 7.00665 11.8546 7.05305 11.8196C7.09946 11.7841 7.13473 11.7351 7.15888 11.6726C7.18303 11.6096 7.1951 11.5369 7.1951 11.4545C7.1951 11.3731 7.18326 11.3018 7.15959 11.2408C7.13591 11.1792 7.10088 11.1314 7.05447 11.0973C7.00807 11.0627 6.95078 11.0455 6.8826 11.0455C6.81158 11.0455 6.75239 11.0637 6.70504 11.1001C6.65817 11.1361 6.62289 11.1851 6.59922 11.2472C6.57602 11.3087 6.56442 11.3778 6.56442 11.4545C6.56442 11.5322 6.57625 11.6027 6.59993 11.6662C6.62408 11.7292 6.65959 11.7794 6.70646 11.8168C6.75381 11.8537 6.81252 11.8722 6.8826 11.8722ZM8.33047 12.4318C8.2495 12.4318 8.1799 12.4214 8.12166 12.4006C8.06342 12.3802 8.01489 12.3532 7.97607 12.3196C7.93771 12.2865 7.90717 12.2509 7.88445 12.2131L8.01797 12.1193C8.03312 12.1392 8.0523 12.1619 8.0755 12.1875C8.0987 12.2135 8.13042 12.236 8.17067 12.255C8.21139 12.2744 8.26465 12.2841 8.33047 12.2841C8.41854 12.2841 8.49122 12.2628 8.54851 12.2202C8.6058 12.1776 8.63445 12.1108 8.63445 12.0199V11.7983H8.62024C8.60793 11.8182 8.59041 11.8428 8.56768 11.8722C8.54543 11.901 8.51323 11.9268 8.47109 11.9496C8.42943 11.9718 8.37308 11.983 8.30206 11.983C8.21399 11.983 8.13492 11.9621 8.06484 11.9205C7.99524 11.8788 7.94008 11.8182 7.89936 11.7386C7.85911 11.6591 7.83899 11.5625 7.83899 11.4489C7.83899 11.3371 7.85864 11.2398 7.89794 11.157C7.93724 11.0736 7.99193 11.0092 8.062 10.9638C8.13208 10.9179 8.21304 10.8949 8.3049 10.8949C8.37592 10.8949 8.43227 10.9067 8.47393 10.9304C8.51607 10.9536 8.54827 10.9801 8.57053 11.0099C8.59325 11.0393 8.61077 11.0634 8.62308 11.0824H8.64013V10.9091H8.80206V12.0312C8.80206 12.125 8.78075 12.2012 8.73814 12.2599C8.696 12.3191 8.63918 12.3625 8.56768 12.3899C8.49666 12.4179 8.41759 12.4318 8.33047 12.4318ZM8.32479 11.8324C8.39202 11.8324 8.44884 11.817 8.49524 11.7862C8.54164 11.7554 8.57692 11.7112 8.60107 11.6534C8.62521 11.5956 8.63729 11.5265 8.63729 11.446C8.63729 11.3674 8.62545 11.2981 8.60178 11.2379C8.5781 11.1778 8.54306 11.1307 8.49666 11.0966C8.45026 11.0625 8.39297 11.0455 8.32479 11.0455C8.25376 11.0455 8.19458 11.0634 8.14723 11.0994C8.10036 11.1354 8.06508 11.1837 8.04141 11.2443C8.01821 11.3049 8.00661 11.3722 8.00661 11.446C8.00661 11.5218 8.01844 11.5888 8.04212 11.647C8.06626 11.7048 8.10178 11.7502 8.14865 11.7834C8.196 11.8161 8.25471 11.8324 8.32479 11.8324Z" fill="black"/>
</g>
</g>
<g filter="url(#filter14_iii_5852_15244)">
<path d="M4.49385 1.16735C4.6666 0.522641 5.32928 0.140041 5.97399 0.312791C6.6187 0.48554 7.0013 1.14822 6.82855 1.79293L3.93934 12.5756C3.87075 12.8316 3.77604 13.0798 3.65668 13.3164L1.68997 17.2152C1.57195 17.4492 1.21807 17.3544 1.23285 17.0927L1.47902 12.7329C1.49396 12.4684 1.53605 12.206 1.60464 11.95L4.49385 1.16735Z" fill="white"/>
</g>
<g filter="url(#filter15_if_5852_15244)">
<path d="M5.19422 1.35512C5.26332 1.09724 5.52839 0.9442 5.78628 1.0133C6.04416 1.0824 6.1972 1.34747 6.1281 1.60536L3.13574 12.773C3.06664 13.0309 2.80156 13.1839 2.54368 13.1148C2.2858 13.0457 2.13276 12.7807 2.20186 12.5228L5.19422 1.35512Z" fill="white"/>
</g>
<path opacity="0.08" d="M1.60739 14.7408C1.62467 14.6763 1.69094 14.638 1.75541 14.6553L2.45582 14.843C2.52029 14.8603 2.55855 14.9265 2.54127 14.991C2.524 15.0555 2.45773 15.0937 2.39326 15.0764L1.69285 14.8888C1.62838 14.8715 1.59012 14.8052 1.60739 14.7408Z" fill="black"/>
<path opacity="0.04" d="M5.19916 2.27351C5.23371 2.14457 5.36625 2.06805 5.49519 2.1026C5.62413 2.13715 5.70065 2.26968 5.6661 2.39863L5.16564 4.26639C5.13109 4.39533 4.99855 4.47185 4.86961 4.4373C4.74067 4.40275 4.66415 4.27021 4.6987 4.14127L5.19916 2.27351Z" fill="black"/>
</g>
<defs>
<filter id="filter0_iiiii_5852_15244" x="0.886719" y="0.765602" width="16.1133" height="17.564" filterUnits="userSpaceOnUse" color-interpolation-filters="sRGB">
<feFlood flood-opacity="0" result="BackgroundImageFix"/>
<feBlend mode="normal" in="SourceGraphic" in2="BackgroundImageFix" result="shape"/>
<feColorMatrix in="SourceAlpha" type="matrix" values="0 0 0 0 0 0 0 0 0 0 0 0 0 0 0 0 0 0 127 0" result="hardAlpha"/>
<feOffset dy="-0.0805687"/>
<feGaussianBlur stdDeviation="0.0402843"/>
<feComposite in2="hardAlpha" operator="arithmetic" k2="-1" k3="1"/>
<feColorMatrix type="matrix" values="0 0 0 0 0 0 0 0 0 0 0 0 0 0 0 0 0 0 0.08 0"/>
<feBlend mode="normal" in2="shape" result="effect1_innerShadow_5852_15244"/>
<feColorMatrix in="SourceAlpha" type="matrix" values="0 0 0 0 0 0 0 0 0 0 0 0 0 0 0 0 0 0 127 0" result="hardAlpha"/>
<feOffset dy="0.0805687"/>
<feGaussianBlur stdDeviation="0.0402843"/>
<feComposite in2="hardAlpha" operator="arithmetic" k2="-1" k3="1"/>
<feColorMatrix type="matrix" values="0 0 0 0 1 0 0 0 0 1 0 0 0 0 1 0 0 0 0.32 0"/>
<feBlend mode="normal" in2="effect1_innerShadow_5852_15244" result="effect2_innerShadow_5852_15244"/>
<feColorMatrix in="SourceAlpha" type="matrix" values="0 0 0 0 0 0 0 0 0 0 0 0 0 0 0 0 0 0 127 0" result="hardAlpha"/>
<feOffset dy="-0.805687"/>
<feGaussianBlur stdDeviation="0.64455"/>
<feComposite in2="hardAlpha" operator="arithmetic" k2="-1" k3="1"/>
<feColorMatrix type="matrix" values="0 0 0 0 0 0 0 0 0 0 0 0 0 0 0 0 0 0 0.04 0"/>
<feBlend mode="normal" in2="effect2_innerShadow_5852_15244" result="effect3_innerShadow_5852_15244"/>
<feColorMatrix in="SourceAlpha" type="matrix" values="0 0 0 0 0 0 0 0 0 0 0 0 0 0 0 0 0 0 127 0" result="hardAlpha"/>
<feOffset dy="0.64455"/>
<feGaussianBlur stdDeviation="0.64455"/>
<feComposite in2="hardAlpha" operator="arithmetic" k2="-1" k3="1"/>
<feColorMatrix type="matrix" values="0 0 0 0 1 0 0 0 0 1 0 0 0 0 1 0 0 0 0.25 0"/>
<feBlend mode="normal" in2="effect3_innerShadow_5852_15244" result="effect4_innerShadow_5852_15244"/>
<feColorMatrix in="SourceAlpha" type="matrix" values="0 0 0 0 0 0 0 0 0 0 0 0 0 0 0 0 0 0 127 0" result="hardAlpha"/>
<feOffset dy="-0.0402843"/>
<feGaussianBlur stdDeviation="0.0201422"/>
<feComposite in2="hardAlpha" operator="arithmetic" k2="-1" k3="1"/>
<feColorMatrix type="matrix" values="0 0 0 0 1 0 0 0 0 1 0 0 0 0 1 0 0 0 0.4 0"/>
<feBlend mode="normal" in2="effect4_innerShadow_5852_15244" result="effect5_innerShadow_5852_15244"/>
</filter>
<filter id="filter1_f_5852_15244" x="-5.86147" y="7.00913" width="29.6292" height="21.9549" filterUnits="userSpaceOnUse" color-interpolation-filters="sRGB">
<feFlood flood-opacity="0" result="BackgroundImageFix"/>
<feBlend mode="normal" in="SourceGraphic" in2="BackgroundImageFix" result="shape"/>
<feGaussianBlur stdDeviation="2.5782" result="effect1_foregroundBlur_5852_15244"/>
</filter>
<filter id="filter2_f_5852_15244" x="-5.74125" y="3.50436" width="25.5303" height="18.5108" filterUnits="userSpaceOnUse" color-interpolation-filters="sRGB">
<feFlood flood-opacity="0" result="BackgroundImageFix"/>
<feBlend mode="normal" in="SourceGraphic" in2="BackgroundImageFix" result="shape"/>
<feGaussianBlur stdDeviation="0.64455" result="effect1_foregroundBlur_5852_15244"/>
</filter>
<filter id="filter3_ddii_5852_15244" x="-3.50525" y="-2.82019" width="26.1844" height="26.1849" filterUnits="userSpaceOnUse" color-interpolation-filters="sRGB">
<feFlood flood-opacity="0" result="BackgroundImageFix"/>
<feColorMatrix in="SourceAlpha" type="matrix" values="0 0 0 0 0 0 0 0 0 0 0 0 0 0 0 0 0 0 127 0" result="hardAlpha"/>
<feOffset dx="0.64455" dy="0.64455"/>
<feGaussianBlur stdDeviation="2.51777"/>
<feComposite in2="hardAlpha" operator="out"/>
<feColorMatrix type="matrix" values="0 0 0 0 0 0 0 0 0 0 0 0 0 0 0 0 0 0 0.32 0"/>
<feBlend mode="normal" in2="BackgroundImageFix" result="effect1_dropShadow_5852_15244"/>
<feColorMatrix in="SourceAlpha" type="matrix" values="0 0 0 0 0 0 0 0 0 0 0 0 0 0 0 0 0 0 127 0" result="hardAlpha"/>
<feOffset dx="0.0805687" dy="0.0805687"/>
<feGaussianBlur stdDeviation="0.64455"/>
<feComposite in2="hardAlpha" operator="out"/>
<feColorMatrix type="matrix" values="0 0 0 0 0 0 0 0 0 0 0 0 0 0 0 0 0 0 0.12 0"/>
<feBlend mode="normal" in2="effect1_dropShadow_5852_15244" result="effect2_dropShadow_5852_15244"/>
<feBlend mode="normal" in="SourceGraphic" in2="effect2_dropShadow_5852_15244" result="shape"/>
<feColorMatrix in="SourceAlpha" type="matrix" values="0 0 0 0 0 0 0 0 0 0 0 0 0 0 0 0 0 0 127 0" result="hardAlpha"/>
<feOffset dx="-0.64455" dy="-0.64455"/>
<feGaussianBlur stdDeviation="0.64455"/>
<feComposite in2="hardAlpha" operator="arithmetic" k2="-1" k3="1"/>
<feColorMatrix type="matrix" values="0 0 0 0 0 0 0 0 0 0 0 0 0 0 0 0 0 0 0.12 0"/>
<feBlend mode="normal" in2="shape" result="effect3_innerShadow_5852_15244"/>
<feColorMatrix in="SourceAlpha" type="matrix" values="0 0 0 0 0 0 0 0 0 0 0 0 0 0 0 0 0 0 127 0" result="hardAlpha"/>
<feOffset dx="-0.0805687" dy="-0.0805687"/>
<feGaussianBlur stdDeviation="0.322275"/>
<feComposite in2="hardAlpha" operator="arithmetic" k2="-1" k3="1"/>
<feColorMatrix type="matrix" values="0 0 0 0 0 0 0 0 0 0 0 0 0 0 0 0 0 0 0.16 0"/>
<feBlend mode="normal" in2="effect3_innerShadow_5852_15244" result="effect4_innerShadow_5852_15244"/>
</filter>
<filter id="filter4_f_5852_15244" x="-11.0179" y="0.120313" width="39.942" height="29.8307" filterUnits="userSpaceOnUse" color-interpolation-filters="sRGB">
<feFlood flood-opacity="0" result="BackgroundImageFix"/>
<feBlend mode="normal" in="SourceGraphic" in2="BackgroundImageFix" result="shape"/>
<feGaussianBlur stdDeviation="5.1564" result="effect1_foregroundBlur_5852_15244"/>
</filter>
<filter id="filter5_f_5852_15244" x="0.0800049" y="12.1152" width="18.2287" height="10.1012" filterUnits="userSpaceOnUse" color-interpolation-filters="sRGB">
<feFlood flood-opacity="0" result="BackgroundImageFix"/>
<feBlend mode="normal" in="SourceGraphic" in2="BackgroundImageFix" result="shape"/>
<feGaussianBlur stdDeviation="1.2891" result="effect1_foregroundBlur_5852_15244"/>
</filter>
<filter id="filter6_f_5852_15244" x="-0.463895" y="1.30857" width="21.0889" height="21.0889" filterUnits="userSpaceOnUse" color-interpolation-filters="sRGB">
<feFlood flood-opacity="0" result="BackgroundImageFix"/>
<feBlend mode="normal" in="SourceGraphic" in2="BackgroundImageFix" result="shape"/>
<feGaussianBlur stdDeviation="0.483412" result="effect1_foregroundBlur_5852_15244"/>
</filter>
<filter id="filter7_dd_5852_15244" x="0.805173" y="1.49023" width="16.4356" height="16.436" filterUnits="userSpaceOnUse" color-interpolation-filters="sRGB">
<feFlood flood-opacity="0" result="BackgroundImageFix"/>
<feColorMatrix in="SourceAlpha" type="matrix" values="0 0 0 0 0 0 0 0 0 0 0 0 0 0 0 0 0 0 127 0" result="hardAlpha"/>
<feOffset dy="0.0402843"/>
<feGaussianBlur stdDeviation="0.0201422"/>
<feComposite in2="hardAlpha" operator="out"/>
<feColorMatrix type="matrix" values="0 0 0 0 1 0 0 0 0 1 0 0 0 0 1 0 0 0 0.64 0"/>
<feBlend mode="normal" in2="BackgroundImageFix" result="effect1_dropShadow_5852_15244"/>
<feColorMatrix in="SourceAlpha" type="matrix" values="0 0 0 0 0 0 0 0 0 0 0 0 0 0 0 0 0 0 127 0" result="hardAlpha"/>
<feOffset dx="0.0805687" dy="0.0805687"/>
<feGaussianBlur stdDeviation="0.0805687"/>
<feComposite in2="hardAlpha" operator="out"/>
<feColorMatrix type="matrix" values="0 0 0 0 1 0 0 0 0 1 0 0 0 0 1 0 0 0 0.25 0"/>
<feBlend mode="normal" in2="effect1_dropShadow_5852_15244" result="effect2_dropShadow_5852_15244"/>
<feBlend mode="normal" in="SourceGraphic" in2="effect2_dropShadow_5852_15244" result="shape"/>
</filter>
<filter id="filter8_f_5852_15244" x="-11.0188" y="-2.09453" width="39.942" height="32.046" filterUnits="userSpaceOnUse" color-interpolation-filters="sRGB">
<feFlood flood-opacity="0" result="BackgroundImageFix"/>
<feBlend mode="normal" in="SourceGraphic" in2="BackgroundImageFix" result="shape"/>
<feGaussianBlur stdDeviation="5.1564" result="effect1_foregroundBlur_5852_15244"/>
</filter>
<filter id="filter9_f_5852_15244" x="-0.977612" y="8.79192" width="24.4728" height="13.5558" filterUnits="userSpaceOnUse" color-interpolation-filters="sRGB">
<feFlood flood-opacity="0" result="BackgroundImageFix"/>
<feBlend mode="normal" in="SourceGraphic" in2="BackgroundImageFix" result="shape"/>
<feGaussianBlur stdDeviation="1.2891" result="effect1_foregroundBlur_5852_15244"/>
</filter>
<filter id="filter10_f_5852_15244" x="-5.74233" y="-3.67544" width="30.4554" height="30.4549" filterUnits="userSpaceOnUse" color-interpolation-filters="sRGB">
<feFlood flood-opacity="0" result="BackgroundImageFix"/>
<feBlend mode="normal" in="SourceGraphic" in2="BackgroundImageFix" result="shape"/>
<feGaussianBlur stdDeviation="2.5782" result="effect1_foregroundBlur_5852_15244"/>
</filter>
<filter id="filter11_f_5852_15244" x="-11.5626" y="-7.53335" width="29.4681" height="29.4681" filterUnits="userSpaceOnUse" color-interpolation-filters="sRGB">
<feFlood flood-opacity="0" result="BackgroundImageFix"/>
<feBlend mode="normal" in="SourceGraphic" in2="BackgroundImageFix" result="shape"/>
<feGaussianBlur stdDeviation="2.5782" result="effect1_foregroundBlur_5852_15244"/>
</filter>
<filter id="filter12_f_5852_15244" x="-16.719" y="-12.6897" width="39.7809" height="39.7809" filterUnits="userSpaceOnUse" color-interpolation-filters="sRGB">
<feFlood flood-opacity="0" result="BackgroundImageFix"/>
<feBlend mode="normal" in="SourceGraphic" in2="BackgroundImageFix" result="shape"/>
<feGaussianBlur stdDeviation="5.1564" result="effect1_foregroundBlur_5852_15244"/>
</filter>
<filter id="filter13_f_5852_15244" x="-1.34675" y="-1.29939" width="10.7941" height="22.2335" filterUnits="userSpaceOnUse" color-interpolation-filters="sRGB">
<feFlood flood-opacity="0" result="BackgroundImageFix"/>
<feBlend mode="normal" in="SourceGraphic" in2="BackgroundImageFix" result="shape"/>
<feGaussianBlur stdDeviation="1.2891" result="effect1_foregroundBlur_5852_15244"/>
</filter>
<filter id="filter14_iii_5852_15244" x="0.587872" y="-0.373065" width="6.28224" height="17.7217" filterUnits="userSpaceOnUse" color-interpolation-filters="sRGB">
<feFlood flood-opacity="0" result="BackgroundImageFix"/>
<feBlend mode="normal" in="SourceGraphic" in2="BackgroundImageFix" result="shape"/>
<feColorMatrix in="SourceAlpha" type="matrix" values="0 0 0 0 0 0 0 0 0 0 0 0 0 0 0 0 0 0 127 0" result="hardAlpha"/>
<feOffset dx="-0.483412" dy="-0.483412"/>
<feGaussianBlur stdDeviation="0.483412"/>
<feComposite in2="hardAlpha" operator="arithmetic" k2="-1" k3="1"/>
<feColorMatrix type="matrix" values="0 0 0 0 0 0 0 0 0 0 0 0 0 0 0 0 0 0 0.16 0"/>
<feBlend mode="normal" in2="shape" result="effect1_innerShadow_5852_15244"/>
<feColorMatrix in="SourceAlpha" type="matrix" values="0 0 0 0 0 0 0 0 0 0 0 0 0 0 0 0 0 0 127 0" result="hardAlpha"/>
<feOffset dx="-0.64455" dy="-0.64455"/>
<feGaussianBlur stdDeviation="1.2891"/>
<feComposite in2="hardAlpha" operator="arithmetic" k2="-1" k3="1"/>
<feColorMatrix type="matrix" values="0 0 0 0 0 0 0 0 0 0 0 0 0 0 0 0 0 0 0.1 0"/>
<feBlend mode="normal" in2="effect1_innerShadow_5852_15244" result="effect2_innerShadow_5852_15244"/>
<feColorMatrix in="SourceAlpha" type="matrix" values="0 0 0 0 0 0 0 0 0 0 0 0 0 0 0 0 0 0 127 0" result="hardAlpha"/>
<feOffset dx="-0.0805687" dy="-0.161137"/>
<feGaussianBlur stdDeviation="0.120853"/>
<feComposite in2="hardAlpha" operator="arithmetic" k2="-1" k3="1"/>
<feColorMatrix type="matrix" values="0 0 0 0 0 0 0 0 0 0 0 0 0 0 0 0 0 0 0.08 0"/>
<feBlend mode="normal" in2="effect2_innerShadow_5852_15244" result="effect3_innerShadow_5852_15244"/>
</filter>
<filter id="filter15_if_5852_15244" x="1.86327" y="0.674307" width="4.32154" height="12.4973" filterUnits="userSpaceOnUse" color-interpolation-filters="sRGB">
<feFlood flood-opacity="0" result="BackgroundImageFix"/>
<feBlend mode="normal" in="SourceGraphic" in2="BackgroundImageFix" result="shape"/>
<feColorMatrix in="SourceAlpha" type="matrix" values="0 0 0 0 0 0 0 0 0 0 0 0 0 0 0 0 0 0 127 0" result="hardAlpha"/>
<feOffset dx="-0.322275" dy="-0.322275"/>
<feGaussianBlur stdDeviation="0.64455"/>
<feComposite in2="hardAlpha" operator="arithmetic" k2="-1" k3="1"/>
<feColorMatrix type="matrix" values="0 0 0 0 0 0 0 0 0 0 0 0 0 0 0 0 0 0 0.12 0"/>
<feBlend mode="normal" in2="shape" result="effect1_innerShadow_5852_15244"/>
<feGaussianBlur stdDeviation="0.0201422" result="effect2_foregroundBlur_5852_15244"/>
</filter>
<linearGradient id="paint0_linear_5852_15244" x1="400.887" y1="1.57129" x2="400.887" y2="801.571" gradientUnits="userSpaceOnUse">
<stop stop-opacity="0"/>
<stop offset="1" stop-opacity="0.32"/>
</linearGradient>
<clipPath id="clip0_5852_15244">
<rect width="17" height="18.5639" fill="white"/>
</clipPath>
<clipPath id="clip1_5852_15244">
<rect x="0.886719" y="1.57129" width="16.1137" height="16.1137" rx="3.62559" fill="white"/>
</clipPath>
</defs>
</svg>
