<svg width="29" height="28" viewBox="0 0 29 28" fill="none" xmlns="http://www.w3.org/2000/svg">
<path fill-rule="evenodd" clip-rule="evenodd" d="M14.7312 26.2497H14.7289C13.421 26.2485 12.1832 25.6722 11.244 24.6257C10.9209 24.2675 10.95 23.7134 11.3094 23.3914C11.6687 23.067 12.2217 23.0962 12.5449 23.4567C13.1492 24.1299 13.925 24.4997 14.73 24.4997H14.7312C15.5397 24.4997 16.319 24.1299 16.9245 23.4555C17.2489 23.0974 17.8019 23.0682 18.16 23.3914C18.5194 23.7145 18.5485 24.2687 18.2254 24.6269C17.2827 25.6734 16.0425 26.2497 14.7312 26.2497Z" fill="white"/>
<mask id="mask0_4814_10265" style="mask-type:luminance" maskUnits="userSpaceOnUse" x="4" y="1" width="22" height="21">
<path fill-rule="evenodd" clip-rule="evenodd" d="M4 1.1665H25.5797V21.4058H4V1.1665Z" fill="white"/>
</mask>
<g mask="url(#mask0_4814_10265)">
<path fill-rule="evenodd" clip-rule="evenodd" d="M14.7882 2.9165C10.7107 2.9165 7.86868 6.11084 7.86868 8.97734C7.86868 11.4028 7.19552 12.524 6.60052 13.5133C6.12335 14.3078 5.74652 14.9355 5.74652 16.2993C5.94135 18.4997 7.39385 19.6558 14.7882 19.6558C22.1417 19.6558 23.6397 18.4483 23.8333 16.2235C23.8298 14.9355 23.453 14.3078 22.9758 13.5133C22.3808 12.524 21.7077 11.4028 21.7077 8.97734C21.7077 6.11084 18.8657 2.9165 14.7882 2.9165ZM14.7882 21.4058C9.33285 21.4058 4.40252 21.0208 4.00002 16.374C3.99652 14.4513 4.58335 13.4737 5.10135 12.6127C5.62518 11.74 6.11868 10.9175 6.11868 8.97734C6.11868 5.2055 9.60235 1.1665 14.7882 1.1665C19.974 1.1665 23.4577 5.2055 23.4577 8.97734C23.4577 10.9175 23.9512 11.74 24.475 12.6127C24.993 13.4737 25.5798 14.4513 25.5798 16.2993C25.1727 21.0208 20.2435 21.4058 14.7882 21.4058Z" fill="white"/>
</g>
</svg>
