<svg width="14" height="21" viewBox="0 0 14 21" fill="none" xmlns="http://www.w3.org/2000/svg">
    <path d="M12 20.5C13.103 20.5 14 19.603 14 18.5V2.5C14 1.397 13.103 0.5 12 0.5H2C0.897 0.5 0 1.397 0 2.5V18.5C0 19.603 0.897 20.5 2 20.5H12ZM7 15.5C7.26522 15.5 7.51957 15.6054 7.70711 15.7929C7.89464 15.9804 8 16.2348 8 16.5C8 16.7652 7.89464 17.0196 7.70711 17.2071C7.51957 17.3946 7.26522 17.5 7 17.5C6.73478 17.5 6.48043 17.3946 6.29289 17.2071C6.10536 17.0196 6 16.7652 6 16.5C6 16.2348 6.10536 15.9804 6.29289 15.7929C6.48043 15.6054 6.73478 15.5 7 15.5Z" fill="#F89300"/>
</svg>
