<svg width="10" height="12" viewBox="0 0 10 12" fill="none" xmlns="http://www.w3.org/2000/svg">
<path fill-rule="evenodd" clip-rule="evenodd" d="M4.76867 6.36092H4.78734C6.49534 6.36092 7.88426 4.972 7.88426 3.264C7.88426 1.556 6.49534 0.166504 4.78734 0.166504C3.07876 0.166504 1.68926 1.556 1.68926 3.26225C1.68342 4.96559 3.06417 6.35567 4.76867 6.36092ZM2.52226 3.264C2.52226 2.01509 3.53842 0.999504 4.78734 0.999504C6.03567 0.999504 7.05126 2.01509 7.05126 3.264C7.05126 4.51234 6.03567 5.5285 4.78734 5.5285H4.77042C3.52676 5.52384 2.51817 4.50884 2.52226 3.264Z" fill="#9E9E9E"/>
<path fill-rule="evenodd" clip-rule="evenodd" d="M0.166748 9.60095C0.166748 11.7575 3.64458 11.7575 4.78733 11.7575C6.77008 11.7575 9.40675 11.5353 9.40675 9.61262C9.40675 7.45603 5.93008 7.45603 4.78733 7.45603C2.804 7.45603 0.166748 7.67828 0.166748 9.60095ZM1.04175 9.60095C1.04175 8.75803 2.30175 8.33103 4.78733 8.33103C7.27233 8.33103 8.53175 8.76212 8.53175 9.61262C8.53175 10.4555 7.27233 10.8825 4.78733 10.8825C2.30175 10.8825 1.04175 10.4515 1.04175 9.60095Z" fill="#9E9E9E"/>
</svg>
