<svg width="187" height="180" viewBox="0 0 187 180" fill="none" xmlns="http://www.w3.org/2000/svg">
    <circle cx="96" cy="90.5" r="70.5" fill="url(#paint0_linear_7345_1249)"/>
    <circle cx="178.966" cy="27.5" r="7.5" fill="#FBBE66"/>
    <circle cx="20.5332" cy="10" r="10" fill="#FBBE66"/>
    <circle cx="10.5332" cy="133" r="5" fill="#FBBE66"/>
    <circle cx="166.033" cy="160.5" r="2.5" fill="#FBBE66"/>
    <path fill-rule="evenodd" clip-rule="evenodd" d="M85.3557 65.9165H106.669C115.003 65.9165 120.584 71.7673 120.584 80.4698V100.557C120.584 109.232 115.003 115.083 106.669 115.083H85.3557C77.022 115.083 71.417 109.232 71.417 100.557V80.4698C71.417 71.7673 77.022 65.9165 85.3557 65.9165ZM94.5991 97.8503L106.276 86.1732C107.112 85.3373 107.112 83.9853 106.276 83.1248C105.44 82.289 104.064 82.289 103.228 83.1248L93.0749 93.2778L88.7728 88.9757C87.937 88.1398 86.5603 88.1398 85.7245 88.9757C84.8887 89.8115 84.8887 91.1636 85.7245 92.024L91.5753 97.8503C91.9932 98.2682 92.5341 98.4648 93.0749 98.4648C93.6403 98.4648 94.1812 98.2682 94.5991 97.8503Z" fill="white"/>
    <circle cx="107.033" cy="4.5" r="2.5" fill="#FBBE66"/>
    <circle cx="63.0332" cy="176.5" r="3.5" fill="#FBBE66"/>
    <circle cx="122.533" cy="171" r="1" fill="#FBBE66"/>
    <circle cx="171.033" cy="110.5" r="2.5" fill="#FBBE66"/>
    <circle cx="1.5332" cy="75" r="1" fill="#FBBE66"/>
    <defs>
        <linearGradient id="paint0_linear_7345_1249" x1="166.5" y1="161" x2="-1.27734" y2="112.355" gradientUnits="userSpaceOnUse">
            <stop stop-color="#F89300"/>
            <stop offset="1" stop-color="#FFBB58"/>
        </linearGradient>
    </defs>
</svg>
