<svg width="29" height="28" viewBox="0 0 29 28" fill="none" xmlns="http://www.w3.org/2000/svg">
<mask id="mask0_4814_10243" style="mask-type:luminance" maskUnits="userSpaceOnUse" x="2" y="2" width="24" height="24">
<path fill-rule="evenodd" clip-rule="evenodd" d="M2.83325 2.3335H25.5562V25.0567H2.83325V2.3335Z" fill="white"/>
</mask>
<g mask="url(#mask0_4814_10243)">
<path fill-rule="evenodd" clip-rule="evenodd" d="M14.1952 4.0835C8.89501 4.0835 4.58301 8.39433 4.58301 13.6945C4.58301 18.9947 8.89501 23.3067 14.1952 23.3067C19.4942 23.3067 23.8062 18.9947 23.8062 13.6945C23.8062 8.39433 19.4942 4.0835 14.1952 4.0835M14.1952 25.0567C7.93017 25.0567 2.83301 19.9595 2.83301 13.6945C2.83301 7.4295 7.93017 2.3335 14.1952 2.3335C20.4602 2.3335 25.5562 7.4295 25.5562 13.6945C25.5562 19.9595 20.4602 25.0567 14.1952 25.0567" fill="white"/>
</g>
<mask id="mask1_4814_10243" style="mask-type:luminance" maskUnits="userSpaceOnUse" x="20" y="20" width="7" height="7">
<path fill-rule="evenodd" clip-rule="evenodd" d="M20.6133 20.6582H26.4747V26.5087H20.6133V20.6582Z" fill="white"/>
</mask>
<g mask="url(#mask1_4814_10243)">
<path fill-rule="evenodd" clip-rule="evenodd" d="M25.5999 26.5087C25.3771 26.5087 25.1531 26.4236 24.9816 26.2532L20.8702 22.1536C20.5284 21.8117 20.5272 21.2576 20.8691 20.9157C21.2097 20.5716 21.7639 20.5739 22.1069 20.9134L26.2182 25.0142C26.5601 25.3561 26.5612 25.9091 26.2194 26.2509C26.0491 26.4236 25.8239 26.5087 25.5999 26.5087" fill="white"/>
</g>
</svg>
