<svg width="40" height="40" viewBox="0 0 40 40" fill="none" xmlns="http://www.w3.org/2000/svg">
<path d="M29.864 23.867C29.4323 24.2853 29.234 24.8903 29.3323 25.4837L30.814 33.6837C30.939 34.3787 30.6456 35.082 30.064 35.4837C29.494 35.9003 28.7356 35.9503 28.114 35.617L20.7323 31.767C20.4756 31.6303 20.1906 31.557 19.899 31.5487H19.4473C19.2906 31.572 19.1373 31.622 18.9973 31.6987L11.614 35.567C11.249 35.7503 10.8356 35.8153 10.4306 35.7503C9.44398 35.5637 8.78565 34.6237 8.94731 33.632L10.4306 25.432C10.529 24.8337 10.3306 24.2253 9.89898 23.8003L3.88065 17.967C3.37731 17.4787 3.20231 16.7453 3.43231 16.0837C3.65565 15.4237 4.22565 14.942 4.91398 14.8337L13.1973 13.632C13.8273 13.567 14.3806 13.1837 14.664 12.617L18.314 5.13366C18.4006 4.96699 18.5123 4.81366 18.6473 4.68366L18.7973 4.56699C18.8756 4.48033 18.9656 4.40866 19.0656 4.35033L19.2473 4.28366L19.5306 4.16699H20.2323C20.859 4.23199 21.4106 4.60699 21.699 5.16699L25.3973 12.617C25.664 13.162 26.1823 13.5403 26.7806 13.632L35.064 14.8337C35.764 14.9337 36.349 15.417 36.5806 16.0837C36.799 16.752 36.6106 17.4853 36.0973 17.967L29.864 23.867Z" fill="#F89300"/>
</svg>
