<svg width="29" height="28" viewBox="0 0 29 28" fill="none" xmlns="http://www.w3.org/2000/svg">
<mask id="mask0_4814_5694" style="mask-type:luminance" maskUnits="userSpaceOnUse" x="2" y="3" width="24" height="24">
<path fill-rule="evenodd" clip-rule="evenodd" d="M2.83325 3.50049H25.5821V26.2493H2.83325V3.50049Z" fill="white"/>
</mask>
<g mask="url(#mask0_4814_5694)">
<path fill-rule="evenodd" clip-rule="evenodd" d="M13.1057 17.2876L17.3722 24.2094C17.5589 24.5128 17.8505 24.5093 17.9684 24.4929C18.0862 24.4766 18.3697 24.4043 18.4724 24.0601L23.8075 6.04094C23.9009 5.72244 23.7294 5.50544 23.6524 5.42844C23.5777 5.35144 23.3642 5.18694 23.055 5.27444L5.02302 10.5548C4.68119 10.6551 4.60652 10.9421 4.59019 11.0599C4.57385 11.1801 4.56919 11.4776 4.87135 11.6678L11.8725 16.0463L18.0582 9.79527C18.3977 9.45227 18.9519 9.44877 19.296 9.78827C19.6402 10.1278 19.6425 10.6831 19.303 11.0261L13.1057 17.2876ZM17.8774 26.2499C17.0654 26.2499 16.321 25.8369 15.8824 25.1276L11.3592 17.7881L3.94385 13.1506C3.14469 12.6501 2.72702 11.7588 2.85652 10.8219C2.98485 9.8851 3.62769 9.14077 4.53069 8.87594L22.5627 3.5956C23.3922 3.35294 24.2812 3.58277 24.8925 4.19177C25.5039 4.8066 25.7314 5.70494 25.484 6.53794L20.1489 24.5559C19.8817 25.4624 19.135 26.1029 18.2005 26.2278C18.0909 26.2418 17.9847 26.2499 17.8774 26.2499V26.2499Z" fill="white"/>
</g>
</svg>
