<svg width="202" height="297" viewBox="0 0 202 297" fill="none" xmlns="http://www.w3.org/2000/svg">
<path d="M17.65 283.19C15.48 283.17 13.42 282.2 11.88 280.66L0.959982 269.73C0.569982 269.34 0.339982 268.8 0.439982 268.26C0.579982 267.46 1.25998 266.91 2.02998 266.91H5.52998C6.59998 266.91 7.66998 266.57 8.47998 265.85C9.44998 264.98 9.95998 263.77 9.89998 262.49L9.81998 234.22C9.81998 233.5 10.25 232.85 10.92 232.58C11.59 232.3 12.35 232.46 12.86 232.97C12.88 232.99 12.9 233.01 12.92 233.04L23.98 245.77C25.1 246.92 25.71 248.43 25.71 250.04V275.21C25.71 279.64 22.09 283.23 17.66 283.19H17.65ZM5.08998 269.79L14.1 278.81C15.09 279.8 16.42 280.33 17.82 280.3C20.63 280.24 22.81 277.8 22.81 275V250.03C22.81 249.17 22.48 248.36 21.88 247.76C21.86 247.74 21.84 247.72 21.82 247.69L12.71 237.2L12.78 262.42C12.88 264.41 12.11 266.35 10.63 267.8C9.25998 269.13 7.36998 269.8 5.45998 269.8H5.10998L5.08998 269.79Z" fill="#F6A61C"/>
<path d="M2.82 269.79H2.49C1.29 269.79 0 269.02 0 266.86V234.12C0 233.4 0.49 232.74 1.2 232.62C2.1 232.47 2.88 233.17 2.88 234.04V266.86C2.88 266.86 2.88 266.89 2.88 266.91H2.93C3.8 266.91 4.48 267.67 4.36 268.56C4.26 269.29 3.56 269.79 2.82 269.79Z" fill="#F6A61C"/>
<path d="M6.17999 262.86C5.37999 262.86 4.73999 262.21 4.73999 261.42V237.21C4.73999 236.41 5.38999 235.77 6.17999 235.77C6.96999 235.77 7.61999 236.42 7.61999 237.21V261.42C7.61999 262.22 6.96999 262.86 6.17999 262.86Z" fill="#F6A61C"/>
<path d="M5.99998 231.54C9.18666 231.54 11.77 228.957 11.77 225.77C11.77 222.583 9.18666 220 5.99998 220C2.8133 220 0.22998 222.583 0.22998 225.77C0.22998 228.957 2.8133 231.54 5.99998 231.54Z" fill="#F6A61C"/>
<path d="M46.5201 276.3L48.1101 276.06C48.6201 276.06 49.0501 276.64 49.4101 277.8C49.7601 278.96 49.9401 279.79 49.9401 280.3C49.9401 282.22 48.0601 283.19 44.2801 283.19C38.5501 283.19 35.6801 280.01 35.6801 273.65V240.19C35.6801 238.93 36.8601 238.31 39.2101 238.31H40.8601C43.2201 238.31 44.3901 238.94 44.3901 240.19V273.76C44.3901 275.45 45.1001 276.29 46.5101 276.29L46.5201 276.3Z" fill="#F8F9DF"/>
<path d="M68.96 280.95V240.19C68.96 238.93 70.14 238.31 72.49 238.31H74.14C76.5 238.31 77.67 238.94 77.67 240.19V253.27C79.36 252.05 81.36 251.44 83.68 251.44C87.61 251.44 90.66 252.86 92.84 255.71C95.02 258.56 96.11 262.45 96.11 267.37C96.11 272.29 95.09 276.17 93.05 278.97C91.01 281.78 88.36 283.18 85.1 283.18C83.33 283.18 81.75 282.77 80.36 281.94C78.97 281.12 77.92 280.06 77.21 278.76L76.62 281.29C76.38 282.31 75.24 282.82 73.2 282.82H72.49C70.13 282.82 68.96 282.19 68.96 280.93V280.95ZM82.51 276.06C85.69 276.06 87.28 273.11 87.28 267.19C87.28 261.27 85.45 258.33 81.8 258.33C80.39 258.33 79.01 258.7 77.68 259.45V272.59C79.02 274.91 80.63 276.06 82.51 276.06Z" fill="#F8F9DF"/>
<path d="M102.24 280.95V262.28C102.24 259.33 102.12 257.27 101.89 256.1C101.65 254.92 101.54 254.22 101.54 253.98C101.54 253.35 102.33 252.88 103.92 252.57C105.51 252.26 106.7 252.1 107.48 252.1C108.26 252.1 108.78 252.18 109.04 252.34C109.3 252.5 109.5 252.74 109.66 253.08C109.82 253.41 109.93 253.69 110.01 253.9C110.09 254.12 110.18 254.48 110.28 254.99C110.38 255.5 110.45 255.81 110.49 255.93C112.14 252.95 114.28 251.45 116.91 251.45C118.17 251.45 119.04 251.77 119.53 252.42C120.02 253.07 120.27 253.8 120.27 254.63C120.27 255.46 120.09 256.49 119.74 257.72C119.39 258.96 118.95 259.58 118.44 259.58C118.2 259.58 117.79 259.5 117.2 259.34C116.61 259.18 116.1 259.1 115.67 259.1C113.71 259.1 112.14 260.08 110.96 262.05V280.96C110.96 282.22 109.78 282.85 107.43 282.85H105.78C103.42 282.85 102.25 282.22 102.25 280.96L102.24 280.95Z" fill="#F8F9DF"/>
<path d="M122.62 274.59C122.62 273.49 122.72 272.49 122.91 271.59C123.11 270.69 123.56 269.72 124.26 268.67C124.97 267.63 125.91 266.78 127.09 266.11C129.88 264.46 134.02 263.64 139.52 263.64V261.7C139.52 259.46 137.99 258.34 134.93 258.34C132.77 258.34 130.67 258.81 128.63 259.75C127.92 260.06 127.51 260.22 127.39 260.22C126.8 260.22 126.14 259.61 125.42 258.39C124.69 257.17 124.33 256.21 124.33 255.5C124.33 254.44 125.42 253.5 127.6 252.67C129.78 251.85 132.44 251.43 135.58 251.43C144.02 251.43 148.24 254.71 148.24 261.27V272.34C148.24 274.78 148.36 276.82 148.59 278.47L148.94 280.89C148.94 281.52 148.15 281.99 146.55 282.3C144.96 282.61 143.77 282.77 142.99 282.77C142.21 282.77 141.68 282.69 141.43 282.53C141.17 282.37 140.97 282.11 140.81 281.73C140.65 281.36 140.53 281.06 140.46 280.85C140.38 280.63 140.29 280.25 140.2 279.7C140.1 279.15 140.03 278.82 139.99 278.7C139.28 279.96 138.07 281.02 136.34 281.88C134.61 282.74 132.94 283.18 131.33 283.18C128.31 283.18 126.1 282.4 124.7 280.82C123.31 279.25 122.61 277.17 122.61 274.58L122.62 274.59ZM131.28 273.7C131.28 274.49 131.54 275.11 132.05 275.58C132.56 276.05 133.33 276.29 134.35 276.29C135.37 276.29 136.37 275.94 137.35 275.23C138.33 274.52 139.06 273.64 139.53 272.58V269.34C134.03 269.34 131.28 270.79 131.28 273.7Z" fill="#F8F9DF"/>
<path d="M155.9 280.95V262.28C155.9 259.33 155.78 257.27 155.55 256.1C155.31 254.92 155.2 254.22 155.2 253.98C155.2 253.35 155.99 252.88 157.58 252.57C159.17 252.26 160.36 252.1 161.14 252.1C161.92 252.1 162.44 252.18 162.7 252.34C162.96 252.5 163.16 252.74 163.32 253.08C163.48 253.41 163.59 253.69 163.67 253.9C163.75 254.12 163.84 254.48 163.94 254.99C164.04 255.5 164.11 255.81 164.15 255.93C165.8 252.95 167.94 251.45 170.57 251.45C171.83 251.45 172.7 251.77 173.19 252.42C173.68 253.07 173.93 253.8 173.93 254.63C173.93 255.46 173.75 256.49 173.4 257.72C173.05 258.96 172.61 259.58 172.1 259.58C171.86 259.58 171.45 259.5 170.86 259.34C170.27 259.18 169.76 259.1 169.33 259.1C167.37 259.1 165.8 260.08 164.62 262.05V280.96C164.62 282.22 163.44 282.85 161.09 282.85H159.44C157.08 282.85 155.91 282.22 155.91 280.96L155.9 280.95Z" fill="#F8F9DF"/>
<path d="M174.4 253.09C174.4 252.23 175.6 251.79 177.99 251.79H179.87C181.79 251.79 182.89 252.2 183.17 253.03L186.64 263.93C186.99 265.03 187.54 267.41 188.29 271.06H188.53C189.32 267.29 189.87 264.91 190.18 263.93L193.65 253.03C193.92 252.21 195.02 251.79 196.95 251.79H198.36C200.72 251.79 201.89 252.22 201.89 253.09C201.89 253.37 201.83 253.72 201.71 254.15L188.22 293.62C187.91 294.44 186.81 294.86 184.92 294.86H183.92C181.56 294.86 180.39 294.45 180.39 293.62C180.39 293.27 180.47 292.91 180.62 292.56L184.33 282.72L174.61 254.15C174.45 253.6 174.37 253.25 174.37 253.09H174.4Z" fill="#F8F9DF"/>
<path d="M53.98 280.95V253.68C53.98 252.42 55.16 251.8 57.51 251.8H59.16C61.52 251.8 62.69 252.43 62.69 253.68V280.95C62.69 282.21 61.51 282.84 59.16 282.84H57.51C55.15 282.84 53.98 282.21 53.98 280.95Z" fill="#F8F9DF"/>
<path d="M58.39 249.89C57.11 249.89 56.01 249.5 55.11 248.71C54.2 247.92 53.75 246.81 53.75 245.38C53.75 244.08 54.22 243.01 55.15 242.16C56.08 241.32 57.17 240.9 58.4 240.9C59.63 240.9 60.65 241.28 61.57 242.05C62.49 242.81 62.95 243.92 62.95 245.38C62.95 246.84 62.5 247.9 61.6 248.7C60.7 249.5 59.64 249.9 58.4 249.9L58.39 249.89Z" fill="#F8F9DF"/>
<path d="M114.394 200.999C108.075 200.941 102.077 198.116 97.5925 193.632L65.7953 161.806C64.6597 160.67 63.99 159.098 64.2811 157.525C64.6888 155.196 66.6688 153.594 68.911 153.594H79.1024C82.2181 153.594 85.3337 152.604 87.6923 150.508C90.5168 147.975 92.0018 144.451 91.8271 140.724L91.5942 58.4065C91.5942 56.3099 92.8463 54.4172 94.7972 53.631C96.7481 52.8157 98.9611 53.2816 100.446 54.7667C100.504 54.8249 100.563 54.8831 100.621 54.9705L132.826 92.0382C136.087 95.3868 137.863 99.7836 137.863 104.472V177.763C137.863 190.662 127.322 201.116 114.423 200.999H114.394ZM77.8212 161.98L104.057 188.245C106.94 191.128 110.812 192.671 114.889 192.584C123.071 192.409 129.419 185.304 129.419 177.151V104.443C129.419 101.938 128.458 99.5798 126.711 97.8327C126.653 97.7745 126.594 97.7162 126.536 97.6289L100.009 67.0837L100.213 140.52C100.504 146.315 98.2623 151.964 93.9528 156.186C89.9635 160.059 84.4602 162.01 78.8986 162.01H77.8794L77.8212 161.98Z" fill="#F6A61C"/>
<path d="M71.2114 161.981H70.2505C66.7563 161.981 63 159.738 63 153.449V58.1154C63 56.0188 64.4268 54.097 66.4942 53.7476C69.1149 53.3108 71.3861 55.3491 71.3861 57.8824V153.449C71.3861 153.449 71.3861 153.536 71.3861 153.594H71.5317C74.065 153.594 76.045 155.807 75.6956 158.399C75.4044 160.525 73.3661 161.981 71.2114 161.981Z" fill="#F6A61C"/>
<path d="M80.995 141.801C78.6656 141.801 76.802 139.909 76.802 137.608V67.1127C76.802 64.7832 78.6947 62.9197 80.995 62.9197C83.2954 62.9197 85.1881 64.8124 85.1881 67.1127V137.608C85.1881 139.938 83.2954 141.801 80.995 141.801Z" fill="#F6A61C"/>
<path d="M80.471 50.6026C89.7501 50.6026 97.2723 43.0804 97.2723 33.8013C97.2723 24.5222 89.7501 17 80.471 17C71.1919 17 63.6697 24.5222 63.6697 33.8013C63.6697 43.0804 71.1919 50.6026 80.471 50.6026Z" fill="#F6A61C"/>
</svg>
