<svg width="17" height="16" viewBox="0 0 17 16" fill="none" xmlns="http://www.w3.org/2000/svg">
<path opacity="0.4" d="M9.15091 2.07558L10.6352 5.05843C10.7446 5.27454 10.9533 5.42462 11.194 5.45797L14.5281 5.94355C14.7228 5.97089 14.8995 6.07361 15.0188 6.23036C15.1369 6.3851 15.1875 6.5812 15.1589 6.77397C15.1355 6.93405 15.0602 7.08213 14.9448 7.19552L12.529 9.53737C12.3523 9.70079 12.2722 9.94291 12.3149 10.1797L12.9097 13.472C12.9731 13.8696 12.7097 14.2444 12.3149 14.3198C12.1522 14.3458 11.9855 14.3185 11.8388 14.2438L8.86485 12.6943C8.64413 12.5829 8.38341 12.5829 8.1627 12.6943L5.18872 14.2438C4.82331 14.4379 4.37055 14.3058 4.16717 13.9456C4.09182 13.8022 4.06515 13.6388 4.08982 13.4794L4.68462 10.1864C4.72729 9.95025 4.64661 9.70679 4.47057 9.54338L2.05472 7.20285C1.76732 6.92538 1.75865 6.46848 2.03538 6.181C2.04138 6.175 2.04805 6.16833 2.05472 6.16166C2.16941 6.04493 2.32011 5.97089 2.48281 5.95155L5.81686 5.4653C6.05691 5.43129 6.26562 5.28254 6.37565 5.0651L7.80662 2.07558C7.93398 1.81945 8.19804 1.66004 8.48477 1.66671H8.57412C8.82284 1.69672 9.03955 1.8508 9.15091 2.07558Z" fill="#E0E0E0"/>
<path d="M8.49472 12.6112C8.36558 12.6153 8.23978 12.6499 8.12662 12.712L5.16719 14.2579C4.80508 14.4307 4.37175 14.2966 4.16873 13.9503C4.09351 13.8089 4.06622 13.6468 4.09152 13.488L4.6826 10.2019C4.72254 9.96308 4.64266 9.72021 4.46893 9.55207L2.052 7.21215C1.76511 6.93126 1.75978 6.47021 2.04068 6.18264C2.04468 6.17864 2.04801 6.1753 2.052 6.17197C2.16649 6.05854 2.31426 5.98381 2.47335 5.96046L5.81019 5.46939C6.05182 5.4387 6.2615 5.28791 6.368 5.06906L7.81843 2.04192C7.95621 1.79772 8.22047 1.65226 8.50004 1.66761C8.49472 1.86577 8.49472 12.4765 8.49472 12.6112Z" fill="#E0E0E0"/>
</svg>
