<svg width="187" height="180" viewBox="0 0 187 180" fill="none" xmlns="http://www.w3.org/2000/svg">
<circle cx="96" cy="90.5" r="70.5" fill="url(#paint0_linear_5353_8345)"/>
<circle cx="178.966" cy="27.5" r="7.5" fill="#FBBE66"/>
<circle cx="20.5332" cy="10" r="10" fill="#FBBE66"/>
<circle cx="10.5332" cy="133" r="5" fill="#FBBE66"/>
<circle cx="166.033" cy="160.5" r="2.5" fill="#FBBE66"/>
<path fill-rule="evenodd" clip-rule="evenodd" d="M71.4165 90.5368C71.4165 77.5865 81.7661 65.9165 96.049 65.9165C110.012 65.9165 120.583 77.3649 120.583 90.4629C120.583 105.654 108.193 115.083 95.9998 115.083C91.9682 115.083 87.494 114 83.9048 111.883C82.6511 111.119 81.594 110.553 80.2419 110.996L75.2761 112.473C74.0223 112.867 72.8915 111.883 73.2603 110.553L74.9073 105.038C75.1778 104.275 75.1286 103.462 74.7353 102.822C72.6211 98.9323 71.4165 94.673 71.4165 90.5368ZM92.804 90.5368C92.804 92.2848 94.2053 93.6882 95.9507 93.7128C97.6961 93.7128 99.0973 92.2848 99.0973 90.5614C99.0973 88.8133 97.6961 87.41 95.9507 87.41C94.2298 87.3854 92.804 88.8133 92.804 90.5368ZM104.137 90.5614C104.137 92.2848 105.538 93.7128 107.284 93.7128C109.029 93.7128 110.43 92.2848 110.43 90.5614C110.43 88.8133 109.029 87.41 107.284 87.41C105.538 87.41 104.137 88.8133 104.137 90.5614ZM84.6178 93.7128C82.8969 93.7128 81.4711 92.2848 81.4711 90.5614C81.4711 88.8133 82.8723 87.41 84.6178 87.41C86.3632 87.41 87.7644 88.8133 87.7644 90.5614C87.7644 92.2848 86.3632 93.6882 84.6178 93.7128Z" fill="white"/>
<circle cx="107.033" cy="4.5" r="2.5" fill="#FBBE66"/>
<circle cx="63.0332" cy="176.5" r="3.5" fill="#FBBE66"/>
<circle cx="122.533" cy="171" r="1" fill="#FBBE66"/>
<circle cx="171.033" cy="110.5" r="2.5" fill="#FBBE66"/>
<circle cx="1.5332" cy="75" r="1" fill="#FBBE66"/>
<defs>
<linearGradient id="paint0_linear_5353_8345" x1="166.5" y1="161" x2="-1.27734" y2="112.355" gradientUnits="userSpaceOnUse">
<stop stop-color="#F89300"/>
<stop offset="1" stop-color="#FFBB58"/>
</linearGradient>
</defs>
</svg>
