<svg width="16" height="16" viewBox="0 0 16 16" fill="none" xmlns="http://www.w3.org/2000/svg">
<path d="M12.7068 12.4462L11.2802 9.59961L9.85352 12.4462" stroke="#F89300" stroke-linecap="round" stroke-linejoin="round"/>
<path d="M10.1133 11.9404H12.46" stroke="#F89300" stroke-linecap="round" stroke-linejoin="round"/>
<path d="M11.2802 14.6669C9.41356 14.6669 7.89355 13.1535 7.89355 11.2802C7.89355 9.41353 9.40689 7.89355 11.2802 7.89355C13.1469 7.89355 14.6669 9.40686 14.6669 11.2802C14.6669 13.1535 13.1536 14.6669 11.2802 14.6669Z" stroke="#F89300" stroke-linecap="round" stroke-linejoin="round"/>
<path d="M3.34683 1.33301H5.96016C7.34016 1.33301 8.00683 1.99969 7.9735 3.34635V5.95968C8.00683 7.33968 7.34016 8.00636 5.96016 7.97302H3.34683C2.00017 7.99969 1.3335 7.333 1.3335 5.953V3.33968C1.3335 1.99968 2.00017 1.33301 3.34683 1.33301Z" stroke="#F89300" stroke-linecap="round" stroke-linejoin="round"/>
<path d="M6.00696 3.89941H3.30029" stroke="#F89300" stroke-linecap="round" stroke-linejoin="round"/>
<path d="M4.64697 3.44629V3.89962" stroke="#F89300" stroke-linecap="round" stroke-linejoin="round"/>
<path d="M5.32679 3.89258C5.32679 5.05924 4.41346 6.0059 3.29346 6.0059" stroke="#F89300" stroke-linecap="round" stroke-linejoin="round"/>
<path d="M6.00676 6.00635C5.5201 6.00635 5.0801 5.74634 4.77344 5.33301" stroke="#F89300" stroke-linecap="round" stroke-linejoin="round"/>
<path d="M1.3335 10C1.3335 12.58 3.42016 14.6667 6.00016 14.6667L5.30016 13.5" stroke="#F89300" stroke-linecap="round" stroke-linejoin="round"/>
<path d="M14.6667 5.99967C14.6667 3.41967 12.58 1.33301 10 1.33301L10.7 2.49967" stroke="#F89300" stroke-linecap="round" stroke-linejoin="round"/>
</svg>
