<svg width="40" height="40" viewBox="0 0 40 40" fill="none" xmlns="http://www.w3.org/2000/svg">
<path fill-rule="evenodd" clip-rule="evenodd" d="M19.5834 7.5C19.4317 7.5 19.0584 7.54167 18.86 7.93833L15.8167 14.0233C15.335 14.985 14.4067 15.6533 13.3334 15.8067L6.52002 16.7883C6.07002 16.8533 5.91669 17.1867 5.87002 17.3267C5.82836 17.4617 5.76169 17.805 6.07169 18.1017L10.9984 22.835C11.7834 23.59 12.14 24.6783 11.9534 25.7433L10.7934 32.4267C10.7217 32.845 10.9834 33.0883 11.1 33.1717C11.2234 33.265 11.5534 33.45 11.9617 33.2367L18.0534 30.0783C19.0134 29.5833 20.1567 29.5833 21.1134 30.0783L27.2034 33.235C27.6134 33.4467 27.9434 33.2617 28.0684 33.1717C28.185 33.0883 28.4467 32.845 28.375 32.4267L27.2117 25.7433C27.025 24.6783 27.3817 23.59 28.1667 22.835L33.0934 18.1017C33.405 17.805 33.3384 17.46 33.295 17.3267C33.25 17.1867 33.0967 16.8533 32.6467 16.7883L25.8334 15.8067C24.7617 15.6533 23.8334 14.985 23.3517 14.0217L20.305 7.93833C20.1084 7.54167 19.735 7.5 19.5834 7.5ZM11.5784 35.8333C10.89 35.8333 10.2067 35.6167 9.62169 35.19C8.61169 34.45 8.11669 33.2283 8.33169 31.9983L9.49169 25.315C9.53502 25.0667 9.45002 24.815 9.26669 24.6383L4.34002 19.905C3.43336 19.0367 3.10836 17.7533 3.49169 16.5617C3.87836 15.3567 4.90169 14.495 6.16336 14.315L12.9767 13.3333C13.24 13.2967 13.4667 13.135 13.58 12.905L16.625 6.81833C17.1867 5.69667 18.32 5 19.5834 5C20.8467 5 21.98 5.69667 22.5417 6.81833L25.5884 12.9033C25.7034 13.135 25.9284 13.2967 26.19 13.3333L33.0034 14.315C34.265 14.495 35.2884 15.3567 35.675 16.5617C36.0584 17.7533 35.7317 19.0367 34.825 19.905L29.8984 24.6383C29.715 24.815 29.6317 25.0667 29.675 25.3133L30.8367 31.9983C31.05 33.23 30.555 34.4517 29.5434 35.19C28.5184 35.9417 27.1834 36.0433 26.0517 35.4533L19.9634 32.2983C19.725 32.175 19.44 32.175 19.2017 32.2983L13.1134 35.455C12.6267 35.7083 12.1017 35.8333 11.5784 35.8333Z" fill="#FAFAFA"/>
</svg>
