<svg width="24" height="24" viewBox="0 0 24 24" fill="none" xmlns="http://www.w3.org/2000/svg">
    <path d="M17.4994 18.2493C17.3005 18.2493 17.1097 18.1703 16.969 18.0296C16.8284 17.889 16.7494 17.6982 16.7494 17.4993C16.7494 17.3004 16.8284 17.1096 16.969 16.969C17.1097 16.8283 17.3005 16.7493 17.4994 16.7493C19.1594 16.7493 19.7494 15.9193 19.7494 13.5693C19.6771 12.7316 19.3115 11.9463 18.717 11.3517C18.1224 10.7572 17.3371 10.3916 16.4994 10.3193C16.1587 10.3273 15.8214 10.388 15.4994 10.4993C15.4021 10.54 15.2972 10.5594 15.1918 10.5563C15.0864 10.5531 14.9829 10.5275 14.8882 10.4811C14.7935 10.4347 14.7099 10.3686 14.6428 10.2872C14.5757 10.2059 14.5268 10.1111 14.4994 10.0093C14.1188 8.82015 13.3269 7.80557 12.2657 7.14764C11.2045 6.48971 9.94364 6.2315 8.70929 6.41936C7.47494 6.60723 6.34794 7.22886 5.53057 8.17269C4.7132 9.11652 4.25896 10.3208 4.24937 11.5693C4.24937 15.0093 5.00937 16.7493 6.49937 16.7493C6.69829 16.7493 6.88905 16.8283 7.0297 16.969C7.17036 17.1096 7.24937 17.3004 7.24937 17.4993C7.24937 17.6982 7.17036 17.889 7.0297 18.0296C6.88905 18.1703 6.69829 18.2493 6.49937 18.2493C3.99937 18.2493 2.74937 15.9993 2.74937 11.5693C2.71814 9.99305 3.23962 8.4556 4.22338 7.22363C5.20713 5.99166 6.59108 5.1429 8.13517 4.82458C9.67925 4.50626 11.2861 4.73846 12.6768 5.48091C14.0676 6.22336 15.1547 7.42922 15.7494 8.8893C16.0133 8.84163 16.2811 8.8182 16.5494 8.8193C17.7844 8.89507 18.949 9.41984 19.8239 10.2948C20.6988 11.1697 21.2236 12.3343 21.2994 13.5693C21.2494 14.8493 21.2494 18.2493 17.4994 18.2493Z" fill="#9E9E9E"/>
    <path d="M14.8307 15.65C14.6323 15.6477 14.4425 15.5689 14.3007 15.43L12.0007 13.13L9.70075 15.43C9.55857 15.5625 9.37052 15.6346 9.17622 15.6312C8.98192 15.6277 8.79654 15.549 8.65912 15.4116C8.52171 15.2742 8.443 15.0888 8.43957 14.8945C8.43614 14.7002 8.50827 14.5122 8.64075 14.37L11.4707 11.54C11.5397 11.4692 11.6221 11.413 11.7131 11.3746C11.8042 11.3362 11.902 11.3164 12.0007 11.3164C12.0995 11.3164 12.1973 11.3362 12.2884 11.3746C12.3794 11.413 12.4618 11.4692 12.5307 11.54L15.3607 14.37C15.5012 14.5106 15.5801 14.7012 15.5801 14.9C15.5801 15.0987 15.5012 15.2894 15.3607 15.43C15.2174 15.5663 15.0285 15.6447 14.8307 15.65Z" fill="#9E9E9E"/>
    <path d="M12 19.1803C11.8011 19.1803 11.6103 19.1013 11.4697 18.9606C11.329 18.82 11.25 18.6292 11.25 18.4303V12.0703C11.25 11.8714 11.329 11.6806 11.4697 11.54C11.6103 11.3993 11.8011 11.3203 12 11.3203C12.1989 11.3203 12.3897 11.3993 12.5303 11.54C12.671 11.6806 12.75 11.8714 12.75 12.0703V18.4303C12.75 18.6292 12.671 18.82 12.5303 18.9606C12.3897 19.1013 12.1989 19.1803 12 19.1803Z" fill="#9E9E9E"/>
</svg>
